<?xml version="1.0" encoding="UTF-8" standalone="no"?>
<!-- Created with Inkscape (http://www.inkscape.org/) -->

<svg
   xmlns:ns0="http://www.iki.fi/pav/software/textext/"
   xmlns:dc="http://purl.org/dc/elements/1.1/"
   xmlns:cc="http://creativecommons.org/ns#"
   xmlns:rdf="http://www.w3.org/1999/02/22-rdf-syntax-ns#"
   xmlns:svg="http://www.w3.org/2000/svg"
   xmlns="http://www.w3.org/2000/svg"
   xmlns:xlink="http://www.w3.org/1999/xlink"
   xmlns:sodipodi="http://sodipodi.sourceforge.net/DTD/sodipodi-0.dtd"
   xmlns:inkscape="http://www.inkscape.org/namespaces/inkscape"
   width="429.08817"
   height="200.83116"
   id="svg3201"
   version="1.1"
   inkscape:version="0.48.2 r9819"
   sodipodi:docname="resonantcav.svg">
  <sodipodi:namedview
     id="base"
     pagecolor="#ffffff"
     bordercolor="#666666"
     borderopacity="1.0"
     inkscape:pageopacity="0.0"
     inkscape:pageshadow="2"
     inkscape:zoom="0.70000001"
     inkscape:cx="242.7229"
     inkscape:cy="22.477785"
     inkscape:document-units="px"
     inkscape:current-layer="layer1"
     showgrid="false"
     inkscape:window-width="1024"
     inkscape:window-height="576"
     inkscape:window-x="0"
     inkscape:window-y="24"
     inkscape:window-maximized="1"
     fit-margin-top="0"
     fit-margin-left="0"
     fit-margin-right="0"
     fit-margin-bottom="0" />
  <defs
     id="defs3203">
    <linearGradient
       id="linearGradient6041">
      <stop
         style="stop-color:#ffc700;stop-opacity:0;"
         offset="0"
         id="stop6043" />
      <stop
         id="stop6045"
         offset="0.5"
         style="stop-color:#ffc700;stop-opacity:1;" />
      <stop
         style="stop-color:#ffc700;stop-opacity:0;"
         offset="1"
         id="stop6047" />
    </linearGradient>
    <linearGradient
       id="linearGradient5434">
      <stop
         id="stop5436"
         offset="0"
         style="stop-color:#000000;stop-opacity:1;" />
      <stop
         style="stop-color:#00ff03;stop-opacity:1;"
         offset="0.5"
         id="stop5442" />
      <stop
         id="stop5438"
         offset="1"
         style="stop-color:#000000;stop-opacity:1;" />
    </linearGradient>
    <linearGradient
       id="linearGradient4590">
      <stop
         id="stop4592"
         offset="0"
         style="stop-color:#fff3b7;stop-opacity:1;" />
      <stop
         style="stop-color:#e6dc53;stop-opacity:1;"
         offset="0.5"
         id="stop4598" />
      <stop
         id="stop4594"
         offset="1"
         style="stop-color:#fff3b7;stop-opacity:1;" />
    </linearGradient>
    <marker
       inkscape:stockid="Arrow1Mstart"
       orient="auto"
       refY="0"
       refX="0"
       id="Arrow1Mstart"
       style="overflow:visible">
      <path
         inkscape:connector-curvature="0"
         id="path4027"
         d="M 0,0 5,-5 -12.5,0 5,5 0,0 z"
         style="fill-rule:evenodd;stroke:#000000;stroke-width:1pt;marker-start:none"
         transform="matrix(0.4,0,0,0.4,4,0)" />
    </marker>
    <marker
       inkscape:stockid="Arrow1Mend"
       orient="auto"
       refY="0"
       refX="0"
       id="Arrow1Mend"
       style="overflow:visible">
      <path
         inkscape:connector-curvature="0"
         id="path4177"
         d="M 0,0 5,-5 -12.5,0 5,5 0,0 z"
         style="fill-rule:evenodd;stroke:#000000;stroke-width:1pt;marker-start:none"
         transform="matrix(-0.4,0,0,-0.4,-4,0)" />
    </marker>
    <linearGradient
       inkscape:collect="always"
       xlink:href="#linearGradient3927"
       id="linearGradient4040"
       gradientUnits="userSpaceOnUse"
       gradientTransform="matrix(0,0.81479474,-3.663534,0,3037.2521,1013.5819)"
       x1="-58.100445"
       y1="835.68701"
       x2="-48.100445"
       y2="835.68701" />
    <linearGradient
       id="linearGradient3927">
      <stop
         id="stop3929"
         offset="0"
         style="stop-color:#ff0000;stop-opacity:0;" />
      <stop
         style="stop-color:#ff0000;stop-opacity:1;"
         offset="0.5"
         id="stop3931" />
      <stop
         id="stop3933"
         offset="1"
         style="stop-color:#ff0000;stop-opacity:0;" />
    </linearGradient>
    <linearGradient
       y2="835.68701"
       x2="-48.100445"
       y1="835.68701"
       x1="-58.100445"
       gradientTransform="matrix(0,0.81479474,-3.663534,0,2888.7868,76.659698)"
       gradientUnits="userSpaceOnUse"
       id="linearGradient3233"
       xlink:href="#linearGradient3927"
       inkscape:collect="always" />
    <linearGradient
       y2="835.68701"
       x2="-48.100445"
       y1="835.68701"
       x1="-58.100445"
       gradientTransform="matrix(0,0.97281807,5.2949551,0,-4185.4457,142.68877)"
       gradientUnits="userSpaceOnUse"
       id="linearGradient4584"
       xlink:href="#linearGradient3927"
       inkscape:collect="always" />
    <linearGradient
       y2="835.68701"
       x2="-48.100445"
       y1="835.68701"
       x1="-58.100445"
       gradientTransform="matrix(-0.97281807,0,0,0.97988001,154.81766,-699.71634)"
       gradientUnits="userSpaceOnUse"
       id="linearGradient4586"
       xlink:href="#linearGradient3927"
       inkscape:collect="always" />
    <linearGradient
       y2="92.725006"
       x2="123.74876"
       y1="75.544678"
       x1="123.74876"
       gradientTransform="translate(4,0)"
       gradientUnits="userSpaceOnUse"
       id="linearGradient5403"
       xlink:href="#linearGradient4590"
       inkscape:collect="always" />
    <linearGradient
       gradientTransform="matrix(1.1939425,0,0,1.1939425,-4.0478618,-7.9356402)"
       gradientUnits="userSpaceOnUse"
       y2="83.255058"
       x2="342.10715"
       y1="83.255058"
       x1="335.75"
       id="linearGradient5440"
       xlink:href="#linearGradient5434"
       inkscape:collect="always" />
    <linearGradient
       y2="835.68701"
       x2="-48.100445"
       y1="835.68701"
       x1="-58.100445"
       gradientTransform="matrix(0,0.48973306,2.3448072,0,-1749.8419,116.94683)"
       gradientUnits="userSpaceOnUse"
       id="linearGradient6077"
       xlink:href="#linearGradient6041"
       inkscape:collect="always" />
    <linearGradient
       y2="835.68701"
       x2="-48.100445"
       y1="835.68701"
       x1="-58.100445"
       gradientTransform="matrix(-0.48973306,0,0,1.011225,180.46968,-724.78447)"
       gradientUnits="userSpaceOnUse"
       id="linearGradient6081"
       xlink:href="#linearGradient6041"
       inkscape:collect="always" />
    <linearGradient
       inkscape:collect="always"
       xlink:href="#linearGradient3927"
       id="linearGradient6735"
       gradientUnits="userSpaceOnUse"
       gradientTransform="matrix(0,0.81479474,-1.0989825,0,984.14235,259.33886)"
       x1="-58.100445"
       y1="835.68701"
       x2="-48.100445"
       y2="835.68701" />
    <linearGradient
       inkscape:collect="always"
       xlink:href="#linearGradient6041"
       id="linearGradient6737"
       gradientUnits="userSpaceOnUse"
       gradientTransform="matrix(0,0.48973306,1.0966875,0,-850.7506,260.81915)"
       x1="-58.100445"
       y1="835.68701"
       x2="-48.100445"
       y2="835.68701" />
  </defs>
  <metadata
     id="metadata3206">
    <rdf:RDF>
      <cc:Work
         rdf:about="">
        <dc:format>image/svg+xml</dc:format>
        <dc:type
           rdf:resource="http://purl.org/dc/dcmitype/StillImage" />
      </cc:Work>
    </rdf:RDF>
  </metadata>
  <g
     transform="translate(-20.871464,-40.917498)"
     inkscape:label="Layer 1"
     inkscape:groupmode="layer"
     id="layer1">
    <path
       inkscape:connector-curvature="0"
       id="path4791"
       d="m 206.47471,148.20316 c 0,-58.092872 0,-58.092872 0,-58.092872"
       style="fill:none;stroke:url(#linearGradient4586);stroke-width:9.76342678;stroke-linecap:butt;stroke-linejoin:miter;stroke-miterlimit:4;stroke-opacity:1;stroke-dasharray:none" />
    <path
       style="fill:none;stroke:url(#linearGradient4584);stroke-width:22.69587326;stroke-linecap:butt;stroke-linejoin:miter;stroke-miterlimit:4;stroke-opacity:1;stroke-dasharray:none"
       d="m 396.4372,91.031712 c -313.915146,0 -313.915146,0 -313.915146,0"
       id="path3293"
       inkscape:connector-curvature="0" />
    <path
       style="fill:none;stroke:url(#linearGradient6077);stroke-width:10.71601295;stroke-linecap:butt;stroke-linejoin:miter;stroke-miterlimit:4;stroke-opacity:1;stroke-dasharray:none"
       d="m 279.18984,90.941796 c -139.01355,0 -139.01355,0 -139.01355,0"
       id="path6075"
       inkscape:connector-curvature="0" />
    <path
       inkscape:connector-curvature="0"
       id="path6079"
       d="m 206.47471,150.25874 c 0,-59.951188 0,-59.951188 0,-59.951188"
       style="fill:none;stroke:url(#linearGradient6081);stroke-width:7.03725958;stroke-linecap:butt;stroke-linejoin:miter;stroke-miterlimit:4;stroke-opacity:1;stroke-dasharray:none" />
    <path
       inkscape:connector-curvature="0"
       id="path6037"
       d="m 98.245891,234.81412 c -65.01789,0 -65.01789,0 -65.01789,0"
       style="fill:none;stroke:url(#linearGradient6737);stroke-width:7.32860136;stroke-linecap:butt;stroke-linejoin:miter;stroke-miterlimit:4;stroke-opacity:1;stroke-dasharray:none" />
    <path
       inkscape:connector-curvature="0"
       id="path4038"
       d="m -281.37872,33.39375 c 217.195199,0 217.195199,0 217.195199,0"
       style="fill:none;stroke:url(#linearGradient3233);stroke-width:17.27723312;stroke-linecap:butt;stroke-linejoin:miter;stroke-miterlimit:4;stroke-opacity:1;stroke-dasharray:none" />
    <path
       inkscape:connector-curvature="0"
       id="path3910"
       d="m -216.97937,16.48473 c 3e-5,34.15732 3e-5,34.15732 3e-5,34.15732"
       style="fill:none;stroke:#000000;stroke-width:2.4000001;stroke-linecap:butt;stroke-linejoin:miter;stroke-miterlimit:4;stroke-opacity:1;stroke-dasharray:none" />
    <path
       style="fill:none;stroke:#000000;stroke-width:2.44438434;stroke-linecap:butt;stroke-linejoin:miter;stroke-miterlimit:4;stroke-opacity:1;stroke-dasharray:none"
       d="m -275.21573,16.48671 c -12.6427,17.27533 -0.2277,34.07222 -0.16501,34.15695"
       id="path3916"
       inkscape:connector-curvature="0"
       sodipodi:nodetypes="cc" />
    <g
       id="g3959"
       transform="matrix(1,0,0,-1,-228.19365,1060.7462)">
      <rect
         style="fill:#ffffff;fill-opacity:1;stroke:none"
         id="rect3964"
         width="5.0507321"
         height="8.3212986"
         x="-474.11313"
         y="905.35455"
         transform="matrix(0.89799256,-0.44001064,0.44215494,0.89693869,0,0)" />
      <rect
         transform="matrix(-0.87770527,-0.47920085,-0.40459077,0.91449784,0,0)"
         y="915.56165"
         x="-406.27808"
         height="7.7101274"
         width="4.3811722"
         id="rect3966"
         style="fill:#ffffff;fill-opacity:1;stroke:none" />
      <rect
         transform="matrix(0.8372705,-0.5467889,0.5467889,0.8372705,0,0)"
         y="844.20966"
         x="-580.06757"
         height="10.101525"
         width="5.0507627"
         id="rect3957"
         style="fill:#ffffff;fill-opacity:1;stroke:none" />
      <path
         inkscape:connector-curvature="0"
         id="path3918"
         d="m -15.328096,1014.2424 c -3.525388,1.8745 -5.452533,7.2128 -2.50058,10.3897 2.410399,2.7483 4.905078,6.3845 3.83858,10.2221 -0.573002,2.2706 -2.611607,3.8891 -4.833496,4.4009"
         style="fill:none;stroke:#000000;stroke-width:1;stroke-linecap:butt;stroke-linejoin:miter;stroke-miterlimit:4;stroke-opacity:1;stroke-dasharray:none" />
      <path
         style="fill:none;stroke:#000000;stroke-width:1;stroke-linecap:butt;stroke-linejoin:miter;stroke-miterlimit:4;stroke-opacity:1;stroke-dasharray:none"
         d="m -21.328096,1014.2424 c -3.525388,1.8745 -5.452533,7.2128 -2.50058,10.3897 2.410399,2.7483 4.905078,6.3845 3.83858,10.2221 -0.573002,2.2706 -2.611607,3.8891 -4.833496,4.4009"
         id="path3955"
         inkscape:connector-curvature="0" />
    </g>
    <path
       sodipodi:nodetypes="cc"
       inkscape:connector-curvature="0"
       id="path3297"
       d="m 389.07894,70.845679 c 15.09466,20.62575 0.27186,40.680261 0.19702,40.781431"
       style="fill:none;stroke:#000000;stroke-width:2.91845417;stroke-linecap:butt;stroke-linejoin:miter;stroke-miterlimit:4;stroke-opacity:1;stroke-dasharray:none" />
    <path
       style="fill:none;stroke:#000000;stroke-width:2.91845417;stroke-linecap:butt;stroke-linejoin:miter;stroke-miterlimit:4;stroke-opacity:1;stroke-dasharray:none"
       d="m 286.01332,70.845679 c -15.09466,20.62575 -0.27186,40.680261 -0.19702,40.781431"
       id="path3313"
       inkscape:connector-curvature="0"
       sodipodi:nodetypes="cc" />
    <path
       inkscape:connector-curvature="0"
       id="path3199"
       d="M 221.86908,76.834287 C 193.03196,105.67146 193.03196,105.67146 193.03196,105.67146"
       style="fill:none;stroke:#000000;stroke-width:1.94563615;stroke-linecap:butt;stroke-linejoin:miter;stroke-miterlimit:4;stroke-opacity:1;stroke-dasharray:none" />
    <g
       transform="matrix(1.1939425,0,0,1.1939425,-99.734938,-828.42704)"
       id="g3335">
      <rect
         ry="6.7678895"
         rx="2.8224514"
         y="758.12244"
         x="103.16055"
         height="13.783677"
         width="54.829475"
         id="rect3337"
         style="fill:#740000;fill-opacity:1;stroke:none" />
      <rect
         style="fill:#000000;fill-opacity:1;stroke:none"
         id="rect3339"
         width="61.114231"
         height="18.194313"
         x="101.01525"
         y="761.80865"
         rx="2.3588893"
         ry="6.6984859" />
    </g>
    <text
       sodipodi:linespacing="125%"
       id="text3341"
       y="74.712975"
       x="26.972754"
       style="font-size:11.93942451px;font-style:normal;font-weight:normal;line-height:125%;letter-spacing:0px;word-spacing:0px;fill:#000000;fill-opacity:1;stroke:none;font-family:Sans"
       xml:space="preserve"><tspan
         id="tspan3343"
         y="74.712975"
         x="26.972754"
         sodipodi:role="line">Laser</tspan></text>
    <path
       style="fill:none;stroke:#000000;stroke-width:1.19394243;stroke-linecap:butt;stroke-linejoin:miter;stroke-miterlimit:4;stroke-opacity:1;stroke-dasharray:2.3878849, 1.19394245;stroke-dashoffset:0;marker-end:url(#Arrow1Mend)"
       d="m 238.15189,82.298312 c 28.14292,0 28.14292,0 28.14292,0"
       id="path3375"
       inkscape:connector-curvature="0" />
    <path
       style="fill:none;stroke:#000000;stroke-width:1.19394243;stroke-linecap:butt;stroke-linejoin:miter;stroke-miterlimit:4;stroke-opacity:1;stroke-dasharray:2.3878849, 1.19394245;stroke-dashoffset:0;marker-end:url(#Arrow1Mend)"
       d="m 241.93416,101.38321 c -7.12796,0.4389 -15.67777,-1.98676 -21.73084,3.01744 -5.68116,6.27785 -3.73277,10.16397 -4.06773,19.36898"
       id="path3377"
       inkscape:connector-curvature="0"
       sodipodi:nodetypes="ccc" />
    <path
       sodipodi:type="arc"
       style="fill:#ffffff;fill-opacity:1;stroke:#000000;stroke-width:2;stroke-miterlimit:4;stroke-opacity:1;stroke-dasharray:none;stroke-dashoffset:0"
       id="path4016"
       sodipodi:cx="456.08386"
       sodipodi:cy="7.0479188"
       sodipodi:rx="22.728432"
       sodipodi:ry="22.728432"
       d="m 478.81229,7.0479188 c 0,12.5525662 -10.17586,22.7284312 -22.72843,22.7284312 -12.55256,0 -22.72843,-10.175865 -22.72843,-22.7284312 0,-4e-7 0,-7e-7 0,-1.1e-6 l 22.72843,1.1e-6 z"
       transform="matrix(0.52455737,0,0,0.52455737,-32.644459,142.1446)"
       sodipodi:start="0"
       sodipodi:end="3.1415927" />
    <g
       id="content"
       transform="matrix(1.1939425,0,0,-1.1939425,-23.236228,858.95186)"
       xml:space="preserve"
       stroke-miterlimit="10.433"
       font-style="normal"
       font-variant="normal"
       font-weight="normal"
       font-stretch="normal"
       font-size-adjust="none"
       letter-spacing="normal"
       word-spacing="normal"
       ns0:text="$E_{\\rm i}$"
       ns0:preamble=""
       style="font-style:normal;font-variant:normal;font-weight:normal;font-stretch:normal;letter-spacing:normal;word-spacing:normal;text-anchor:start;fill:none;stroke:#000000;stroke-linecap:butt;stroke-linejoin:miter;stroke-miterlimit:10.43299961;stroke-opacity:1;stroke-dasharray:none;stroke-dashoffset:0">
<path
   d="m 230.49,659.55 0,0.01 0,0 0.01,0.01 0,0.01 0.01,0.01 0,0.01 0,0.01 0.01,0.01 0,0.01 0,0.01 0.01,0 0,0.01 0,0 0,0.01 0,0 0,0.01 0,0 0.01,0 0,0.01 0,0 0,0 0,0.01 0,0 0,0 0,0 c 0,0.01 0,0.11 -0.12,0.11 -0.09,0 -0.11,-0.06 -0.13,-0.12 -0.65,-1.47 -1.02,-2.14 -2.72,-2.14 h -1.46 c -0.14,0 -0.16,0 -0.22,0.01 -0.1,0.01 -0.13,0.02 -0.13,0.1 0,0.03 0,0.05 0.05,0.23 l 0.68,2.72 h 0.99 c 0.85,0 0.85,-0.21 0.85,-0.46 0,-0.07 0,-0.19 -0.07,-0.49 -0.02,-0.05 -0.03,-0.08 -0.03,-0.11 0,-0.05 0.04,-0.11 0.13,-0.11 0.08,0 0.11,0.05 0.15,0.2 l 0.56,2.33 c 0,0.06 -0.05,0.11 -0.12,0.11 -0.08,0 -0.1,-0.06 -0.13,-0.18 -0.21,-0.75 -0.39,-0.98 -1.31,-0.98 h -0.94 l 0.6,2.4 c 0.09,0.34 0.1,0.38 0.54,0.38 h 1.4 c 1.22,0 1.52,-0.28 1.52,-1.1 0,-0.24 0,-0.26 -0.04,-0.53 0,-0.06 -0.01,-0.13 -0.01,-0.18 0,-0.05 0.03,-0.12 0.12,-0.12 0.11,0 0.12,0.06 0.14,0.25 l 0.2,1.72 c 0.03,0.27 -0.02,0.27 -0.27,0.27 h -5.03 c -0.2,0 -0.3,0 -0.3,-0.2 0,-0.11 0.08,-0.11 0.27,-0.11 0.37,0 0.65,0 0.65,-0.17 0,-0.05 0,-0.06 -0.05,-0.24 L 225,658.01 c -0.1,-0.39 -0.12,-0.47 -0.91,-0.47 -0.17,0 -0.28,0 -0.28,-0.19 0,-0.12 0.09,-0.12 0.28,-0.12 h 5.17 c 0.23,0 0.24,0.01 0.31,0.17 z"
   id="path4851"
   inkscape:connector-curvature="0"
   style="fill:#000000;stroke-width:0" />
<path
   d="m 232.26,660.03 0,0.02 -0.01,0.02 0,0.02 0,0.02 -0.01,0.01 0,0.02 -0.01,0.02 0,0.02 -0.01,0.02 -0.01,0.01 -0.01,0.02 -0.01,0.02 -0.01,0.01 -0.01,0.02 -0.01,0.01 -0.02,0.02 -0.01,0.01 -0.02,0.01 -0.01,0.01 -0.02,0.02 -0.01,0.01 -0.02,0.01 -0.02,0.01 -0.02,0 -0.01,0.01 -0.02,0.01 -0.02,0 -0.02,0.01 -0.02,0 -0.02,0.01 -0.03,0 -0.02,0 c -0.21,0 -0.39,-0.17 -0.39,-0.4 0,-0.25 0.2,-0.4 0.39,-0.4 0.22,0 0.41,0.17 0.41,0.4 z"
   id="path4853"
   inkscape:connector-curvature="0"
   style="fill:#000000;stroke-width:0" />
<path
   d="m 231.2,658.73 v -0.25 c 0.44,0 0.5,-0.04 0.5,-0.38 v -1.81 c 0,-0.3 -0.07,-0.3 -0.52,-0.3 v -0.25 c 0.01,0 0.5,0.03 0.78,0.03 0.24,0 0.49,-0.01 0.73,-0.03 v 0.25 c -0.4,0 -0.47,0 -0.47,0.29 v 2.53 z"
   id="path4855"
   inkscape:connector-curvature="0"
   style="fill:#000000;stroke-width:0" />
</g>    <g
       id="g3067"
       transform="matrix(1.1939425,0,0,-1.1939425,-43.461381,902.81432)"
       xml:space="preserve"
       stroke-miterlimit="10.433"
       font-style="normal"
       font-variant="normal"
       font-weight="normal"
       font-stretch="normal"
       font-size-adjust="none"
       letter-spacing="normal"
       word-spacing="normal"
       ns0:text="$E_{\\rm r}$"
       ns0:preamble=""
       style="font-style:normal;font-variant:normal;font-weight:normal;font-stretch:normal;letter-spacing:normal;word-spacing:normal;text-anchor:start;fill:none;stroke:#000000;stroke-linecap:butt;stroke-linejoin:miter;stroke-miterlimit:10.43299961;stroke-opacity:1;stroke-dasharray:none;stroke-dashoffset:0">
<path
   style="fill:#000000;stroke-width:0"
   inkscape:connector-curvature="0"
   d="m 230.49,659.55 0,0.01 0,0 0.01,0.01 0,0.01 0.01,0.01 0,0.01 0,0.01 0.01,0.01 0,0.01 0,0.01 0.01,0 0,0.01 0,0 0,0.01 0,0 0,0.01 0,0 0.01,0 0,0.01 0,0 0,0 0,0.01 0,0 0,0 0,0 c 0,0.01 0,0.11 -0.12,0.11 -0.09,0 -0.11,-0.06 -0.13,-0.12 -0.65,-1.47 -1.02,-2.14 -2.72,-2.14 h -1.46 c -0.14,0 -0.16,0 -0.22,0.01 -0.1,0.01 -0.13,0.02 -0.13,0.1 0,0.03 0,0.05 0.05,0.23 l 0.68,2.72 h 0.99 c 0.85,0 0.85,-0.21 0.85,-0.46 0,-0.07 0,-0.19 -0.07,-0.49 -0.02,-0.05 -0.03,-0.08 -0.03,-0.11 0,-0.05 0.04,-0.11 0.13,-0.11 0.08,0 0.11,0.05 0.15,0.2 l 0.56,2.33 c 0,0.06 -0.05,0.11 -0.12,0.11 -0.08,0 -0.1,-0.06 -0.13,-0.18 -0.21,-0.75 -0.39,-0.98 -1.31,-0.98 h -0.94 l 0.6,2.4 c 0.09,0.34 0.1,0.38 0.54,0.38 h 1.4 c 1.22,0 1.52,-0.28 1.52,-1.1 0,-0.24 0,-0.26 -0.04,-0.53 0,-0.06 -0.01,-0.13 -0.01,-0.18 0,-0.05 0.03,-0.12 0.12,-0.12 0.11,0 0.12,0.06 0.14,0.25 l 0.2,1.72 c 0.03,0.27 -0.02,0.27 -0.27,0.27 h -5.03 c -0.2,0 -0.3,0 -0.3,-0.2 0,-0.11 0.08,-0.11 0.27,-0.11 0.37,0 0.65,0 0.65,-0.17 0,-0.05 0,-0.06 -0.05,-0.24 L 225,658.01 c -0.1,-0.39 -0.12,-0.47 -0.91,-0.47 -0.17,0 -0.28,0 -0.28,-0.19 0,-0.12 0.09,-0.12 0.28,-0.12 h 5.17 c 0.23,0 0.24,0.01 0.31,0.17 z"
   id="path3069" />
<path
   style="fill:#000000;stroke-width:0"
   inkscape:connector-curvature="0"
   d="m 232.17,657.33 0,0.05 0.01,0.06 0,0.05 0,0.06 0.01,0.06 0.01,0.05 0.01,0.06 0.01,0.05 0.02,0.06 0.02,0.05 0.01,0.06 0.02,0.05 0.02,0.05 0.03,0.05 0.02,0.05 0.03,0.05 0.03,0.04 0.03,0.05 0.03,0.04 0.04,0.04 0.04,0.04 0.04,0.03 0.04,0.03 0.04,0.03 0.05,0.03 0.04,0.02 0.05,0.02 0.06,0.02 0.05,0.02 0.06,0 0.05,0.01 0.06,0 c -0.06,-0.05 -0.11,-0.14 -0.11,-0.25 0,-0.23 0.18,-0.32 0.31,-0.32 0.17,0 0.32,0.11 0.32,0.32 0,0.24 -0.22,0.45 -0.55,0.45 -0.35,0 -0.73,-0.22 -0.94,-0.75 h -0.01 v 0.75 l -0.99,-0.08 v -0.25 c 0.46,0 0.52,-0.05 0.52,-0.39 v -1.8 c 0,-0.3 -0.07,-0.3 -0.52,-0.3 v -0.25 c 0.03,0 0.51,0.03 0.79,0.03 0.3,0 0.61,-0.01 0.91,-0.03 v 0.25 h -0.14 c -0.52,0 -0.52,0.08 -0.52,0.31 z"
   id="path3071" />
</g>    <path
       inkscape:connector-curvature="0"
       id="path3127"
       d="m 293.07324,82.298312 c 28.14292,0 28.14292,0 28.14292,0"
       style="fill:none;stroke:#000000;stroke-width:1.19394243;stroke-linecap:butt;stroke-linejoin:miter;stroke-miterlimit:4;stroke-opacity:1;stroke-dasharray:2.3878849, 1.19394245;stroke-dashoffset:0;marker-end:url(#Arrow1Mend)" />
    <g
       style="font-style:normal;font-variant:normal;font-weight:normal;font-stretch:normal;letter-spacing:normal;word-spacing:normal;text-anchor:start;fill:none;stroke:#000000;stroke-linecap:butt;stroke-linejoin:miter;stroke-miterlimit:10.43299961;stroke-opacity:1;stroke-dasharray:none;stroke-dashoffset:0"
       ns0:preamble=""
       ns0:text="$E_{\\rm {cav}}$"
       word-spacing="normal"
       letter-spacing="normal"
       font-size-adjust="none"
       font-stretch="normal"
       font-weight="normal"
       font-variant="normal"
       font-style="normal"
       stroke-miterlimit="10.433"
       xml:space="preserve"
       transform="matrix(1.1939425,0,0,-1.1939425,31.685125,858.95186)"
       id="g3183">
<path
   style="fill:#000000;stroke-width:0"
   inkscape:connector-curvature="0"
   id="path3185"
   d="m 230.49,659.55 0,0.01 0,0 0.01,0.01 0,0.01 0.01,0.01 0,0.01 0,0.01 0.01,0.01 0,0.01 0,0.01 0.01,0 0,0.01 0,0 0,0.01 0,0 0,0.01 0,0 0.01,0 0,0.01 0,0 0,0 0,0.01 0,0 0,0 0,0 c 0,0.01 0,0.11 -0.12,0.11 -0.09,0 -0.11,-0.06 -0.13,-0.12 -0.65,-1.47 -1.02,-2.14 -2.72,-2.14 h -1.46 c -0.14,0 -0.16,0 -0.22,0.01 -0.1,0.01 -0.13,0.02 -0.13,0.1 0,0.03 0,0.05 0.05,0.23 l 0.68,2.72 h 0.99 c 0.85,0 0.85,-0.21 0.85,-0.46 0,-0.07 0,-0.19 -0.07,-0.49 -0.02,-0.05 -0.03,-0.08 -0.03,-0.11 0,-0.05 0.04,-0.11 0.13,-0.11 0.08,0 0.11,0.05 0.15,0.2 l 0.56,2.33 c 0,0.06 -0.05,0.11 -0.12,0.11 -0.08,0 -0.1,-0.06 -0.13,-0.18 -0.21,-0.75 -0.39,-0.98 -1.31,-0.98 h -0.94 l 0.6,2.4 c 0.09,0.34 0.1,0.38 0.54,0.38 h 1.4 c 1.22,0 1.52,-0.28 1.52,-1.1 0,-0.24 0,-0.26 -0.04,-0.53 0,-0.06 -0.01,-0.13 -0.01,-0.18 0,-0.05 0.03,-0.12 0.12,-0.12 0.11,0 0.12,0.06 0.14,0.25 l 0.2,1.72 c 0.03,0.27 -0.02,0.27 -0.27,0.27 h -5.03 c -0.2,0 -0.3,0 -0.3,-0.2 0,-0.11 0.08,-0.11 0.27,-0.11 0.37,0 0.65,0 0.65,-0.17 0,-0.05 0,-0.06 -0.05,-0.24 L 225,658.01 c -0.1,-0.39 -0.12,-0.47 -0.91,-0.47 -0.17,0 -0.28,0 -0.28,-0.19 0,-0.12 0.09,-0.12 0.28,-0.12 h 5.17 c 0.23,0 0.24,0.01 0.31,0.17 z" />
<path
   style="fill:#000000;stroke-width:0"
   inkscape:connector-curvature="0"
   id="path3187"
   d="m 233.49,658.52 -0.01,-0.01 -0.01,-0.01 -0.01,0 -0.01,-0.01 -0.01,0 -0.01,-0.01 -0.01,-0.01 -0.01,-0.01 -0.01,0 -0.01,-0.01 0,-0.01 -0.01,-0.01 -0.01,-0.01 -0.01,-0.01 0,-0.01 -0.01,-0.01 -0.01,-0.01 0,-0.01 -0.01,-0.01 0,-0.01 -0.01,-0.01 0,-0.01 0,-0.01 -0.01,-0.01 0,-0.01 0,-0.02 0,-0.01 -0.01,-0.01 0,-0.01 0,-0.02 0,-0.01 0,-0.01 c 0,-0.19 0.13,-0.33 0.33,-0.33 0.19,0 0.33,0.12 0.33,0.34 0,0.62 -0.97,0.62 -1.16,0.62 -1.05,0 -1.69,-0.8 -1.69,-1.6 0,-0.87 0.74,-1.57 1.65,-1.57 1.04,0 1.28,0.82 1.28,0.91 0,0.08 -0.08,0.08 -0.11,0.08 -0.09,0 -0.1,-0.02 -0.14,-0.12 -0.15,-0.43 -0.52,-0.65 -0.94,-0.65 -0.48,0 -1.11,0.36 -1.11,1.36 0,0.88 0.43,1.37 1.08,1.37 0.09,0 0.42,0 0.67,-0.1 z" />
<path
   style="fill:#000000;stroke-width:0"
   inkscape:connector-curvature="0"
   id="path3189"
   d="m 237.43,657.6 0,0.07 0,0.07 0,0.06 0,0.06 0,0.03 -0.01,0.03 0,0.03 0,0.03 -0.01,0.03 0,0.03 -0.01,0.02 -0.01,0.03 0,0.03 -0.01,0.02 -0.01,0.03 -0.01,0.03 -0.02,0.02 -0.01,0.03 -0.01,0.02 -0.02,0.03 -0.02,0.02 -0.02,0.03 -0.02,0.02 -0.02,0.03 -0.02,0.02 -0.03,0.03 -0.03,0.02 -0.03,0.02 c -0.28,0.24 -0.62,0.35 -1.03,0.35 -0.66,0 -1.12,-0.25 -1.12,-0.67 0,-0.22 0.15,-0.34 0.33,-0.34 0.19,0 0.33,0.14 0.33,0.32 0,0.12 -0.06,0.27 -0.25,0.32 0.25,0.18 0.66,0.18 0.7,0.18 0.39,0 0.81,-0.26 0.81,-0.84 v -0.22 -0.18 -0.69 c 0,-0.67 -0.58,-0.85 -0.89,-0.85 -0.36,0 -0.69,0.23 -0.69,0.57 0,0.39 0.33,0.92 1.58,0.97 v 0.18 c -0.38,-0.01 -0.84,-0.03 -1.35,-0.22 -0.62,-0.23 -0.82,-0.61 -0.82,-0.93 0,-0.6 0.72,-0.77 1.22,-0.77 0.56,0 0.88,0.31 1.03,0.59 0.03,-0.29 0.22,-0.55 0.54,-0.55 0.01,0 0.69,0 0.69,0.66 v 0.38 h -0.24 v -0.38 c 0,-0.07 0,-0.4 -0.26,-0.4 -0.26,0 -0.26,0.33 -0.26,0.42 z" />
<path
   style="fill:#000000;stroke-width:0"
   inkscape:connector-curvature="0"
   id="path3191"
   d="m 241.38,658.06 0.01,0.02 0.01,0.01 0.01,0.02 0.01,0.02 0.01,0.02 0.01,0.01 0.02,0.04 0.03,0.03 0.02,0.02 0.02,0.03 0.02,0.02 0.03,0.02 0.02,0.02 0.02,0.02 0.03,0.02 0.02,0.01 0.03,0.02 0.02,0.01 0.02,0.01 0.03,0.01 0.02,0.01 0.02,0.01 0.02,0 0.03,0.01 0.02,0 0.02,0.01 0.02,0 0.02,0 0.01,0 0.02,0.01 0.02,0 0.01,0 0.02,0 0.01,0 0.01,0 v 0.25 c -0.17,-0.02 -0.36,-0.03 -0.53,-0.03 -0.19,0 -0.45,0.01 -0.63,0.03 v -0.25 c 0.29,-0.02 0.29,-0.25 0.29,-0.27 0,-0.03 -0.01,-0.1 -0.06,-0.2 l -0.78,-1.72 -0.87,1.9 c 0,0 -0.04,0.08 -0.04,0.13 0,0.16 0.24,0.16 0.36,0.16 v 0.25 c -0.02,0 -0.51,-0.03 -0.8,-0.03 -0.21,0 -0.48,0.01 -0.68,0.03 v -0.25 c 0.38,0 0.47,-0.02 0.57,-0.25 l 1.1,-2.42 c 0.04,-0.09 0.08,-0.15 0.2,-0.15 0.13,0 0.16,0.06 0.19,0.14 z" />
</g>    <path
       style="fill:none;stroke:#000000;stroke-width:1.19394243;stroke-linecap:butt;stroke-linejoin:miter;stroke-miterlimit:4;stroke-opacity:1;stroke-dasharray:1.19394245, 1.19394245;stroke-dashoffset:0;marker-start:url(#Arrow1Mstart);marker-end:url(#Arrow1Mend)"
       d="m 290.94121,119.82222 c 94.80893,0 94.80893,0 94.80893,0"
       id="path3242"
       inkscape:connector-curvature="0" />
    <g
       id="g4527"
       transform="matrix(1.1939425,0,0,-1.1939425,66.650582,899.46062)"
       xml:space="preserve"
       stroke-miterlimit="10.433"
       font-style="normal"
       font-variant="normal"
       font-weight="normal"
       font-stretch="normal"
       font-size-adjust="none"
       letter-spacing="normal"
       word-spacing="normal"
       ns0:text="$L$"
       ns0:preamble=""
       style="font-style:normal;font-variant:normal;font-weight:normal;font-stretch:normal;letter-spacing:normal;word-spacing:normal;text-anchor:start;fill:none;stroke:#000000;stroke-linecap:butt;stroke-linejoin:miter;stroke-miterlimit:10.43299961;stroke-opacity:1;stroke-dasharray:none;stroke-dashoffset:0">
<path
   style="fill:#000000;stroke-width:0"
   inkscape:connector-curvature="0"
   d="m 227.16,663.26 0.01,0.03 0.01,0.03 0,0.03 0.01,0.03 0.01,0.03 0.01,0.02 0.01,0.03 0.01,0.02 0.01,0.02 0.02,0.02 0.01,0.02 0.02,0.02 0.01,0.02 0.02,0.02 0.03,0.01 0.02,0.01 0.03,0.02 0.03,0.01 0.03,0.01 0.03,0.01 0.02,0.01 0.02,0 0.02,0 0.02,0.01 0.03,0 0.02,0 0.02,0.01 0.03,0 0.03,0 0.02,0.01 0.03,0 0.03,0 0.03,0 0.03,0.01 0.03,0 0.04,0 0.03,0 0.04,0 0.03,0 0.04,0 0.04,0 0.04,0 0.04,0 0.05,0 c 0.3,0 0.38,0 0.38,0.19 0,0.12 -0.11,0.12 -0.16,0.12 -0.33,0 -1.15,-0.03 -1.48,-0.03 -0.3,0 -1.03,0.03 -1.33,0.03 -0.06,0 -0.18,0 -0.18,-0.2 0,-0.11 0.09,-0.11 0.28,-0.11 0.01,0 0.2,0 0.37,-0.02 0.18,-0.02 0.27,-0.03 0.27,-0.16 0,-0.03 -0.01,-0.07 -0.04,-0.18 L 225,658.01 c -0.1,-0.39 -0.12,-0.47 -0.91,-0.47 -0.17,0 -0.27,0 -0.27,-0.2 0,-0.11 0.09,-0.11 0.27,-0.11 h 4.62 c 0.24,0 0.24,0 0.3,0.17 l 0.79,2.15 c 0.04,0.11 0.04,0.13 0.04,0.14 0,0.04 -0.03,0.11 -0.12,0.11 -0.09,0 -0.1,-0.05 -0.17,-0.21 -0.34,-0.91 -0.78,-2.05 -2.5,-2.05 h -0.94 c -0.14,0 -0.16,0 -0.22,0.01 -0.1,0.01 -0.13,0.02 -0.13,0.1 0,0.03 0,0.05 0.05,0.23 z"
   id="path4529" />
</g>    <g
       transform="matrix(1.1939425,0,0,1.1939425,-7.0327181,-7.9356402)"
       id="g5398">
      <rect
         style="fill:url(#linearGradient5403);fill-opacity:1;stroke:#000000;stroke-opacity:1"
         id="rect4588"
         width="31.819805"
         height="16.162441"
         x="112.5914"
         y="75.544678"
         rx="4.6026087"
         ry="16.162441" />
      <text
         sodipodi:linespacing="125%"
         id="text4600"
         y="86.880653"
         x="117.35986"
         style="font-size:10px;font-style:normal;font-weight:normal;line-height:125%;letter-spacing:0px;word-spacing:0px;fill:#000000;fill-opacity:1;stroke:none;font-family:Sans"
         xml:space="preserve"><tspan
           id="tspan4602"
           y="86.880653"
           x="117.35986"
           sodipodi:role="line">EOM</tspan></text>
    </g>
    <path
       d="m 67.857141,148.79076 c 0,11.44018 -9.274101,20.71428 -20.714284,20.71428 -11.440184,0 -20.714285,-9.2741 -20.714285,-20.71428 0,-11.44019 9.274101,-20.71429 20.714285,-20.71429 11.440183,0 20.714284,9.2741 20.714284,20.71429 z"
       sodipodi:ry="20.714285"
       sodipodi:rx="20.714285"
       sodipodi:cy="148.79076"
       sodipodi:cx="47.142857"
       id="path5139"
       style="fill:none;stroke:#000000;stroke-width:1.33783782;stroke-miterlimit:4;stroke-opacity:1;stroke-dasharray:none;stroke-dashoffset:0"
       sodipodi:type="arc"
       transform="matrix(0.89244182,0,0,0.89244182,104.40191,16.030873)" />
    <path
       inkscape:connector-curvature="0"
       id="path5194"
       d="m 146.76135,130.37428 c 0,-26.57308 0,-26.57308 0,-26.57308"
       style="fill:none;stroke:#000000;stroke-width:1.19394243;stroke-linecap:butt;stroke-linejoin:miter;stroke-miterlimit:4;stroke-opacity:1;stroke-dasharray:none;marker-end:url(#Arrow1Mend)" />
    <g
       style="stroke-width:3.57375193;stroke-miterlimit:4;stroke-dasharray:none"
       id="g5196"
       transform="matrix(0.33408655,0,0,0.33408655,190.75071,138.8922)">
      <path
         d="m 67.857141,148.79076 c 0,11.44018 -9.274101,20.71428 -20.714284,20.71428 -11.440184,0 -20.714285,-9.2741 -20.714285,-20.71428 0,-11.44019 9.274101,-20.71429 20.714285,-20.71429 11.440183,0 20.714284,9.2741 20.714284,20.71429 z"
         sodipodi:ry="20.714285"
         sodipodi:rx="20.714285"
         sodipodi:cy="148.79076"
         sodipodi:cx="47.142857"
         id="path5198"
         style="fill:none;stroke:#000000;stroke-width:3.57375193;stroke-miterlimit:4;stroke-opacity:1;stroke-dasharray:none;stroke-dashoffset:0"
         sodipodi:type="arc" />
      <path
         inkscape:connector-curvature="0"
         id="path5206"
         d="m 32.841625,134.01174 c 29.319184,29.31917 29.319184,29.31917 29.319184,29.31917"
         style="fill:none;stroke:#000000;stroke-width:3.57375193;stroke-linecap:butt;stroke-linejoin:miter;stroke-miterlimit:4;stroke-opacity:1;stroke-dasharray:none" />
      <path
         inkscape:connector-curvature="0"
         id="path5208"
         d="m 33.05307,163.35837 c 28.894399,-28.89439 29.135183,-29.1352 29.135183,-29.1352"
         style="fill:none;stroke:#000000;stroke-width:3.57375193;stroke-linecap:butt;stroke-linejoin:miter;stroke-miterlimit:4;stroke-opacity:1;stroke-dasharray:none" />
    </g>
    <path
       inkscape:connector-curvature="0"
       id="path5210"
       d="m 146.38294,167.57993 c 0,21.3204 0,20.89399 0,20.89399 51.26019,0 51.26019,0 51.26019,0"
       style="fill:none;stroke:#000000;stroke-width:1.19394243;stroke-linecap:butt;stroke-linejoin:miter;stroke-miterlimit:4;stroke-opacity:1;stroke-dasharray:none;marker-end:url(#Arrow1Mend)" />
    <path
       style="fill:none;stroke:#000000;stroke-width:1.19394243;stroke-linecap:butt;stroke-linejoin:miter;stroke-miterlimit:4;stroke-opacity:1;stroke-dasharray:none;marker-end:url(#Arrow1Mend)"
       d="m 206.67169,157.69916 c 0,21.97379 0,21.97379 0,21.97379"
       id="path5396"
       inkscape:connector-curvature="0" />
    <path
       transform="matrix(0.82015855,0,0,0.68203163,236.43777,25.098584)"
       inkscape:transform-center-x="-5.4208838"
       d="m 126.43822,239.50505 -19.82866,11.44809 -19.828671,11.44808 0,-22.89617 0,-22.89617 19.828671,11.44808 z"
       inkscape:randomized="0"
       inkscape:rounded="0"
       inkscape:flatsided="false"
       sodipodi:arg2="1.0471976"
       sodipodi:arg1="0"
       sodipodi:r2="13.219111"
       sodipodi:r1="26.438223"
       sodipodi:cy="239.50505"
       sodipodi:cx="100"
       sodipodi:sides="3"
       id="path5426"
       style="fill:none;stroke:#000000;stroke-width:1.59636509;stroke-miterlimit:4;stroke-opacity:1;stroke-dasharray:none;stroke-dashoffset:0"
       sodipodi:type="star" />
    <rect
       y="85.496399"
       x="397.41528"
       height="11.939428"
       width="6.3961306"
       id="rect5432"
       style="fill:url(#linearGradient5440);fill-opacity:1;stroke:#000000;stroke-width:1.19394243;stroke-miterlimit:4;stroke-opacity:1;stroke-dasharray:none;stroke-dashoffset:0" />
    <text
       xml:space="preserve"
       style="font-size:11.93942451px;font-style:normal;font-weight:normal;line-height:125%;letter-spacing:0px;word-spacing:0px;fill:#000000;fill-opacity:1;stroke:none;font-family:Sans"
       x="371.30402"
       y="49.988663"
       id="text5444"
       sodipodi:linespacing="125%"><tspan
         sodipodi:role="line"
         x="371.30402"
         y="49.988663"
         id="tspan5446">Cavity length</tspan><tspan
         id="tspan5448"
         sodipodi:role="line"
         x="371.30402"
         y="64.912941">actuator</tspan></text>
    <path
       sodipodi:nodetypes="ccc"
       inkscape:connector-curvature="0"
       id="path5450"
       d="m 425.91395,60.551207 c 7.29991,5.078992 9.3144,15.434319 5.23962,23.159566 -5.49348,8.689662 -14.07565,7.489512 -23.63208,8.198092"
       style="fill:none;stroke:#000000;stroke-width:1.19394243;stroke-linecap:butt;stroke-linejoin:miter;stroke-miterlimit:4;stroke-opacity:1;stroke-dasharray:1.19394245, 1.19394245;stroke-dashoffset:0;marker-end:url(#Arrow1Mend)" />
    <path
       inkscape:connector-curvature="0"
       id="path5643"
       d="m 213.64669,188.69551 c 92.26389,0 92.26389,0 92.26389,0"
       style="fill:none;stroke:#000000;stroke-width:1.19394243px;stroke-linecap:butt;stroke-linejoin:miter;stroke-opacity:1;marker-end:url(#Arrow1Mend)" />
    <path
       inkscape:connector-curvature="0"
       id="path5831"
       d="m 341.12943,188.04751 c 59.91032,0 59.91032,0 59.91032,0 0,-89.972094 0,-90.185297 0,-90.185297"
       style="fill:none;stroke:#000000;stroke-width:1.19394243px;stroke-linecap:butt;stroke-linejoin:miter;stroke-opacity:1;marker-end:url(#Arrow1Mend)" />
    <text
       sodipodi:linespacing="125%"
       id="text6017"
       y="168.78596"
       x="271.80374"
       style="font-size:11.93942451px;font-style:normal;font-weight:normal;line-height:125%;letter-spacing:0px;word-spacing:0px;fill:#000000;fill-opacity:1;stroke:none;font-family:Sans"
       xml:space="preserve"><tspan
         y="168.78596"
         x="271.80374"
         sodipodi:role="line"
         id="tspan6021">Feedback filter</tspan></text>
    <text
       xml:space="preserve"
       style="font-size:11.93942451px;font-style:normal;font-weight:normal;line-height:125%;letter-spacing:0px;word-spacing:0px;fill:#000000;fill-opacity:1;stroke:none;font-family:Sans"
       x="68.833527"
       y="150.87683"
       id="text6029"
       sodipodi:linespacing="125%"><tspan
         id="tspan6031"
         sodipodi:role="line"
         x="68.833527"
         y="150.87683">Oscillator</tspan></text>
    <text
       sodipodi:linespacing="125%"
       id="text6033"
       y="135.87233"
       x="188.89978"
       style="font-size:10px;font-style:normal;font-weight:normal;line-height:125%;letter-spacing:0px;word-spacing:0px;fill:#000000;fill-opacity:1;stroke:none;font-family:Sans"
       xml:space="preserve"><tspan
         y="135.87233"
         x="188.89978"
         sodipodi:role="line"
         id="tspan6035" /></text>
    <path
       style="fill:none;stroke:url(#linearGradient6735);stroke-width:9.46279526;stroke-linecap:butt;stroke-linejoin:miter;stroke-miterlimit:4;stroke-opacity:1;stroke-dasharray:none"
       d="m 33.159969,216.07291 c 65.153954,0 65.153954,0 65.153954,0"
       id="path6083"
       inkscape:connector-curvature="0" />
    <path
       id="path6625"
       title="sin(x)"
       d="m 134.2343,148.81758 c 1.1657,-2.91914 2.3314,-5.80683 3.4971,-7.62791 1.16572,-1.82105 2.33141,-2.53221 3.49711,-1.88392 1.16571,0.64829 2.3314,2.64919 3.49712,5.27867 1.16569,2.62945 2.33139,5.83571 3.49709,8.46631 1.16571,2.6306 2.33141,4.62783 3.49711,5.27866 1.1657,0.65084 2.33141,-0.0649 3.49711,-1.88393 1.1657,-1.81902 2.3314,-4.70878 3.4971,-7.62788"
       style="fill:none;stroke:#000000;stroke-width:1.5;stroke-miterlimit:4;stroke-opacity:1;stroke-dasharray:none;stroke-dashoffset:0"
       inkscape:connector-curvature="0" />
    <text
       sodipodi:linespacing="125%"
       id="text6739"
       y="220.52396"
       x="105.70409"
       style="font-size:11.93942451px;font-style:normal;font-weight:normal;line-height:125%;letter-spacing:0px;word-spacing:0px;fill:#000000;fill-opacity:1;stroke:none;font-family:Sans"
       xml:space="preserve"><tspan
         y="220.52396"
         x="105.70409"
         sodipodi:role="line"
         id="tspan6741">Carrier light</tspan></text>
    <text
       xml:space="preserve"
       style="font-size:11.93942451px;font-style:normal;font-weight:normal;line-height:125%;letter-spacing:0px;word-spacing:0px;fill:#000000;fill-opacity:1;stroke:none;font-family:Sans"
       x="105.70409"
       y="239.26517"
       id="text6743"
       sodipodi:linespacing="125%"><tspan
         id="tspan6745"
         sodipodi:role="line"
         x="105.70409"
         y="239.26517">Sideband light</tspan></text>
  </g>
</svg>
