<?xml version="1.0" encoding="UTF-8" standalone="no"?>
<!-- Created with Inkscape (http://www.inkscape.org/) -->

<svg
   xmlns:ns0="http://www.iki.fi/pav/software/textext/"
   xmlns:osb="http://www.openswatchbook.org/uri/2009/osb"
   xmlns:dc="http://purl.org/dc/elements/1.1/"
   xmlns:cc="http://creativecommons.org/ns#"
   xmlns:rdf="http://www.w3.org/1999/02/22-rdf-syntax-ns#"
   xmlns:svg="http://www.w3.org/2000/svg"
   xmlns="http://www.w3.org/2000/svg"
   xmlns:xlink="http://www.w3.org/1999/xlink"
   xmlns:sodipodi="http://sodipodi.sourceforge.net/DTD/sodipodi-0.dtd"
   xmlns:inkscape="http://www.inkscape.org/namespaces/inkscape"
   sodipodi:docname="omcmodal.svg"
   inkscape:version="0.48.0 r9654"
   version="1.1"
   id="svg2"
   height="219.68503"
   width="630">
  <sodipodi:namedview
     id="base"
     pagecolor="#ffffff"
     bordercolor="#666666"
     borderopacity="1.0"
     inkscape:pageopacity="0.0"
     inkscape:pageshadow="2"
     inkscape:zoom="1.4"
     inkscape:cx="451.4516"
     inkscape:cy="87.05957"
     inkscape:document-units="px"
     inkscape:current-layer="svg2"
     showgrid="false"
     units="in"
     inkscape:window-width="1834"
     inkscape:window-height="1003"
     inkscape:window-x="0"
     inkscape:window-y="25"
     inkscape:window-maximized="1"
     fit-margin-top="0" />
  <defs
     id="defs4">
    <marker
       inkscape:stockid="Arrow1Mend"
       orient="auto"
       refY="0"
       refX="0"
       id="Arrow1Mend"
       style="overflow:visible">
      <path
         id="path4199"
         d="M 0,0 5,-5 -12.5,0 5,5 0,0 z"
         style="fill-rule:evenodd;stroke:#000000;stroke-width:1pt;marker-start:none"
         transform="matrix(-0.4,0,0,-0.4,-4,0)"
         inkscape:connector-curvature="0" />
    </marker>
    <marker
       inkscape:stockid="Arrow2Mstart"
       orient="auto"
       refY="0"
       refX="0"
       id="Arrow2Mstart"
       style="overflow:visible">
      <path
         id="path4214"
         style="font-size:12px;fill-rule:evenodd;stroke-width:0.625;stroke-linejoin:round"
         d="M 8.7185878,4.0337352 -2.2072895,0.01601326 8.7185884,-4.0017078 c -1.7454984,2.3720609 -1.7354408,5.6174519 -6e-7,8.035443 z"
         transform="scale(0.6,0.6)"
         inkscape:connector-curvature="0" />
    </marker>
    <linearGradient
       id="linearGradient3927">
      <stop
         id="stop3929"
         offset="0"
         style="stop-color:#ff0000;stop-opacity:0;" />
      <stop
         style="stop-color:#ff0000;stop-opacity:1;"
         offset="0.5"
         id="stop3931" />
      <stop
         id="stop3933"
         offset="1"
         style="stop-color:#ff0000;stop-opacity:0;" />
    </linearGradient>
    <linearGradient
       inkscape:collect="always"
       id="linearGradient3917">
      <stop
         style="stop-color:#000000;stop-opacity:1;"
         offset="0"
         id="stop3919" />
      <stop
         style="stop-color:#000000;stop-opacity:0;"
         offset="1"
         id="stop3921" />
    </linearGradient>
    <linearGradient
       inkscape:collect="always"
       id="linearGradient3909">
      <stop
         style="stop-color:#000000;stop-opacity:1;"
         offset="0"
         id="stop3911" />
      <stop
         style="stop-color:#000000;stop-opacity:0;"
         offset="1"
         id="stop3913" />
    </linearGradient>
    <linearGradient
       osb:paint="gradient"
       id="linearGradient3889">
      <stop
         id="stop3891"
         offset="0"
         style="stop-color:#ff0000;stop-opacity:0;" />
      <stop
         style="stop-color:#ff0000;stop-opacity:1;"
         offset="0.5"
         id="stop3893" />
      <stop
         id="stop3895"
         offset="1"
         style="stop-color:#ff0000;stop-opacity:0;" />
    </linearGradient>
    <linearGradient
       id="linearGradient4177"
       osb:paint="gradient">
      <stop
         style="stop-color:#ff0000;stop-opacity:0;"
         offset="0"
         id="stop4179" />
      <stop
         id="stop4185"
         offset="0.5"
         style="stop-color:#ff0000;stop-opacity:1;" />
      <stop
         style="stop-color:#ff0000;stop-opacity:0;"
         offset="1"
         id="stop4181" />
    </linearGradient>
    <linearGradient
       id="linearGradient3979">
      <stop
         style="stop-color:#00ffff;stop-opacity:1;"
         offset="0"
         id="stop3991" />
      <stop
         id="stop3993"
         offset="0.5"
         style="stop-color:#ffffff;stop-opacity:1;" />
      <stop
         style="stop-color:#00ffff;stop-opacity:1;"
         offset="1"
         id="stop3983" />
    </linearGradient>
    <linearGradient
       inkscape:collect="always"
       xlink:href="#linearGradient4177"
       id="linearGradient4183"
       x1="143.61476"
       y1="16.400478"
       x2="143.61476"
       y2="27.050299"
       gradientUnits="userSpaceOnUse"
       gradientTransform="translate(0.5663523,770.05905)" />
    <linearGradient
       inkscape:collect="always"
       xlink:href="#linearGradient4177"
       id="linearGradient4189"
       gradientUnits="userSpaceOnUse"
       gradientTransform="translate(-156.29887,809.91658)"
       x1="143.61476"
       y1="16.400478"
       x2="143.61476"
       y2="27.050299" />
    <linearGradient
       inkscape:collect="always"
       xlink:href="#linearGradient3889"
       id="linearGradient4193"
       gradientUnits="userSpaceOnUse"
       gradientTransform="matrix(0.72511449,0,0,1,6.1012487,823.27334)"
       x1="143.61476"
       y1="16.400478"
       x2="143.61476"
       y2="27.050299" />
    <linearGradient
       inkscape:collect="always"
       xlink:href="#linearGradient4177"
       id="linearGradient3869"
       x1="28.214287"
       y1="139.06636"
       x2="187.5"
       y2="139.06636"
       gradientUnits="userSpaceOnUse" />
    <linearGradient
       inkscape:collect="always"
       xlink:href="#linearGradient3909"
       id="linearGradient3915"
       x1="11.852066"
       y1="861.98254"
       x2="215.36618"
       y2="861.98254"
       gradientUnits="userSpaceOnUse" />
    <linearGradient
       inkscape:collect="always"
       xlink:href="#linearGradient3917"
       id="linearGradient3925"
       x1="11.852066"
       y1="861.98254"
       x2="215.36618"
       y2="861.98254"
       gradientUnits="userSpaceOnUse" />
    <linearGradient
       inkscape:collect="always"
       xlink:href="#linearGradient3927"
       id="linearGradient3969"
       gradientUnits="userSpaceOnUse"
       x1="71.428574"
       y1="899.14642"
       x2="76.428574"
       y2="899.14642"
       gradientTransform="matrix(0.18069946,0.98353836,-2.1793868,0.40040535,1999.0861,427.51301)" />
    <linearGradient
       inkscape:collect="always"
       xlink:href="#linearGradient3927"
       id="linearGradient4027"
       gradientUnits="userSpaceOnUse"
       gradientTransform="matrix(0.99358811,-0.11306049,0.16310732,1.4334052,134.07373,-241.69695)"
       x1="-58.100445"
       y1="835.68701"
       x2="-48.100445"
       y2="835.68701" />
    <linearGradient
       inkscape:collect="always"
       xlink:href="#linearGradient3927"
       id="linearGradient3882"
       gradientUnits="userSpaceOnUse"
       gradientTransform="matrix(0,1,-2.66747,0,2586.4462,806.71786)"
       x1="71.428574"
       y1="899.14642"
       x2="76.428574"
       y2="899.14642" />
    <linearGradient
       inkscape:collect="always"
       xlink:href="#linearGradient3927"
       id="linearGradient3886"
       gradientUnits="userSpaceOnUse"
       gradientTransform="matrix(0,1,-2.66747,0,2586.4462,860.71786)"
       x1="71.428574"
       y1="899.14642"
       x2="76.428574"
       y2="899.14642" />
    <linearGradient
       inkscape:collect="always"
       xlink:href="#linearGradient3927"
       id="linearGradient3890"
       gradientUnits="userSpaceOnUse"
       gradientTransform="matrix(0.31399805,0.94942363,-2.9550033,0.97729321,2821.7673,-42.272829)"
       x1="71.428574"
       y1="899.14642"
       x2="76.428574"
       y2="899.14642" />
    <linearGradient
       inkscape:collect="always"
       xlink:href="#linearGradient3927"
       id="linearGradient3894"
       gradientUnits="userSpaceOnUse"
       gradientTransform="matrix(-0.31399805,0.94942363,2.9550033,0.97729321,-2445.7673,-42.272829)"
       x1="71.428574"
       y1="899.14642"
       x2="76.428574"
       y2="899.14642" />
    <linearGradient
       inkscape:collect="always"
       xlink:href="#linearGradient3927"
       id="linearGradient3918"
       gradientUnits="userSpaceOnUse"
       gradientTransform="matrix(0.31399805,0.94942363,-2.9550033,0.97729321,2821.7673,-42.272829)"
       x1="71.428574"
       y1="899.14642"
       x2="76.428574"
       y2="899.14642" />
    <linearGradient
       inkscape:collect="always"
       xlink:href="#linearGradient3927"
       id="linearGradient3920"
       gradientUnits="userSpaceOnUse"
       gradientTransform="matrix(-0.31399805,0.94942363,2.9550033,0.97729321,-2445.7673,-42.272829)"
       x1="71.428574"
       y1="899.14642"
       x2="76.428574"
       y2="899.14642" />
    <linearGradient
       inkscape:collect="always"
       xlink:href="#linearGradient3927"
       id="linearGradient3939"
       gradientUnits="userSpaceOnUse"
       gradientTransform="matrix(-0.31399805,0.94942363,2.9550033,0.97729321,-2421.5236,-11.715715)"
       x1="71.428574"
       y1="899.14642"
       x2="76.428574"
       y2="899.14642" />
    <linearGradient
       inkscape:collect="always"
       xlink:href="#linearGradient3927"
       id="linearGradient3942"
       gradientUnits="userSpaceOnUse"
       gradientTransform="matrix(0.31399805,0.94942363,-2.9550033,0.97729321,2846.011,-11.715715)"
       x1="71.428574"
       y1="899.14642"
       x2="76.428574"
       y2="899.14642" />
    <linearGradient
       inkscape:collect="always"
       xlink:href="#linearGradient3927"
       id="linearGradient3945"
       gradientUnits="userSpaceOnUse"
       gradientTransform="matrix(0,1,-2.66747,0,2610.6899,891.27497)"
       x1="71.428574"
       y1="899.14642"
       x2="76.428574"
       y2="899.14642" />
    <linearGradient
       inkscape:collect="always"
       xlink:href="#linearGradient3927"
       id="linearGradient3948"
       gradientUnits="userSpaceOnUse"
       gradientTransform="matrix(0,1,-2.66747,0,2610.6899,837.27497)"
       x1="71.428574"
       y1="899.14642"
       x2="76.428574"
       y2="899.14642" />
    <linearGradient
       inkscape:collect="always"
       xlink:href="#linearGradient3927"
       id="linearGradient3962"
       gradientUnits="userSpaceOnUse"
       gradientTransform="matrix(0,1,-2.66747,0,2610.6899,837.27497)"
       x1="71.428574"
       y1="899.14642"
       x2="76.428574"
       y2="899.14642" />
    <linearGradient
       inkscape:collect="always"
       xlink:href="#linearGradient3927"
       id="linearGradient3964"
       gradientUnits="userSpaceOnUse"
       gradientTransform="matrix(0,1,-2.66747,0,2610.6899,891.27497)"
       x1="71.428574"
       y1="899.14642"
       x2="76.428574"
       y2="899.14642" />
    <linearGradient
       inkscape:collect="always"
       xlink:href="#linearGradient3927"
       id="linearGradient3966"
       gradientUnits="userSpaceOnUse"
       gradientTransform="matrix(0.31399805,0.94942363,-2.9550033,0.97729321,2846.011,-11.715715)"
       x1="71.428574"
       y1="899.14642"
       x2="76.428574"
       y2="899.14642" />
    <linearGradient
       inkscape:collect="always"
       xlink:href="#linearGradient3927"
       id="linearGradient3968"
       gradientUnits="userSpaceOnUse"
       gradientTransform="matrix(-0.31399805,0.94942363,2.9550033,0.97729321,-2421.5236,-11.715715)"
       x1="71.428574"
       y1="899.14642"
       x2="76.428574"
       y2="899.14642" />
    <linearGradient
       inkscape:collect="always"
       xlink:href="#linearGradient3927"
       id="linearGradient10122"
       gradientUnits="userSpaceOnUse"
       gradientTransform="matrix(0.45293102,1.2802242,-1.2802242,0.45293102,1335.1502,500.40403)"
       x1="71.428574"
       y1="899.14642"
       x2="76.428574"
       y2="899.14642" />
    <linearGradient
       inkscape:collect="always"
       xlink:href="#linearGradient3927"
       id="linearGradient10124"
       gradientUnits="userSpaceOnUse"
       gradientTransform="matrix(-0.36155769,1.3089677,-2.1556813,-0.59543345,2156.0225,1336.1667)"
       x1="71.428574"
       y1="899.14642"
       x2="76.428574"
       y2="899.14642" />
    <linearGradient
       inkscape:collect="always"
       xlink:href="#linearGradient3927"
       id="linearGradient10126"
       gradientUnits="userSpaceOnUse"
       gradientTransform="matrix(0,1.3579839,-2.236404,0,2200.8457,816.36612)"
       x1="71.428574"
       y1="899.14642"
       x2="76.428574"
       y2="899.14642" />
    <linearGradient
       inkscape:collect="always"
       xlink:href="#linearGradient3927"
       id="linearGradient10128"
       gradientUnits="userSpaceOnUse"
       gradientTransform="matrix(-0.42640432,1.2893021,4.0128471,1.3271485,-3212.4829,-336.5815)"
       x1="71.428574"
       y1="899.14642"
       x2="76.428574"
       y2="899.14642" />
    <linearGradient
       inkscape:collect="always"
       xlink:href="#linearGradient3927"
       id="linearGradient10130"
       gradientUnits="userSpaceOnUse"
       gradientTransform="matrix(0.42640432,1.2893021,-4.0128471,1.3271485,3940.7447,-336.5815)"
       x1="71.428574"
       y1="899.14642"
       x2="76.428574"
       y2="899.14642" />
    <linearGradient
       inkscape:collect="always"
       xlink:href="#linearGradient3927"
       id="linearGradient10132"
       gradientUnits="userSpaceOnUse"
       gradientTransform="matrix(0,1.3579839,-3.6223815,0,3621.1825,889.66537)"
       x1="71.428574"
       y1="899.14642"
       x2="76.428574"
       y2="899.14642" />
    <linearGradient
       inkscape:collect="always"
       xlink:href="#linearGradient3927"
       id="linearGradient10134"
       gradientUnits="userSpaceOnUse"
       gradientTransform="matrix(0,1.3579839,-3.6223815,0,3621.1825,816.33424)"
       x1="71.428574"
       y1="899.14642"
       x2="76.428574"
       y2="899.14642" />
    <linearGradient
       inkscape:collect="always"
       xlink:href="#linearGradient3927"
       id="linearGradient10136"
       gradientUnits="userSpaceOnUse"
       gradientTransform="translate(0,84)"
       x1="-58.100445"
       y1="835.68701"
       x2="-48.100445"
       y2="835.68701" />
  </defs>
  <metadata
     id="metadata7">
    <rdf:RDF>
      <cc:Work
         rdf:about="">
        <dc:format>image/svg+xml</dc:format>
        <dc:type
           rdf:resource="http://purl.org/dc/dcmitype/StillImage" />
        <dc:title />
      </cc:Work>
    </rdf:RDF>
  </metadata>
  <g
     inkscape:label="Layer 1"
     inkscape:groupmode="layer"
     id="layer1"
     transform="translate(0,-832.67543)">
    <path
       inkscape:connector-curvature="0"
       id="path3989"
       d="m -53.100444,949.3299 c 0,-59.28571 0,-59.28571 0,-59.28571"
       style="fill:none;stroke:url(#linearGradient10136);stroke-width:10;stroke-linecap:butt;stroke-linejoin:miter;stroke-miterlimit:4;stroke-opacity:1;stroke-dasharray:none" />
    <path
       inkscape:connector-curvature="0"
       id="path3880"
       d="m 256.75321,916.72805 c 214.75546,0 214.75546,0 214.75546,0"
       style="fill:none;stroke:url(#linearGradient10134);stroke-width:11.08956337;stroke-linecap:butt;stroke-linejoin:miter;stroke-miterlimit:4;stroke-opacity:1;stroke-dasharray:none" />
    <path
       style="fill:none;stroke:url(#linearGradient10132);stroke-width:11.08956337;stroke-linecap:butt;stroke-linejoin:miter;stroke-miterlimit:4;stroke-opacity:1;stroke-dasharray:none"
       d="m 256.75321,990.05919 c 214.75546,0 214.75546,0 214.75546,0"
       id="path3884"
       inkscape:connector-curvature="0" />
    <path
       inkscape:connector-curvature="0"
       id="path3888"
       d="M 245.1787,991.37611 C 483.08319,912.69516 483.08319,912.69516 483.08319,912.69516"
       style="fill:none;stroke:url(#linearGradient10130);stroke-width:11.9788084;stroke-linecap:butt;stroke-linejoin:miter;stroke-miterlimit:4;stroke-opacity:1;stroke-dasharray:none" />
    <path
       style="fill:none;stroke:url(#linearGradient10128);stroke-width:11.9788084;stroke-linecap:butt;stroke-linejoin:miter;stroke-miterlimit:4;stroke-opacity:1;stroke-dasharray:none"
       d="M 483.08319,991.37611 C 245.1787,912.69516 245.1787,912.69516 245.1787,912.69516"
       id="path3892"
       inkscape:connector-curvature="0" />
    <rect
       style="fill:#ffffff;fill-opacity:1;fill-rule:nonzero;stroke:none"
       id="rect3900"
       width="17.944786"
       height="44.619469"
       x="472.0907"
       y="967.55548" />
    <rect
       y="894.8064"
       x="472.0907"
       height="44.619469"
       width="17.944786"
       id="rect3902"
       style="fill:#ffffff;fill-opacity:1;fill-rule:nonzero;stroke:none" />
    <path
       sodipodi:nodetypes="cc"
       inkscape:connector-curvature="0"
       id="path3876"
       d="m 468.53299,966.94534 c 13.60979,25.68829 -6.35982,45.83136 -6.46064,45.93296"
       style="fill:none;stroke:#000000;stroke-width:3.31943488;stroke-linecap:butt;stroke-linejoin:miter;stroke-miterlimit:4;stroke-opacity:1;stroke-dasharray:none" />
    <path
       style="fill:none;stroke:#000000;stroke-width:3.31943488;stroke-linecap:butt;stroke-linejoin:miter;stroke-miterlimit:4;stroke-opacity:1;stroke-dasharray:none"
       d="m 459.74513,895.5101 c 22.25642,18.702 11.30716,44.86771 11.25185,44.99973"
       id="path4073"
       inkscape:connector-curvature="0"
       sodipodi:nodetypes="cc" />
    <rect
       y="968.52539"
       x="236.38347"
       height="44.619469"
       width="17.944786"
       id="rect3898"
       style="fill:#ffffff;fill-opacity:1;fill-rule:nonzero;stroke:none" />
    <rect
       style="fill:#ffffff;fill-opacity:1;fill-rule:nonzero;stroke:none"
       id="rect3896"
       width="17.944786"
       height="44.619469"
       x="236.38347"
       y="895.29132" />
    <path
       inkscape:connector-curvature="0"
       id="path3922"
       d="m 123.69765,916.75993 c 132.58681,0 132.58681,0 132.58681,0"
       style="fill:none;stroke:url(#linearGradient10126);stroke-width:8.71349621;stroke-linecap:butt;stroke-linejoin:miter;stroke-miterlimit:4;stroke-opacity:1;stroke-dasharray:none" />
    <path
       style="fill:none;stroke:url(#linearGradient10124);stroke-width:8.71349621;stroke-linecap:butt;stroke-linejoin:miter;stroke-miterlimit:4;stroke-opacity:1;stroke-dasharray:none"
       d="m 127.11933,879.90478 c 127.80111,35.30071 127.80111,35.30071 127.80111,35.30071"
       id="path3926"
       inkscape:connector-curvature="0" />
    <path
       style="fill:none;stroke:#000000;stroke-width:3.31348085;stroke-linecap:butt;stroke-linejoin:miter;stroke-miterlimit:4;stroke-opacity:1;stroke-dasharray:none"
       d="m 256.66668,898.82666 c -3.14357,37.86884 -3.14357,37.86884 -3.14357,37.86884"
       id="path3094"
       inkscape:connector-curvature="0" />
    <path
       style="fill:none;stroke:url(#linearGradient10122);stroke-width:6.78992033;stroke-linecap:butt;stroke-linejoin:miter;stroke-miterlimit:4;stroke-opacity:1;stroke-dasharray:none"
       d="m 179.5763,1015.7267 c 75.89898,-26.85235 75.89898,-26.85235 75.89898,-26.85235"
       id="path3871"
       inkscape:connector-curvature="0" />
    <path
       inkscape:connector-curvature="0"
       id="path3878"
       d="m 254.14265,972.11656 c 1.90452,37.95124 1.90452,37.95124 1.90452,37.95124"
       style="fill:none;stroke:#000000;stroke-width:3.31348085;stroke-linecap:butt;stroke-linejoin:miter;stroke-miterlimit:4;stroke-opacity:1;stroke-dasharray:none" />
    <path
       sodipodi:type="star"
       style="fill:#ff0000;fill-opacity:1;fill-rule:nonzero;stroke:none"
       id="path3990"
       sodipodi:sides="3"
       sodipodi:cx="-119.70308"
       sodipodi:cy="-57.601845"
       sodipodi:r1="70.739532"
       sodipodi:r2="35.369766"
       sodipodi:arg1="0"
       sodipodi:arg2="1.0471976"
       inkscape:flatsided="true"
       inkscape:rounded="0"
       inkscape:randomized="0"
       d="m -48.963547,-57.601845 -106.109303,61.2622324 0,-122.5244674 z"
       transform="matrix(0.3043597,0,0,0.11867205,192.36022,923.68064)"
       inkscape:transform-center-x="-5.3825592" />
    <path
       inkscape:transform-center-x="-5.3825598"
       transform="matrix(0.3043597,0,0,0.11867205,339.0053,922.99475)"
       d="m -48.963547,-57.601845 -106.109303,61.2622324 0,-122.5244674 z"
       inkscape:randomized="0"
       inkscape:rounded="0"
       inkscape:flatsided="true"
       sodipodi:arg2="1.0471976"
       sodipodi:arg1="0"
       sodipodi:r2="35.369766"
       sodipodi:r1="70.739532"
       sodipodi:cy="-57.601845"
       sodipodi:cx="-119.70308"
       sodipodi:sides="3"
       id="path3992"
       style="fill:#ff0000;fill-opacity:1;fill-rule:nonzero;stroke:none"
       sodipodi:type="star" />
    <path
       sodipodi:type="star"
       style="fill:#ff0000;fill-opacity:1;fill-rule:nonzero;stroke:none"
       id="path3994"
       sodipodi:sides="3"
       sodipodi:cx="-119.70308"
       sodipodi:cy="-57.601845"
       sodipodi:r1="70.739532"
       sodipodi:r2="35.369766"
       sodipodi:arg1="0"
       sodipodi:arg2="1.0471976"
       inkscape:flatsided="true"
       inkscape:rounded="0"
       inkscape:randomized="0"
       d="m -48.963547,-57.601845 -106.109303,61.2622324 0,-122.5244674 z"
       transform="matrix(-0.29312854,-0.08191754,0.03194024,-0.11429294,122.58088,871.27055)"
       inkscape:transform-center-x="4.2055766"
       inkscape:transform-center-y="2.0522066" />
    <path
       inkscape:transform-center-y="-2.0830994"
       inkscape:transform-center-x="4.2303221"
       transform="matrix(-0.29353525,0.08044806,0.03136728,0.11445151,184.85887,1019.2971)"
       d="m -48.963547,-57.601845 -106.109303,61.2622324 0,-122.5244674 z"
       inkscape:randomized="0"
       inkscape:rounded="0"
       inkscape:flatsided="true"
       sodipodi:arg2="1.0471976"
       sodipodi:arg1="0"
       sodipodi:r2="35.369766"
       sodipodi:r1="70.739532"
       sodipodi:cy="-57.601845"
       sodipodi:cx="-119.70308"
       sodipodi:sides="3"
       id="path3996"
       style="fill:#ff0000;fill-opacity:1;fill-rule:nonzero;stroke:none"
       sodipodi:type="star" />
    <text
       xml:space="preserve"
       style="font-size:13px;font-style:normal;font-weight:normal;line-height:125%;letter-spacing:0px;word-spacing:0px;fill:#000000;fill-opacity:1;stroke:none;font-family:Bitstream Vera Sans"
       x="65.714287"
       y="91.827888"
       id="text3998"
       sodipodi:linespacing="125%"
       transform="translate(0,832.67568)"><tspan
         sodipodi:role="line"
         id="tspan4000"
         x="65.714287"
         y="91.827888" /></text>
  </g>
  <g
     ns0:text="$\\vect{E}_{\\mathrm{reflection}}$"
     ns0:preamble="/home/nicolas/git/thesis/macros.tex"
     transform="matrix(2.565919,0,0,2.565919,-453.35861,-309.55894)"
     id="g6292">
    <defs
       id="defs6294">
      <g
         id="g6296">
        <symbol
           style="overflow:visible"
           overflow="visible"
           id="textext-3bca5c66-0">
          <path
             inkscape:connector-curvature="0"
             style="stroke:none"
             d="m 1.578125,-7.125 c 0,-0.171875 0,-0.359375 -0.1875,-0.359375 -0.203125,0 -0.203125,0.1875 -0.203125,0.359375 l 0,9.265625 c 0,0.171875 0,0.359375 0.203125,0.359375 0.1875,0 0.1875,-0.1875 0.1875,-0.359375 z m 0,0"
             id="path6299" />
        </symbol>
        <symbol
           style="overflow:visible"
           overflow="visible"
           id="textext-3bca5c66-1">
          <path
             inkscape:connector-curvature="0"
             style="stroke:none"
             d="M 2.71875,-2.328125 C 2.765625,-2.4375 2.765625,-2.46875 2.765625,-2.5 c 0,-0.015625 0,-0.046875 -0.046875,-0.15625 L 0.984375,-7.25 c -0.0625,-0.171875 -0.125,-0.234375 -0.234375,-0.234375 -0.109375,0 -0.203125,0.09375 -0.203125,0.203125 0,0.03125 0,0.046875 0.046875,0.15625 L 2.359375,-2.5 0.59375,2.109375 C 0.546875,2.21875 0.546875,2.25 0.546875,2.296875 0.546875,2.40625 0.640625,2.5 0.75,2.5 0.875,2.5 0.921875,2.390625 0.953125,2.296875 z m 0,0"
             id="path6302" />
        </symbol>
        <symbol
           style="overflow:visible"
           overflow="visible"
           id="textext-3bca5c66-2">
          <path
             inkscape:connector-curvature="0"
             style="stroke:none"
             d="M 7.0625,-2.328125 C 7.078125,-2.375 7.109375,-2.4375 7.109375,-2.46875 c 0,0 0,-0.109375 -0.125,-0.109375 -0.09375,0 -0.109375,0.0625 -0.125,0.125 -0.65625,1.46875 -1.015625,2.140625 -2.71875,2.140625 l -1.453125,0 c -0.140625,0 -0.171875,0 -0.21875,0 -0.109375,-0.015625 -0.140625,-0.03125 -0.140625,-0.109375 0,-0.03125 0,-0.046875 0.046875,-0.21875 L 3.0625,-3.375 l 0.984375,0 c 0.84375,0 0.84375,0.21875 0.84375,0.46875 0,0.0625 0,0.1875 -0.0625,0.484375 C 4.8125,-2.375 4.796875,-2.34375 4.796875,-2.3125 c 0,0.046875 0.03125,0.109375 0.125,0.109375 C 5,-2.203125 5.03125,-2.25 5.078125,-2.40625 l 0.5625,-2.328125 c 0,-0.0625 -0.046875,-0.109375 -0.125,-0.109375 -0.078125,0 -0.109375,0.0625 -0.125,0.171875 -0.21875,0.765625 -0.390625,1 -1.3125,1 l -0.9375,0 0.59375,-2.40625 C 3.828125,-6.4375 3.84375,-6.46875 4.28125,-6.46875 l 1.40625,0 c 1.203125,0 1.515625,0.28125 1.515625,1.109375 0,0.234375 0,0.25 -0.046875,0.53125 0,0.046875 -0.015625,0.125 -0.015625,0.171875 0,0.046875 0.03125,0.125 0.125,0.125 0.109375,0 0.125,-0.0625 0.140625,-0.25 L 7.609375,-6.515625 C 7.640625,-6.78125 7.59375,-6.78125 7.34375,-6.78125 l -5.046875,0 c -0.1875,0 -0.296875,0 -0.296875,0.203125 0,0.109375 0.09375,0.109375 0.28125,0.109375 0.375,0 0.65625,0 0.65625,0.171875 0,0.046875 0,0.0625 -0.0625,0.25 L 1.5625,-0.78125 c -0.09375,0.390625 -0.109375,0.46875 -0.90625,0.46875 -0.171875,0 -0.28125,0 -0.28125,0.1875 C 0.375,0 0.46875,0 0.65625,0 l 5.171875,0 c 0.234375,0 0.25,-0.015625 0.3125,-0.171875 z m 0,0"
             id="path6305" />
        </symbol>
        <symbol
           style="overflow:visible"
           overflow="visible"
           id="textext-3bca5c66-3">
          <path
             inkscape:connector-curvature="0"
             style="stroke:none"
             d="m 1.390625,-1.59375 c 0,-0.578125 0.265625,-1.28125 0.9375,-1.28125 -0.0625,0.046875 -0.125,0.140625 -0.125,0.25 0,0.234375 0.1875,0.3125 0.3125,0.3125 0.171875,0 0.328125,-0.109375 0.328125,-0.3125 0,-0.234375 -0.234375,-0.453125 -0.5625,-0.453125 -0.34375,0 -0.734375,0.21875 -0.9375,0.75 l 0,-0.75 -1,0.078125 0,0.25 c 0.46875,0 0.515625,0.046875 0.515625,0.390625 l 0,1.8125 C 0.859375,-0.25 0.796875,-0.25 0.34375,-0.25 l 0,0.25 c 0.03125,0 0.5,-0.03125 0.796875,-0.03125 0.296875,0 0.59375,0.015625 0.90625,0.03125 l 0,-0.25 -0.140625,0 c -0.515625,0 -0.515625,-0.078125 -0.515625,-0.3125 z m 0,0"
             id="path6308" />
        </symbol>
        <symbol
           style="overflow:visible"
           overflow="visible"
           id="textext-3bca5c66-4">
          <path
             inkscape:connector-curvature="0"
             style="stroke:none"
             d="m 3.0625,-1.59375 c 0.15625,0 0.203125,0 0.203125,-0.140625 0,-0.625 -0.34375,-1.375 -1.390625,-1.375 -0.90625,0 -1.609375,0.71875 -1.609375,1.578125 0,0.890625 0.78125,1.59375 1.703125,1.59375 0.9375,0 1.296875,-0.75 1.296875,-0.90625 0,-0.015625 -0.015625,-0.09375 -0.125,-0.09375 -0.09375,0 -0.109375,0.046875 -0.125,0.109375 -0.21875,0.5625 -0.75,0.671875 -1,0.671875 C 1.6875,-0.15625 1.375,-0.296875 1.171875,-0.5625 0.90625,-0.890625 0.90625,-1.3125 0.90625,-1.59375 z M 0.90625,-1.765625 C 0.984375,-2.75 1.609375,-2.90625 1.875,-2.90625 c 0.859375,0 0.890625,0.96875 0.90625,1.140625 z m 0,0"
             id="path6311" />
        </symbol>
        <symbol
           style="overflow:visible"
           overflow="visible"
           id="textext-3bca5c66-5">
          <path
             inkscape:connector-curvature="0"
             style="stroke:none"
             d="m 3.640625,-4.84375 c -0.0625,0.015625 -0.265625,0.046875 -0.28125,0.046875 -0.015625,0 -0.03125,0 -0.0625,-0.015625 -0.265625,-0.09375 -0.5625,-0.09375 -0.6875,-0.09375 -0.859375,0 -1.75,0.375 -1.75,1.140625 l 0,0.765625 -0.59375,0 0,0.25 0.59375,0 0,2.203125 C 0.859375,-0.25 0.796875,-0.25 0.34375,-0.25 l 0,0.25 c 0.015625,0 0.5,-0.03125 0.78125,-0.03125 0.265625,0 0.515625,0.015625 0.78125,0.03125 l 0,-0.25 c -0.453125,0 -0.515625,0 -0.515625,-0.296875 l 0,-2.203125 1.71875,0 0,2.203125 C 3.109375,-0.25 3.046875,-0.25 2.59375,-0.25 l 0,0.25 c 0.015625,0 0.5,-0.03125 0.78125,-0.03125 0.265625,0 0.515625,0.015625 0.78125,0.03125 l 0,-0.25 c -0.453125,0 -0.515625,0 -0.515625,-0.296875 z M 1.359375,-3 l 0,-0.765625 c 0,-0.609375 0.578125,-0.9375 1.234375,-0.9375 0.1875,0 0.3125,0 0.5,0.046875 C 3,-4.609375 2.953125,-4.5 2.953125,-4.390625 c 0,0.03125 0.015625,0.1875 0.15625,0.265625 l 0,1.125 z m 0,0"
             id="path6314" />
        </symbol>
        <symbol
           style="overflow:visible"
           overflow="visible"
           id="textext-3bca5c66-6">
          <path
             inkscape:connector-curvature="0"
             style="stroke:none"
             d="m 2.703125,-2.78125 c -0.125,0.0625 -0.1875,0.171875 -0.1875,0.3125 0,0.1875 0.125,0.328125 0.328125,0.328125 0.1875,0 0.328125,-0.125 0.328125,-0.34375 0,-0.625 -0.96875,-0.625 -1.15625,-0.625 -1.046875,0 -1.6875,0.796875 -1.6875,1.609375 0,0.875 0.734375,1.5625 1.65625,1.5625 1.03125,0 1.28125,-0.8125 1.28125,-0.90625 0,-0.078125 -0.09375,-0.078125 -0.125,-0.078125 -0.09375,0 -0.09375,0.015625 -0.125,0.125 C 2.859375,-0.375 2.484375,-0.15625 2.0625,-0.15625 c -0.484375,0 -1.109375,-0.359375 -1.109375,-1.359375 0,-0.875 0.4375,-1.375 1.078125,-1.375 0.09375,0 0.421875,0 0.671875,0.109375 z m 0,0"
             id="path6317" />
        </symbol>
        <symbol
           style="overflow:visible"
           overflow="visible"
           id="textext-3bca5c66-7">
          <path
             inkscape:connector-curvature="0"
             style="stroke:none"
             d="m 1.40625,-2.75 1.078125,0 0,-0.25 -1.078125,0 0,-1.28125 -0.25,0 c 0,0.625 -0.28125,1.3125 -0.953125,1.328125 l 0,0.203125 0.640625,0 0,1.875 c 0,0.78125 0.59375,0.9375 0.984375,0.9375 0.46875,0 0.78125,-0.390625 0.78125,-0.9375 l 0,-0.390625 -0.234375,0 0,0.375 c 0,0.484375 -0.21875,0.734375 -0.5,0.734375 -0.46875,0 -0.46875,-0.578125 -0.46875,-0.703125 z m 0,0"
             id="path6320" />
        </symbol>
        <symbol
           style="overflow:visible"
           overflow="visible"
           id="textext-3bca5c66-8">
          <path
             inkscape:connector-curvature="0"
             style="stroke:none"
             d="m 1.46875,-4.296875 c 0,-0.203125 -0.171875,-0.40625 -0.40625,-0.40625 -0.203125,0 -0.390625,0.171875 -0.390625,0.40625 0,0.25 0.203125,0.40625 0.390625,0.40625 0.234375,0 0.40625,-0.171875 0.40625,-0.40625 z M 0.40625,-3 l 0,0.25 c 0.4375,0 0.5,0.046875 0.5,0.390625 l 0,1.8125 C 0.90625,-0.25 0.84375,-0.25 0.390625,-0.25 l 0,0.25 c 0.015625,0 0.5,-0.03125 0.78125,-0.03125 0.25,0 0.5,0.015625 0.734375,0.03125 l 0,-0.25 C 1.5,-0.25 1.4375,-0.25 1.4375,-0.546875 l 0,-2.53125 z m 0,0"
             id="path6323" />
        </symbol>
        <symbol
           style="overflow:visible"
           overflow="visible"
           id="textext-3bca5c66-9">
          <path
             inkscape:connector-curvature="0"
             style="stroke:none"
             d="m 3.6875,-1.484375 c 0,-0.875 -0.75,-1.625 -1.703125,-1.625 -0.96875,0 -1.71875,0.75 -1.71875,1.625 0,0.859375 0.765625,1.546875 1.71875,1.546875 0.9375,0 1.703125,-0.6875 1.703125,-1.546875 z M 1.984375,-0.15625 c -0.265625,0 -0.640625,-0.078125 -0.875,-0.421875 -0.1875,-0.28125 -0.203125,-0.640625 -0.203125,-0.96875 0,-0.296875 0,-0.71875 0.25,-1.015625 0.171875,-0.203125 0.46875,-0.34375 0.828125,-0.34375 0.40625,0 0.703125,0.1875 0.859375,0.40625 0.1875,0.265625 0.203125,0.625 0.203125,0.953125 0,0.328125 -0.015625,0.703125 -0.21875,0.984375 -0.1875,0.265625 -0.5,0.40625 -0.84375,0.40625 z m 0,0"
             id="path6326" />
        </symbol>
        <symbol
           style="overflow:visible"
           overflow="visible"
           id="textext-3bca5c66-10">
          <path
             inkscape:connector-curvature="0"
             style="stroke:none"
             d="m 3.59375,-2.109375 c 0,-0.609375 -0.296875,-0.96875 -1.046875,-0.96875 -0.578125,0 -0.9375,0.3125 -1.140625,0.6875 l 0,-0.6875 L 0.375,-3 l 0,0.25 c 0.46875,0 0.53125,0.046875 0.53125,0.390625 l 0,1.8125 C 0.90625,-0.25 0.828125,-0.25 0.375,-0.25 l 0,0.25 C 0.390625,0 0.875,-0.03125 1.171875,-0.03125 1.421875,-0.03125 1.90625,0 1.96875,0 l 0,-0.25 c -0.453125,0 -0.515625,0 -0.515625,-0.296875 l 0,-1.265625 c 0,-0.71875 0.578125,-1.0625 1.03125,-1.0625 0.484375,0 0.546875,0.375 0.546875,0.734375 l 0,1.59375 C 3.03125,-0.25 2.96875,-0.25 2.515625,-0.25 l 0,0.25 C 2.53125,0 3.015625,-0.03125 3.3125,-0.03125 3.5625,-0.03125 4.046875,0 4.109375,0 l 0,-0.25 c -0.453125,0 -0.515625,0 -0.515625,-0.296875 z m 0,0"
             id="path6329" />
        </symbol>
      </g>
    </defs>
    <g
       id="textext-3bca5c66-11">
      <g
         style="fill:#000000;fill-opacity:1"
         id="g6332">
        <use
           height="219.68503"
           width="297.63779"
           xlink:href="#textext-3bca5c66-0"
           x="223.43201"
           y="134.765"
           id="use6334" />
      </g>
      <g
         style="fill:#000000;fill-opacity:1"
         id="g6336">
        <use
           height="219.68503"
           width="297.63779"
           xlink:href="#textext-3bca5c66-2"
           x="226.2"
           y="134.765"
           id="use6338" />
      </g>
      <g
         style="fill:#000000;fill-opacity:1"
         id="g6340">
        <use
           height="219.68503"
           width="297.63779"
           xlink:href="#textext-3bca5c66-1"
           x="234.12801"
           y="134.765"
           id="use6342" />
      </g>
      <g
         style="fill:#000000;fill-opacity:1"
         id="g6344">
        <use
           height="219.68503"
           width="297.63779"
           xlink:href="#textext-3bca5c66-3"
           x="238.002"
           y="137.754"
           id="use6346" />
        <use
           height="219.68503"
           width="297.63779"
           xlink:href="#textext-3bca5c66-4"
           x="241.1151"
           y="137.754"
           id="use6348" />
        <use
           height="219.68503"
           width="297.63779"
           xlink:href="#textext-3bca5c66-5"
           x="244.6571"
           y="137.754"
           id="use6350" />
        <use
           height="219.68503"
           width="297.63779"
           xlink:href="#textext-3bca5c66-4"
           x="249.16776"
           y="137.754"
           id="use6352" />
        <use
           height="219.68503"
           width="297.63779"
           xlink:href="#textext-3bca5c66-6"
           x="252.70975"
           y="137.754"
           id="use6354" />
        <use
           height="219.68503"
           width="297.63779"
           xlink:href="#textext-3bca5c66-7"
           x="256.25174"
           y="137.754"
           id="use6356" />
        <use
           height="219.68503"
           width="297.63779"
           xlink:href="#textext-3bca5c66-8"
           x="259.36484"
           y="137.754"
           id="use6358" />
        <use
           height="219.68503"
           width="297.63779"
           xlink:href="#textext-3bca5c66-9"
           x="261.62018"
           y="137.754"
           id="use6360" />
        <use
           height="219.68503"
           width="297.63779"
           xlink:href="#textext-3bca5c66-10"
           x="265.59174"
           y="137.754"
           id="use6362" />
      </g>
    </g>
  </g>
  <g
     id="g6770"
     transform="matrix(2.565919,0,0,2.565919,-448.90036,-233.76858)"
     ns0:preamble="/home/nicolas/git/thesis/macros.tex"
     ns0:text="$\\vect{E}_{\\mathrm{in}}$">
    <defs
       id="defs6772">
      <g
         id="g6774">
        <symbol
           id="textext-dcce3306-0"
           overflow="visible"
           style="overflow:visible">
          <path
             id="path6777"
             d="m 1.578125,-7.125 c 0,-0.171875 0,-0.359375 -0.1875,-0.359375 -0.203125,0 -0.203125,0.1875 -0.203125,0.359375 l 0,9.265625 c 0,0.171875 0,0.359375 0.203125,0.359375 0.1875,0 0.1875,-0.1875 0.1875,-0.359375 z m 0,0"
             style="stroke:none"
             inkscape:connector-curvature="0" />
        </symbol>
        <symbol
           id="textext-dcce3306-1"
           overflow="visible"
           style="overflow:visible">
          <path
             id="path6780"
             d="M 2.71875,-2.328125 C 2.765625,-2.4375 2.765625,-2.46875 2.765625,-2.5 c 0,-0.015625 0,-0.046875 -0.046875,-0.15625 L 0.984375,-7.25 c -0.0625,-0.171875 -0.125,-0.234375 -0.234375,-0.234375 -0.109375,0 -0.203125,0.09375 -0.203125,0.203125 0,0.03125 0,0.046875 0.046875,0.15625 L 2.359375,-2.5 0.59375,2.109375 C 0.546875,2.21875 0.546875,2.25 0.546875,2.296875 0.546875,2.40625 0.640625,2.5 0.75,2.5 0.875,2.5 0.921875,2.390625 0.953125,2.296875 z m 0,0"
             style="stroke:none"
             inkscape:connector-curvature="0" />
        </symbol>
        <symbol
           id="textext-dcce3306-2"
           overflow="visible"
           style="overflow:visible">
          <path
             id="path6783"
             d="M 7.0625,-2.328125 C 7.078125,-2.375 7.109375,-2.4375 7.109375,-2.46875 c 0,0 0,-0.109375 -0.125,-0.109375 -0.09375,0 -0.109375,0.0625 -0.125,0.125 -0.65625,1.46875 -1.015625,2.140625 -2.71875,2.140625 l -1.453125,0 c -0.140625,0 -0.171875,0 -0.21875,0 -0.109375,-0.015625 -0.140625,-0.03125 -0.140625,-0.109375 0,-0.03125 0,-0.046875 0.046875,-0.21875 L 3.0625,-3.375 l 0.984375,0 c 0.84375,0 0.84375,0.21875 0.84375,0.46875 0,0.0625 0,0.1875 -0.0625,0.484375 C 4.8125,-2.375 4.796875,-2.34375 4.796875,-2.3125 c 0,0.046875 0.03125,0.109375 0.125,0.109375 C 5,-2.203125 5.03125,-2.25 5.078125,-2.40625 l 0.5625,-2.328125 c 0,-0.0625 -0.046875,-0.109375 -0.125,-0.109375 -0.078125,0 -0.109375,0.0625 -0.125,0.171875 -0.21875,0.765625 -0.390625,1 -1.3125,1 l -0.9375,0 0.59375,-2.40625 C 3.828125,-6.4375 3.84375,-6.46875 4.28125,-6.46875 l 1.40625,0 c 1.203125,0 1.515625,0.28125 1.515625,1.109375 0,0.234375 0,0.25 -0.046875,0.53125 0,0.046875 -0.015625,0.125 -0.015625,0.171875 0,0.046875 0.03125,0.125 0.125,0.125 0.109375,0 0.125,-0.0625 0.140625,-0.25 L 7.609375,-6.515625 C 7.640625,-6.78125 7.59375,-6.78125 7.34375,-6.78125 l -5.046875,0 c -0.1875,0 -0.296875,0 -0.296875,0.203125 0,0.109375 0.09375,0.109375 0.28125,0.109375 0.375,0 0.65625,0 0.65625,0.171875 0,0.046875 0,0.0625 -0.0625,0.25 L 1.5625,-0.78125 c -0.09375,0.390625 -0.109375,0.46875 -0.90625,0.46875 -0.171875,0 -0.28125,0 -0.28125,0.1875 C 0.375,0 0.46875,0 0.65625,0 l 5.171875,0 c 0.234375,0 0.25,-0.015625 0.3125,-0.171875 z m 0,0"
             style="stroke:none"
             inkscape:connector-curvature="0" />
        </symbol>
        <symbol
           id="textext-dcce3306-3"
           overflow="visible"
           style="overflow:visible">
          <path
             id="path6786"
             d="m 1.46875,-4.296875 c 0,-0.203125 -0.171875,-0.40625 -0.40625,-0.40625 -0.203125,0 -0.390625,0.171875 -0.390625,0.40625 0,0.25 0.203125,0.40625 0.390625,0.40625 0.234375,0 0.40625,-0.171875 0.40625,-0.40625 z M 0.40625,-3 l 0,0.25 c 0.4375,0 0.5,0.046875 0.5,0.390625 l 0,1.8125 C 0.90625,-0.25 0.84375,-0.25 0.390625,-0.25 l 0,0.25 c 0.015625,0 0.5,-0.03125 0.78125,-0.03125 0.25,0 0.5,0.015625 0.734375,0.03125 l 0,-0.25 C 1.5,-0.25 1.4375,-0.25 1.4375,-0.546875 l 0,-2.53125 z m 0,0"
             style="stroke:none"
             inkscape:connector-curvature="0" />
        </symbol>
        <symbol
           id="textext-dcce3306-4"
           overflow="visible"
           style="overflow:visible">
          <path
             id="path6789"
             d="m 3.59375,-2.109375 c 0,-0.609375 -0.296875,-0.96875 -1.046875,-0.96875 -0.578125,0 -0.9375,0.3125 -1.140625,0.6875 l 0,-0.6875 L 0.375,-3 l 0,0.25 c 0.46875,0 0.53125,0.046875 0.53125,0.390625 l 0,1.8125 C 0.90625,-0.25 0.828125,-0.25 0.375,-0.25 l 0,0.25 C 0.390625,0 0.875,-0.03125 1.171875,-0.03125 1.421875,-0.03125 1.90625,0 1.96875,0 l 0,-0.25 c -0.453125,0 -0.515625,0 -0.515625,-0.296875 l 0,-1.265625 c 0,-0.71875 0.578125,-1.0625 1.03125,-1.0625 0.484375,0 0.546875,0.375 0.546875,0.734375 l 0,1.59375 C 3.03125,-0.25 2.96875,-0.25 2.515625,-0.25 l 0,0.25 C 2.53125,0 3.015625,-0.03125 3.3125,-0.03125 3.5625,-0.03125 4.046875,0 4.109375,0 l 0,-0.25 c -0.453125,0 -0.515625,0 -0.515625,-0.296875 z m 0,0"
             style="stroke:none"
             inkscape:connector-curvature="0" />
        </symbol>
      </g>
    </defs>
    <g
       id="textext-dcce3306-5">
      <g
         id="g6792"
         style="fill:#000000;fill-opacity:1">
        <use
           id="use6794"
           y="134.765"
           x="223.43201"
           xlink:href="#textext-dcce3306-0"
           width="297.63779"
           height="219.68503" />
      </g>
      <g
         id="g6796"
         style="fill:#000000;fill-opacity:1">
        <use
           id="use6798"
           y="134.765"
           x="226.2"
           xlink:href="#textext-dcce3306-2"
           width="297.63779"
           height="219.68503" />
      </g>
      <g
         id="g6800"
         style="fill:#000000;fill-opacity:1">
        <use
           id="use6802"
           y="134.765"
           x="234.12801"
           xlink:href="#textext-dcce3306-1"
           width="297.63779"
           height="219.68503" />
      </g>
      <g
         id="g6804"
         style="fill:#000000;fill-opacity:1">
        <use
           id="use6806"
           y="137.754"
           x="238.002"
           xlink:href="#textext-dcce3306-3"
           width="297.63779"
           height="219.68503" />
        <use
           id="use6808"
           y="137.754"
           x="240.25732"
           xlink:href="#textext-dcce3306-4"
           width="297.63779"
           height="219.68503" />
      </g>
    </g>
  </g>
  <g
     ns0:text="$\\vect{E}_{\\mathrm{transmission}}$"
     ns0:preamble="/home/nicolas/git/thesis/macros.tex"
     transform="matrix(2.565919,0,0,2.565919,-377.91122,-143.91758)"
     id="g7199">
    <defs
       id="defs7201">
      <g
         id="g7203">
        <symbol
           overflow="visible"
           id="textext-c4c95faf-0"
           style="overflow:visible">
          <path
             style="stroke:none"
             d="m 1.578125,-7.125 c 0,-0.171875 0,-0.359375 -0.1875,-0.359375 -0.203125,0 -0.203125,0.1875 -0.203125,0.359375 l 0,9.265625 c 0,0.171875 0,0.359375 0.203125,0.359375 0.1875,0 0.1875,-0.1875 0.1875,-0.359375 z m 0,0"
             id="path7206"
             inkscape:connector-curvature="0" />
        </symbol>
        <symbol
           overflow="visible"
           id="textext-c4c95faf-1"
           style="overflow:visible">
          <path
             style="stroke:none"
             d="M 2.71875,-2.328125 C 2.765625,-2.4375 2.765625,-2.46875 2.765625,-2.5 c 0,-0.015625 0,-0.046875 -0.046875,-0.15625 L 0.984375,-7.25 c -0.0625,-0.171875 -0.125,-0.234375 -0.234375,-0.234375 -0.109375,0 -0.203125,0.09375 -0.203125,0.203125 0,0.03125 0,0.046875 0.046875,0.15625 L 2.359375,-2.5 0.59375,2.109375 C 0.546875,2.21875 0.546875,2.25 0.546875,2.296875 0.546875,2.40625 0.640625,2.5 0.75,2.5 0.875,2.5 0.921875,2.390625 0.953125,2.296875 z m 0,0"
             id="path7209"
             inkscape:connector-curvature="0" />
        </symbol>
        <symbol
           overflow="visible"
           id="textext-c4c95faf-2"
           style="overflow:visible">
          <path
             style="stroke:none"
             d="M 7.0625,-2.328125 C 7.078125,-2.375 7.109375,-2.4375 7.109375,-2.46875 c 0,0 0,-0.109375 -0.125,-0.109375 -0.09375,0 -0.109375,0.0625 -0.125,0.125 -0.65625,1.46875 -1.015625,2.140625 -2.71875,2.140625 l -1.453125,0 c -0.140625,0 -0.171875,0 -0.21875,0 -0.109375,-0.015625 -0.140625,-0.03125 -0.140625,-0.109375 0,-0.03125 0,-0.046875 0.046875,-0.21875 L 3.0625,-3.375 l 0.984375,0 c 0.84375,0 0.84375,0.21875 0.84375,0.46875 0,0.0625 0,0.1875 -0.0625,0.484375 C 4.8125,-2.375 4.796875,-2.34375 4.796875,-2.3125 c 0,0.046875 0.03125,0.109375 0.125,0.109375 C 5,-2.203125 5.03125,-2.25 5.078125,-2.40625 l 0.5625,-2.328125 c 0,-0.0625 -0.046875,-0.109375 -0.125,-0.109375 -0.078125,0 -0.109375,0.0625 -0.125,0.171875 -0.21875,0.765625 -0.390625,1 -1.3125,1 l -0.9375,0 0.59375,-2.40625 C 3.828125,-6.4375 3.84375,-6.46875 4.28125,-6.46875 l 1.40625,0 c 1.203125,0 1.515625,0.28125 1.515625,1.109375 0,0.234375 0,0.25 -0.046875,0.53125 0,0.046875 -0.015625,0.125 -0.015625,0.171875 0,0.046875 0.03125,0.125 0.125,0.125 0.109375,0 0.125,-0.0625 0.140625,-0.25 L 7.609375,-6.515625 C 7.640625,-6.78125 7.59375,-6.78125 7.34375,-6.78125 l -5.046875,0 c -0.1875,0 -0.296875,0 -0.296875,0.203125 0,0.109375 0.09375,0.109375 0.28125,0.109375 0.375,0 0.65625,0 0.65625,0.171875 0,0.046875 0,0.0625 -0.0625,0.25 L 1.5625,-0.78125 c -0.09375,0.390625 -0.109375,0.46875 -0.90625,0.46875 -0.171875,0 -0.28125,0 -0.28125,0.1875 C 0.375,0 0.46875,0 0.65625,0 l 5.171875,0 c 0.234375,0 0.25,-0.015625 0.3125,-0.171875 z m 0,0"
             id="path7212"
             inkscape:connector-curvature="0" />
        </symbol>
        <symbol
           overflow="visible"
           id="textext-c4c95faf-3"
           style="overflow:visible">
          <path
             style="stroke:none"
             d="m 1.40625,-2.75 1.078125,0 0,-0.25 -1.078125,0 0,-1.28125 -0.25,0 c 0,0.625 -0.28125,1.3125 -0.953125,1.328125 l 0,0.203125 0.640625,0 0,1.875 c 0,0.78125 0.59375,0.9375 0.984375,0.9375 0.46875,0 0.78125,-0.390625 0.78125,-0.9375 l 0,-0.390625 -0.234375,0 0,0.375 c 0,0.484375 -0.21875,0.734375 -0.5,0.734375 -0.46875,0 -0.46875,-0.578125 -0.46875,-0.703125 z m 0,0"
             id="path7215"
             inkscape:connector-curvature="0" />
        </symbol>
        <symbol
           overflow="visible"
           id="textext-c4c95faf-4"
           style="overflow:visible">
          <path
             style="stroke:none"
             d="m 1.390625,-1.59375 c 0,-0.578125 0.265625,-1.28125 0.9375,-1.28125 -0.0625,0.046875 -0.125,0.140625 -0.125,0.25 0,0.234375 0.1875,0.3125 0.3125,0.3125 0.171875,0 0.328125,-0.109375 0.328125,-0.3125 0,-0.234375 -0.234375,-0.453125 -0.5625,-0.453125 -0.34375,0 -0.734375,0.21875 -0.9375,0.75 l 0,-0.75 -1,0.078125 0,0.25 c 0.46875,0 0.515625,0.046875 0.515625,0.390625 l 0,1.8125 C 0.859375,-0.25 0.796875,-0.25 0.34375,-0.25 l 0,0.25 c 0.03125,0 0.5,-0.03125 0.796875,-0.03125 0.296875,0 0.59375,0.015625 0.90625,0.03125 l 0,-0.25 -0.140625,0 c -0.515625,0 -0.515625,-0.078125 -0.515625,-0.3125 z m 0,0"
             id="path7218"
             inkscape:connector-curvature="0" />
        </symbol>
        <symbol
           overflow="visible"
           id="textext-c4c95faf-5"
           style="overflow:visible">
          <path
             style="stroke:none"
             d="m 3.109375,-1.875 c 0,-0.359375 0,-0.625 -0.328125,-0.890625 C 2.5,-3 2.171875,-3.109375 1.75,-3.109375 c -0.65625,0 -1.125,0.25 -1.125,0.671875 0,0.234375 0.15625,0.34375 0.34375,0.34375 0.1875,0 0.328125,-0.140625 0.328125,-0.328125 0,-0.109375 -0.0625,-0.265625 -0.25,-0.3125 0.25,-0.171875 0.65625,-0.171875 0.6875,-0.171875 0.390625,0 0.828125,0.25 0.828125,0.84375 l 0,0.203125 C 2.171875,-1.84375 1.71875,-1.8125 1.203125,-1.625 c -0.625,0.21875 -0.8125,0.609375 -0.8125,0.921875 0,0.59375 0.71875,0.765625 1.21875,0.765625 0.546875,0 0.875,-0.3125 1.03125,-0.578125 0.015625,0.28125 0.203125,0.546875 0.53125,0.546875 0.015625,0 0.6875,0 0.6875,-0.65625 l 0,-0.390625 -0.234375,0 0,0.375 c 0,0.078125 0,0.40625 -0.265625,0.40625 -0.25,0 -0.25,-0.328125 -0.25,-0.40625 z M 2.5625,-0.984375 c 0,0.671875 -0.59375,0.859375 -0.90625,0.859375 -0.359375,0 -0.6875,-0.234375 -0.6875,-0.578125 0,-0.390625 0.328125,-0.921875 1.59375,-0.96875 z m 0,0"
             id="path7221"
             inkscape:connector-curvature="0" />
        </symbol>
        <symbol
           overflow="visible"
           id="textext-c4c95faf-6"
           style="overflow:visible">
          <path
             style="stroke:none"
             d="m 3.59375,-2.109375 c 0,-0.609375 -0.296875,-0.96875 -1.046875,-0.96875 -0.578125,0 -0.9375,0.3125 -1.140625,0.6875 l 0,-0.6875 L 0.375,-3 l 0,0.25 c 0.46875,0 0.53125,0.046875 0.53125,0.390625 l 0,1.8125 C 0.90625,-0.25 0.828125,-0.25 0.375,-0.25 l 0,0.25 C 0.390625,0 0.875,-0.03125 1.171875,-0.03125 1.421875,-0.03125 1.90625,0 1.96875,0 l 0,-0.25 c -0.453125,0 -0.515625,0 -0.515625,-0.296875 l 0,-1.265625 c 0,-0.71875 0.578125,-1.0625 1.03125,-1.0625 0.484375,0 0.546875,0.375 0.546875,0.734375 l 0,1.59375 C 3.03125,-0.25 2.96875,-0.25 2.515625,-0.25 l 0,0.25 C 2.53125,0 3.015625,-0.03125 3.3125,-0.03125 3.5625,-0.03125 4.046875,0 4.109375,0 l 0,-0.25 c -0.453125,0 -0.515625,0 -0.515625,-0.296875 z m 0,0"
             id="path7224"
             inkscape:connector-curvature="0" />
        </symbol>
        <symbol
           overflow="visible"
           id="textext-c4c95faf-7"
           style="overflow:visible">
          <path
             style="stroke:none"
             d="m 2.640625,-2.921875 c 0,-0.125 0,-0.1875 -0.09375,-0.1875 -0.03125,0 -0.046875,0 -0.140625,0.078125 -0.015625,0.015625 -0.078125,0.078125 -0.125,0.109375 -0.21875,-0.140625 -0.46875,-0.1875 -0.734375,-0.1875 -1,0 -1.234375,0.53125 -1.234375,0.875 0,0.21875 0.09375,0.40625 0.265625,0.546875 0.265625,0.21875 0.53125,0.265625 0.96875,0.34375 0.34375,0.0625 0.90625,0.15625 0.90625,0.625 0,0.265625 -0.1875,0.59375 -0.859375,0.59375 -0.671875,0 -0.90625,-0.4375 -1.03125,-0.90625 -0.03125,-0.09375 -0.03125,-0.125 -0.125,-0.125 -0.125,0 -0.125,0.046875 -0.125,0.1875 l 0,0.859375 C 0.3125,0 0.3125,0.0625 0.40625,0.0625 0.46875,0.0625 0.609375,-0.078125 0.75,-0.234375 1.046875,0.0625 1.421875,0.0625 1.59375,0.0625 c 0.90625,0 1.25,-0.484375 1.25,-0.96875 0,-0.265625 -0.125,-0.484375 -0.3125,-0.640625 -0.265625,-0.25 -0.578125,-0.3125 -0.828125,-0.34375 -0.546875,-0.109375 -1,-0.1875 -1,-0.5625 0,-0.21875 0.1875,-0.484375 0.84375,-0.484375 0.8125,0 0.84375,0.5625 0.859375,0.765625 0,0.078125 0.09375,0.078125 0.109375,0.078125 0.125,0 0.125,-0.046875 0.125,-0.1875 z m 0,0"
             id="path7227"
             inkscape:connector-curvature="0" />
        </symbol>
        <symbol
           overflow="visible"
           id="textext-c4c95faf-8"
           style="overflow:visible">
          <path
             style="stroke:none"
             d="m 5.734375,-2.109375 c 0,-0.609375 -0.3125,-0.96875 -1.046875,-0.96875 -0.5625,0 -0.9375,0.296875 -1.125,0.65625 -0.140625,-0.5 -0.515625,-0.65625 -1.015625,-0.65625 -0.578125,0 -0.9375,0.3125 -1.140625,0.6875 l 0,-0.6875 L 0.375,-3 l 0,0.25 c 0.46875,0 0.53125,0.046875 0.53125,0.390625 l 0,1.8125 C 0.90625,-0.25 0.828125,-0.25 0.375,-0.25 l 0,0.25 C 0.390625,0 0.875,-0.03125 1.171875,-0.03125 1.421875,-0.03125 1.90625,0 1.96875,0 l 0,-0.25 c -0.453125,0 -0.515625,0 -0.515625,-0.296875 l 0,-1.265625 c 0,-0.71875 0.578125,-1.0625 1.03125,-1.0625 0.484375,0 0.546875,0.375 0.546875,0.734375 l 0,1.59375 C 3.03125,-0.25 2.96875,-0.25 2.515625,-0.25 l 0,0.25 C 2.53125,0 3.015625,-0.03125 3.3125,-0.03125 3.5625,-0.03125 4.046875,0 4.109375,0 l 0,-0.25 c -0.453125,0 -0.515625,0 -0.515625,-0.296875 l 0,-1.265625 c 0,-0.71875 0.578125,-1.0625 1.03125,-1.0625 0.484375,0 0.546875,0.375 0.546875,0.734375 l 0,1.59375 C 5.171875,-0.25 5.109375,-0.25 4.65625,-0.25 l 0,0.25 c 0.015625,0 0.5,-0.03125 0.796875,-0.03125 C 5.703125,-0.03125 6.1875,0 6.25,0 l 0,-0.25 c -0.453125,0 -0.515625,0 -0.515625,-0.296875 z m 0,0"
             id="path7230"
             inkscape:connector-curvature="0" />
        </symbol>
        <symbol
           overflow="visible"
           id="textext-c4c95faf-9"
           style="overflow:visible">
          <path
             style="stroke:none"
             d="m 1.46875,-4.296875 c 0,-0.203125 -0.171875,-0.40625 -0.40625,-0.40625 -0.203125,0 -0.390625,0.171875 -0.390625,0.40625 0,0.25 0.203125,0.40625 0.390625,0.40625 0.234375,0 0.40625,-0.171875 0.40625,-0.40625 z M 0.40625,-3 l 0,0.25 c 0.4375,0 0.5,0.046875 0.5,0.390625 l 0,1.8125 C 0.90625,-0.25 0.84375,-0.25 0.390625,-0.25 l 0,0.25 c 0.015625,0 0.5,-0.03125 0.78125,-0.03125 0.25,0 0.5,0.015625 0.734375,0.03125 l 0,-0.25 C 1.5,-0.25 1.4375,-0.25 1.4375,-0.546875 l 0,-2.53125 z m 0,0"
             id="path7233"
             inkscape:connector-curvature="0" />
        </symbol>
        <symbol
           overflow="visible"
           id="textext-c4c95faf-10"
           style="overflow:visible">
          <path
             style="stroke:none"
             d="m 3.6875,-1.484375 c 0,-0.875 -0.75,-1.625 -1.703125,-1.625 -0.96875,0 -1.71875,0.75 -1.71875,1.625 0,0.859375 0.765625,1.546875 1.71875,1.546875 0.9375,0 1.703125,-0.6875 1.703125,-1.546875 z M 1.984375,-0.15625 c -0.265625,0 -0.640625,-0.078125 -0.875,-0.421875 -0.1875,-0.28125 -0.203125,-0.640625 -0.203125,-0.96875 0,-0.296875 0,-0.71875 0.25,-1.015625 0.171875,-0.203125 0.46875,-0.34375 0.828125,-0.34375 0.40625,0 0.703125,0.1875 0.859375,0.40625 0.1875,0.265625 0.203125,0.625 0.203125,0.953125 0,0.328125 -0.015625,0.703125 -0.21875,0.984375 -0.1875,0.265625 -0.5,0.40625 -0.84375,0.40625 z m 0,0"
             id="path7236"
             inkscape:connector-curvature="0" />
        </symbol>
      </g>
    </defs>
    <g
       id="textext-c4c95faf-11">
      <g
         style="fill:#000000;fill-opacity:1"
         id="g7239">
        <use
           xlink:href="#textext-c4c95faf-0"
           x="223.43201"
           y="134.765"
           id="use7241"
           width="297.63779"
           height="219.68503" />
      </g>
      <g
         style="fill:#000000;fill-opacity:1"
         id="g7243">
        <use
           xlink:href="#textext-c4c95faf-2"
           x="226.2"
           y="134.765"
           id="use7245"
           width="297.63779"
           height="219.68503" />
      </g>
      <g
         style="fill:#000000;fill-opacity:1"
         id="g7247">
        <use
           xlink:href="#textext-c4c95faf-1"
           x="234.12801"
           y="134.765"
           id="use7249"
           width="297.63779"
           height="219.68503" />
      </g>
      <g
         style="fill:#000000;fill-opacity:1"
         id="g7251">
        <use
           xlink:href="#textext-c4c95faf-3"
           x="238.002"
           y="137.754"
           id="use7253"
           width="297.63779"
           height="219.68503" />
        <use
           xlink:href="#textext-c4c95faf-4"
           x="241.1151"
           y="137.754"
           id="use7255"
           width="297.63779"
           height="219.68503" />
        <use
           xlink:href="#textext-c4c95faf-5"
           x="244.22821"
           y="137.754"
           id="use7257"
           width="297.63779"
           height="219.68503" />
        <use
           xlink:href="#textext-c4c95faf-6"
           x="248.19978"
           y="137.754"
           id="use7259"
           width="297.63779"
           height="219.68503" />
        <use
           xlink:href="#textext-c4c95faf-7"
           x="252.60025"
           y="137.754"
           id="use7261"
           width="297.63779"
           height="219.68503" />
        <use
           xlink:href="#textext-c4c95faf-8"
           x="255.75659"
           y="137.754"
           id="use7263"
           width="297.63779"
           height="219.68503" />
        <use
           xlink:href="#textext-c4c95faf-9"
           x="262.30151"
           y="137.754"
           id="use7265"
           width="297.63779"
           height="219.68503" />
        <use
           xlink:href="#textext-c4c95faf-7"
           x="264.55682"
           y="137.754"
           id="use7267"
           width="297.63779"
           height="219.68503" />
        <use
           xlink:href="#textext-c4c95faf-7"
           x="267.71317"
           y="137.754"
           id="use7269"
           width="297.63779"
           height="219.68503" />
        <use
           xlink:href="#textext-c4c95faf-9"
           x="270.86951"
           y="137.754"
           id="use7271"
           width="297.63779"
           height="219.68503" />
        <use
           xlink:href="#textext-c4c95faf-10"
           x="273.12485"
           y="137.754"
           id="use7273"
           width="297.63779"
           height="219.68503" />
        <use
           xlink:href="#textext-c4c95faf-6"
           x="277.09644"
           y="137.754"
           id="use7275"
           width="297.63779"
           height="219.68503" />
      </g>
    </g>
  </g>
  <g
     id="g7690"
     transform="matrix(2.565919,0,0,2.565919,-304.1475,-280.75177)"
     ns0:preamble="/home/nicolas/git/thesis/macros.tex"
     ns0:text="$\\vect{E}_{\\mathrm{cavity}}$">
    <defs
       id="defs7692">
      <g
         id="g7694">
        <symbol
           id="textext-b591bd67-0"
           overflow="visible"
           style="overflow:visible">
          <path
             id="path7697"
             d="m 1.578125,-7.125 c 0,-0.171875 0,-0.359375 -0.1875,-0.359375 -0.203125,0 -0.203125,0.1875 -0.203125,0.359375 l 0,9.265625 c 0,0.171875 0,0.359375 0.203125,0.359375 0.1875,0 0.1875,-0.1875 0.1875,-0.359375 z m 0,0"
             style="stroke:none"
             inkscape:connector-curvature="0" />
        </symbol>
        <symbol
           id="textext-b591bd67-1"
           overflow="visible"
           style="overflow:visible">
          <path
             id="path7700"
             d="M 2.71875,-2.328125 C 2.765625,-2.4375 2.765625,-2.46875 2.765625,-2.5 c 0,-0.015625 0,-0.046875 -0.046875,-0.15625 L 0.984375,-7.25 c -0.0625,-0.171875 -0.125,-0.234375 -0.234375,-0.234375 -0.109375,0 -0.203125,0.09375 -0.203125,0.203125 0,0.03125 0,0.046875 0.046875,0.15625 L 2.359375,-2.5 0.59375,2.109375 C 0.546875,2.21875 0.546875,2.25 0.546875,2.296875 0.546875,2.40625 0.640625,2.5 0.75,2.5 0.875,2.5 0.921875,2.390625 0.953125,2.296875 z m 0,0"
             style="stroke:none"
             inkscape:connector-curvature="0" />
        </symbol>
        <symbol
           id="textext-b591bd67-2"
           overflow="visible"
           style="overflow:visible">
          <path
             id="path7703"
             d="M 7.0625,-2.328125 C 7.078125,-2.375 7.109375,-2.4375 7.109375,-2.46875 c 0,0 0,-0.109375 -0.125,-0.109375 -0.09375,0 -0.109375,0.0625 -0.125,0.125 -0.65625,1.46875 -1.015625,2.140625 -2.71875,2.140625 l -1.453125,0 c -0.140625,0 -0.171875,0 -0.21875,0 -0.109375,-0.015625 -0.140625,-0.03125 -0.140625,-0.109375 0,-0.03125 0,-0.046875 0.046875,-0.21875 L 3.0625,-3.375 l 0.984375,0 c 0.84375,0 0.84375,0.21875 0.84375,0.46875 0,0.0625 0,0.1875 -0.0625,0.484375 C 4.8125,-2.375 4.796875,-2.34375 4.796875,-2.3125 c 0,0.046875 0.03125,0.109375 0.125,0.109375 C 5,-2.203125 5.03125,-2.25 5.078125,-2.40625 l 0.5625,-2.328125 c 0,-0.0625 -0.046875,-0.109375 -0.125,-0.109375 -0.078125,0 -0.109375,0.0625 -0.125,0.171875 -0.21875,0.765625 -0.390625,1 -1.3125,1 l -0.9375,0 0.59375,-2.40625 C 3.828125,-6.4375 3.84375,-6.46875 4.28125,-6.46875 l 1.40625,0 c 1.203125,0 1.515625,0.28125 1.515625,1.109375 0,0.234375 0,0.25 -0.046875,0.53125 0,0.046875 -0.015625,0.125 -0.015625,0.171875 0,0.046875 0.03125,0.125 0.125,0.125 0.109375,0 0.125,-0.0625 0.140625,-0.25 L 7.609375,-6.515625 C 7.640625,-6.78125 7.59375,-6.78125 7.34375,-6.78125 l -5.046875,0 c -0.1875,0 -0.296875,0 -0.296875,0.203125 0,0.109375 0.09375,0.109375 0.28125,0.109375 0.375,0 0.65625,0 0.65625,0.171875 0,0.046875 0,0.0625 -0.0625,0.25 L 1.5625,-0.78125 c -0.09375,0.390625 -0.109375,0.46875 -0.90625,0.46875 -0.171875,0 -0.28125,0 -0.28125,0.1875 C 0.375,0 0.46875,0 0.65625,0 l 5.171875,0 c 0.234375,0 0.25,-0.015625 0.3125,-0.171875 z m 0,0"
             style="stroke:none"
             inkscape:connector-curvature="0" />
        </symbol>
        <symbol
           id="textext-b591bd67-3"
           overflow="visible"
           style="overflow:visible">
          <path
             id="path7706"
             d="m 2.703125,-2.78125 c -0.125,0.0625 -0.1875,0.171875 -0.1875,0.3125 0,0.1875 0.125,0.328125 0.328125,0.328125 0.1875,0 0.328125,-0.125 0.328125,-0.34375 0,-0.625 -0.96875,-0.625 -1.15625,-0.625 -1.046875,0 -1.6875,0.796875 -1.6875,1.609375 0,0.875 0.734375,1.5625 1.65625,1.5625 1.03125,0 1.28125,-0.8125 1.28125,-0.90625 0,-0.078125 -0.09375,-0.078125 -0.125,-0.078125 -0.09375,0 -0.09375,0.015625 -0.125,0.125 C 2.859375,-0.375 2.484375,-0.15625 2.0625,-0.15625 c -0.484375,0 -1.109375,-0.359375 -1.109375,-1.359375 0,-0.875 0.4375,-1.375 1.078125,-1.375 0.09375,0 0.421875,0 0.671875,0.109375 z m 0,0"
             style="stroke:none"
             inkscape:connector-curvature="0" />
        </symbol>
        <symbol
           id="textext-b591bd67-4"
           overflow="visible"
           style="overflow:visible">
          <path
             id="path7709"
             d="m 3.109375,-1.875 c 0,-0.359375 0,-0.625 -0.328125,-0.890625 C 2.5,-3 2.171875,-3.109375 1.75,-3.109375 c -0.65625,0 -1.125,0.25 -1.125,0.671875 0,0.234375 0.15625,0.34375 0.34375,0.34375 0.1875,0 0.328125,-0.140625 0.328125,-0.328125 0,-0.109375 -0.0625,-0.265625 -0.25,-0.3125 0.25,-0.171875 0.65625,-0.171875 0.6875,-0.171875 0.390625,0 0.828125,0.25 0.828125,0.84375 l 0,0.203125 C 2.171875,-1.84375 1.71875,-1.8125 1.203125,-1.625 c -0.625,0.21875 -0.8125,0.609375 -0.8125,0.921875 0,0.59375 0.71875,0.765625 1.21875,0.765625 0.546875,0 0.875,-0.3125 1.03125,-0.578125 0.015625,0.28125 0.203125,0.546875 0.53125,0.546875 0.015625,0 0.6875,0 0.6875,-0.65625 l 0,-0.390625 -0.234375,0 0,0.375 c 0,0.078125 0,0.40625 -0.265625,0.40625 -0.25,0 -0.25,-0.328125 -0.25,-0.40625 z M 2.5625,-0.984375 c 0,0.671875 -0.59375,0.859375 -0.90625,0.859375 -0.359375,0 -0.6875,-0.234375 -0.6875,-0.578125 0,-0.390625 0.328125,-0.921875 1.59375,-0.96875 z m 0,0"
             style="stroke:none"
             inkscape:connector-curvature="0" />
        </symbol>
        <symbol
           id="textext-b591bd67-5"
           overflow="visible"
           style="overflow:visible">
          <path
             id="path7712"
             d="M 3.296875,-2.328125 C 3.5,-2.75 3.84375,-2.75 3.953125,-2.75 l 0,-0.25 c -0.171875,0.015625 -0.34375,0.03125 -0.53125,0.03125 -0.1875,0 -0.4375,-0.015625 -0.625,-0.03125 l 0,0.25 c 0.296875,0.015625 0.296875,0.234375 0.296875,0.265625 0,0.03125 -0.015625,0.09375 -0.0625,0.203125 L 2.25,-0.5625 1.375,-2.453125 C 1.375,-2.46875 1.34375,-2.546875 1.34375,-2.59375 1.34375,-2.75 1.578125,-2.75 1.6875,-2.75 l 0,-0.25 c -0.015625,0 -0.5,0.03125 -0.78125,0.03125 -0.21875,0 -0.484375,-0.015625 -0.6875,-0.03125 l 0,0.25 c 0.375,0 0.46875,0.015625 0.5625,0.25 l 1.109375,2.421875 C 1.921875,0 1.96875,0.0625 2.078125,0.0625 2.21875,0.0625 2.25,0 2.28125,-0.0625 z m 0,0"
             style="stroke:none"
             inkscape:connector-curvature="0" />
        </symbol>
        <symbol
           id="textext-b591bd67-6"
           overflow="visible"
           style="overflow:visible">
          <path
             id="path7715"
             d="m 1.46875,-4.296875 c 0,-0.203125 -0.171875,-0.40625 -0.40625,-0.40625 -0.203125,0 -0.390625,0.171875 -0.390625,0.40625 0,0.25 0.203125,0.40625 0.390625,0.40625 0.234375,0 0.40625,-0.171875 0.40625,-0.40625 z M 0.40625,-3 l 0,0.25 c 0.4375,0 0.5,0.046875 0.5,0.390625 l 0,1.8125 C 0.90625,-0.25 0.84375,-0.25 0.390625,-0.25 l 0,0.25 c 0.015625,0 0.5,-0.03125 0.78125,-0.03125 0.25,0 0.5,0.015625 0.734375,0.03125 l 0,-0.25 C 1.5,-0.25 1.4375,-0.25 1.4375,-0.546875 l 0,-2.53125 z m 0,0"
             style="stroke:none"
             inkscape:connector-curvature="0" />
        </symbol>
        <symbol
           id="textext-b591bd67-7"
           overflow="visible"
           style="overflow:visible">
          <path
             id="path7718"
             d="m 1.40625,-2.75 1.078125,0 0,-0.25 -1.078125,0 0,-1.28125 -0.25,0 c 0,0.625 -0.28125,1.3125 -0.953125,1.328125 l 0,0.203125 0.640625,0 0,1.875 c 0,0.78125 0.59375,0.9375 0.984375,0.9375 0.46875,0 0.78125,-0.390625 0.78125,-0.9375 l 0,-0.390625 -0.234375,0 0,0.375 c 0,0.484375 -0.21875,0.734375 -0.5,0.734375 -0.46875,0 -0.46875,-0.578125 -0.46875,-0.703125 z m 0,0"
             style="stroke:none"
             inkscape:connector-curvature="0" />
        </symbol>
        <symbol
           id="textext-b591bd67-8"
           overflow="visible"
           style="overflow:visible">
          <path
             id="path7721"
             d="M 3.296875,-2.328125 C 3.484375,-2.75 3.84375,-2.75 3.953125,-2.75 l 0,-0.25 c -0.1875,0.015625 -0.328125,0.03125 -0.53125,0.03125 -0.1875,0 -0.4375,-0.015625 -0.625,-0.03125 l 0,0.25 c 0.234375,0.015625 0.28125,0.15625 0.28125,0.265625 0,0.078125 -0.03125,0.140625 -0.0625,0.21875 L 2.25,-0.625 1.390625,-2.453125 C 1.359375,-2.5 1.34375,-2.546875 1.34375,-2.59375 1.34375,-2.75 1.578125,-2.75 1.703125,-2.75 l 0,-0.25 C 1.59375,-3 1.09375,-2.96875 0.90625,-2.96875 0.6875,-2.96875 0.421875,-2.984375 0.21875,-3 l 0,0.25 c 0.390625,0 0.46875,0.015625 0.5625,0.234375 L 1.953125,0 c -0.0625,0.140625 -0.125,0.265625 -0.1875,0.40625 -0.15625,0.34375 -0.375,0.8125 -0.859375,0.8125 -0.171875,0 -0.21875,-0.03125 -0.296875,-0.078125 0.015625,0 0.203125,-0.0625 0.203125,-0.296875 0,-0.171875 -0.125,-0.296875 -0.296875,-0.296875 -0.1875,0 -0.3125,0.125 -0.3125,0.296875 0,0.328125 0.328125,0.578125 0.703125,0.578125 0.59375,0 0.9375,-0.625 1.03125,-0.828125 z m 0,0"
             style="stroke:none"
             inkscape:connector-curvature="0" />
        </symbol>
      </g>
    </defs>
    <g
       id="textext-b591bd67-9">
      <g
         id="g7724"
         style="fill:#000000;fill-opacity:1">
        <use
           id="use7726"
           y="134.765"
           x="223.43201"
           xlink:href="#textext-b591bd67-0"
           width="297.63779"
           height="219.68503" />
      </g>
      <g
         id="g7728"
         style="fill:#000000;fill-opacity:1">
        <use
           id="use7730"
           y="134.765"
           x="226.2"
           xlink:href="#textext-b591bd67-2"
           width="297.63779"
           height="219.68503" />
      </g>
      <g
         id="g7732"
         style="fill:#000000;fill-opacity:1">
        <use
           id="use7734"
           y="134.765"
           x="234.12801"
           xlink:href="#textext-b591bd67-1"
           width="297.63779"
           height="219.68503" />
      </g>
      <g
         id="g7736"
         style="fill:#000000;fill-opacity:1">
        <use
           id="use7738"
           y="137.754"
           x="238.002"
           xlink:href="#textext-b591bd67-3"
           width="297.63779"
           height="219.68503" />
        <use
           id="use7740"
           y="137.754"
           x="241.54399"
           xlink:href="#textext-b591bd67-4"
           width="297.63779"
           height="219.68503" />
      </g>
      <g
         id="g7742"
         style="fill:#000000;fill-opacity:1">
        <use
           id="use7744"
           y="137.754"
           x="245.29938"
           xlink:href="#textext-b591bd67-5"
           width="297.63779"
           height="219.68503" />
        <use
           id="use7746"
           y="137.754"
           x="249.48506"
           xlink:href="#textext-b591bd67-6"
           width="297.63779"
           height="219.68503" />
        <use
           id="use7748"
           y="137.754"
           x="251.74039"
           xlink:href="#textext-b591bd67-7"
           width="297.63779"
           height="219.68503" />
      </g>
      <g
         id="g7750"
         style="fill:#000000;fill-opacity:1">
        <use
           id="use7752"
           y="137.754"
           x="254.64427"
           xlink:href="#textext-b591bd67-8"
           width="297.63779"
           height="219.68503" />
      </g>
    </g>
  </g>
  <g
     transform="matrix(2.8082391,0,0,2.8082391,-371.44214,-265.62936)"
     ns0:text="$1$"
     ns0:preamble="/home/nicolas/git/thesis/macros.tex"
     id="g8233">
    <defs
       id="defs8235">
      <g
         id="g8237">
        <symbol
           style="overflow:visible"
           overflow="visible"
           id="textext-f586e0c7-0">
          <path
             inkscape:connector-curvature="0"
             style="stroke:none"
             d="m 2.9375,-6.375 c 0,-0.25 0,-0.265625 -0.234375,-0.265625 C 2.078125,-6 1.203125,-6 0.890625,-6 l 0,0.3125 c 0.203125,0 0.78125,0 1.296875,-0.265625 l 0,5.171875 c 0,0.359375 -0.03125,0.46875 -0.921875,0.46875 l -0.3125,0 0,0.3125 c 0.34375,-0.03125 1.203125,-0.03125 1.609375,-0.03125 0.390625,0 1.265625,0 1.609375,0.03125 l 0,-0.3125 -0.3125,0 c -0.90625,0 -0.921875,-0.109375 -0.921875,-0.46875 z m 0,0"
             id="path8240" />
        </symbol>
      </g>
    </defs>
    <g
       id="textext-f586e0c7-1">
      <g
         style="fill:#000000;fill-opacity:1"
         id="g8243">
        <use
           height="219.68503"
           width="297.63779"
           xlink:href="#textext-f586e0c7-0"
           x="223.43201"
           y="134.765"
           id="use8245" />
      </g>
    </g>
  </g>
  <g
     id="g8792"
     transform="matrix(2.8082391,0,0,2.8082391,-154.16472,-259.32445)"
     ns0:preamble="/home/nicolas/git/thesis/macros.tex"
     ns0:text="$2$">
    <defs
       id="defs8794">
      <g
         id="g8796">
        <symbol
           id="textext-255f2c62-0"
           overflow="visible"
           style="overflow:visible">
          <path
             id="path8799"
             d="m 1.265625,-0.765625 1.0625,-1.03125 c 1.546875,-1.375 2.140625,-1.90625 2.140625,-2.90625 0,-1.140625 -0.890625,-1.9375 -2.109375,-1.9375 -1.125,0 -1.859375,0.921875 -1.859375,1.8125 0,0.546875 0.5,0.546875 0.53125,0.546875 0.171875,0 0.515625,-0.109375 0.515625,-0.53125 0,-0.25 -0.1875,-0.515625 -0.53125,-0.515625 -0.078125,0 -0.09375,0 -0.125,0.015625 0.21875,-0.65625 0.765625,-1.015625 1.34375,-1.015625 0.90625,0 1.328125,0.8125 1.328125,1.625 C 3.5625,-3.90625 3.078125,-3.125 2.515625,-2.5 l -1.90625,2.125 C 0.5,-0.265625 0.5,-0.234375 0.5,0 l 3.703125,0 0.265625,-1.734375 -0.234375,0 C 4.171875,-1.4375 4.109375,-1 4,-0.84375 3.9375,-0.765625 3.28125,-0.765625 3.0625,-0.765625 z m 0,0"
             style="stroke:none"
             inkscape:connector-curvature="0" />
        </symbol>
      </g>
    </defs>
    <g
       id="textext-255f2c62-1">
      <g
         id="g8802"
         style="fill:#000000;fill-opacity:1">
        <use
           id="use8804"
           y="134.765"
           x="223.43201"
           xlink:href="#textext-255f2c62-0"
           width="297.63779"
           height="219.68503" />
      </g>
    </g>
  </g>
  <g
     ns0:text="$3$"
     ns0:preamble="/home/nicolas/git/thesis/macros.tex"
     transform="matrix(2.8082391,0,0,2.8082391,-369.01717,-191.42521)"
     id="g9320">
    <defs
       id="defs9322">
      <g
         id="g9324">
        <symbol
           overflow="visible"
           id="textext-315f3b32-0"
           style="overflow:visible">
          <path
             style="stroke:none"
             d="m 2.890625,-3.515625 c 0.8125,-0.265625 1.390625,-0.953125 1.390625,-1.75 0,-0.8125 -0.875,-1.375 -1.828125,-1.375 -1,0 -1.765625,0.59375 -1.765625,1.359375 0,0.328125 0.21875,0.515625 0.515625,0.515625 0.296875,0 0.5,-0.21875 0.5,-0.515625 0,-0.484375 -0.46875,-0.484375 -0.609375,-0.484375 0.296875,-0.5 0.953125,-0.625 1.3125,-0.625 0.421875,0 0.96875,0.21875 0.96875,1.109375 0,0.125 -0.03125,0.703125 -0.28125,1.140625 C 2.796875,-3.65625 2.453125,-3.625 2.203125,-3.625 2.125,-3.609375 1.890625,-3.59375 1.8125,-3.59375 c -0.078125,0.015625 -0.140625,0.03125 -0.140625,0.125 0,0.109375 0.0625,0.109375 0.234375,0.109375 l 0.4375,0 c 0.8125,0 1.1875,0.671875 1.1875,1.65625 0,1.359375 -0.6875,1.640625 -1.125,1.640625 -0.4375,0 -1.1875,-0.171875 -1.53125,-0.75 0.34375,0.046875 0.65625,-0.171875 0.65625,-0.546875 0,-0.359375 -0.265625,-0.5625 -0.546875,-0.5625 -0.25,0 -0.5625,0.140625 -0.5625,0.578125 0,0.90625 0.921875,1.5625 2.015625,1.5625 1.21875,0 2.125,-0.90625 2.125,-1.921875 0,-0.8125 -0.640625,-1.59375 -1.671875,-1.8125 z m 0,0"
             id="path9327"
             inkscape:connector-curvature="0" />
        </symbol>
      </g>
    </defs>
    <g
       id="textext-315f3b32-1">
      <g
         style="fill:#000000;fill-opacity:1"
         id="g9330">
        <use
           xlink:href="#textext-315f3b32-0"
           x="223.43201"
           y="134.765"
           id="use9332"
           width="297.63779"
           height="219.68503" />
      </g>
    </g>
  </g>
  <g
     id="g9848"
     transform="matrix(2.8082391,0,0,2.8082391,-156.39569,-188.51522)"
     ns0:preamble="/home/nicolas/git/thesis/macros.tex"
     ns0:text="$4$">
    <defs
       id="defs9850">
      <g
         id="g9852">
        <symbol
           id="textext-138f2d3a-0"
           overflow="visible"
           style="overflow:visible">
          <path
             id="path9855"
             d="m 2.9375,-1.640625 0,0.859375 c 0,0.359375 -0.03125,0.46875 -0.765625,0.46875 l -0.203125,0 0,0.3125 C 2.375,-0.03125 2.890625,-0.03125 3.3125,-0.03125 c 0.421875,0 0.9375,0 1.359375,0.03125 l 0,-0.3125 -0.21875,0 c -0.734375,0 -0.75,-0.109375 -0.75,-0.46875 l 0,-0.859375 0.984375,0 0,-0.3125 -0.984375,0 0,-4.53125 c 0,-0.203125 0,-0.265625 -0.171875,-0.265625 -0.078125,0 -0.109375,0 -0.1875,0.125 l -3.0625,4.671875 0,0.3125 z m 0.046875,-0.3125 -2.421875,0 2.421875,-3.71875 z m 0,0"
             style="stroke:none"
             inkscape:connector-curvature="0" />
        </symbol>
      </g>
    </defs>
    <g
       id="textext-138f2d3a-1">
      <g
         id="g9858"
         style="fill:#000000;fill-opacity:1">
        <use
           id="use9860"
           y="134.765"
           x="223.43201"
           xlink:href="#textext-138f2d3a-0"
           width="297.63779"
           height="219.68503" />
      </g>
    </g>
  </g>
</svg>
