<?xml version="1.0" encoding="UTF-8" standalone="no"?>
<!-- Created with Inkscape (http://www.inkscape.org/) -->

<svg
   xmlns:dc="http://purl.org/dc/elements/1.1/"
   xmlns:cc="http://creativecommons.org/ns#"
   xmlns:rdf="http://www.w3.org/1999/02/22-rdf-syntax-ns#"
   xmlns:svg="http://www.w3.org/2000/svg"
   xmlns="http://www.w3.org/2000/svg"
   xmlns:sodipodi="http://sodipodi.sourceforge.net/DTD/sodipodi-0.dtd"
   xmlns:inkscape="http://www.inkscape.org/namespaces/inkscape"
   width="494.9375"
   height="138.38863"
   id="svg4370"
   version="1.1"
   inkscape:version="0.48.2 r9819"
   sodipodi:docname="magffblockdiag.svg">
  <defs
     id="defs4372" />
  <sodipodi:namedview
     id="base"
     pagecolor="#ffffff"
     bordercolor="#666666"
     borderopacity="1.0"
     inkscape:pageopacity="0.0"
     inkscape:pageshadow="2"
     inkscape:zoom="0.7"
     inkscape:cx="248.43228"
     inkscape:cy="-50.948778"
     inkscape:document-units="px"
     inkscape:current-layer="layer1"
     showgrid="false"
     fit-margin-top="0"
     fit-margin-left="0"
     fit-margin-right="0"
     fit-margin-bottom="0"
     inkscape:window-width="1024"
     inkscape:window-height="576"
     inkscape:window-x="0"
     inkscape:window-y="24"
     inkscape:window-maximized="1" />
  <metadata
     id="metadata4375">
    <rdf:RDF>
      <cc:Work
         rdf:about="">
        <dc:format>image/svg+xml</dc:format>
        <dc:type
           rdf:resource="http://purl.org/dc/dcmitype/StillImage" />
        <dc:title></dc:title>
      </cc:Work>
    </rdf:RDF>
  </metadata>
  <g
     inkscape:label="Layer 1"
     inkscape:groupmode="layer"
     id="layer1"
     transform="translate(-23.5,-28.59375)">
    <rect
       style="fill:none;stroke:#ff0000;stroke-width:4.57451487;stroke-miterlimit:4;stroke-opacity:1;stroke-dasharray:none;stroke-dashoffset:0"
       id="rect4378"
       width="29.889324"
       height="38.053291"
       x="25.775549"
       y="30.891979" />
    <path
       style="fill:none;stroke:#000000;stroke-width:0.65350205px;stroke-linecap:butt;stroke-linejoin:miter;stroke-opacity:1"
       d="m 56.695541,43.576411 c 4.705095,0.444612 8.837077,2.550818 13.398664,3.382514 4.080004,0.743893 8.214023,1.312569 12.367998,1.691258 2.048719,0.186768 4.155912,-0.302541 6.183993,0 3.640529,0.543078 6.694574,2.723935 10.306664,3.382515 1.3415,0.24459 2.76226,-0.159453 4.12266,0 1.07551,0.126059 2.03802,0.629439 3.09201,0.845628 0.33329,0.06837 0.72338,-0.126059 1.03067,0 0.43456,0.178275 0.59609,0.667355 1.03066,0.84563 0.61457,0.252117 1.44677,-0.252119 2.06133,0 1.2368,0.507377 1.85521,2.029508 3.092,2.536885 0.30729,0.126059 0.72338,-0.126059 1.03067,0 0.43457,0.178274 0.68711,0.563753 1.03066,0.845629 0.34355,0.281876 0.81338,0.48908 1.03067,0.845629 0.15364,0.252118 -0.24292,0.646312 0,0.845628 0.24292,0.199318 0.87702,-0.252117 1.03067,0 0.30727,0.504236 -0.30728,1.187022 0,1.691258 0.15364,0.252118 0.78773,-0.199316 1.03067,0 0.48586,0.398633 -0.48587,1.292624 0,1.691257 0.24293,0.199317 0.87703,-0.252117 1.03067,0 0.30727,0.504236 -0.2173,1.156435 0,1.691258 0.15364,0.378177 0.87702,0.467452 1.03066,0.845629 0.19544,0.481046 0,3.431698 0,4.228143 0,1.106659 0.23247,3.274438 0,4.228142 -0.21307,0.874064 -0.76717,1.67213 -1.03066,2.536889 -0.0833,0.273459 0.15364,0.593509 0,0.845628 -2.35849,3.870111 0.42717,-3.588352 -2.06134,2.536884 -0.10874,0.267415 0.10862,0.578219 0,0.845628 -0.24293,0.597954 -0.68712,1.12751 -1.03067,1.691261 -0.34355,0.563749 -0.63542,1.150782 -1.03067,1.69126 -0.6373,0.871487 -1.60129,1.593255 -2.06133,2.536881 -0.25518,0.523436 0.21729,1.156434 0,1.691262 -0.15364,0.378175 -0.76116,0.513946 -1.03066,0.845627 -0.42613,0.524435 -0.60454,1.166818 -1.03067,1.691254 -0.26951,0.33168 -0.68711,0.563751 -1.03067,0.845627 -0.34355,0.563751 -0.60454,1.166826 -1.03066,1.691262 -0.26951,0.33168 -0.87703,0.467452 -1.03067,0.845627 -0.21729,0.534827 0.30729,1.187028 0,1.691261 -0.15364,0.252117 -0.72338,-0.126065 -1.03066,0 -0.43458,0.178271 -0.81339,0.489078 -1.03067,0.845627 -0.30729,0.504234 0.30728,1.187021 0,1.691255 -0.21728,0.356549 -0.76116,0.513946 -1.03067,0.845634 -3.00099,3.693319 0.4568,-0.278737 -1.03066,3.382509 -0.15365,0.37818 -0.81339,0.48908 -1.03068,0.84563 -0.15683,0.25735 0,2.15605 0,2.53689 0,0.56375 -0.21728,1.15643 0,1.69126 0.30729,0.75635 1.62677,0.97816 2.06134,1.69125 0.15364,0.25212 -0.24293,0.64631 0,0.84564 0.24293,0.1993 0.72338,-0.12606 1.03067,0 0.43457,0.17826 0.56973,0.71956 1.03067,0.84562 0.65185,0.17827 1.44676,-0.25211 2.06133,0 0.30728,0.12606 -0.24293,0.64631 0,0.84563 0.24293,0.19932 0.68711,0 1.03066,0 2.06134,0 4.12267,0 6.184,0 0.34355,0 0.72339,0.12606 1.03067,0 0.43456,-0.17828 0.5961,-0.66736 1.03067,-0.84563 0.30727,-0.12606 0.6871,0 1.03067,0 0.34355,0 0.6871,0 1.03066,0 1.71778,0 3.43555,0 5.15334,0 2.74844,0 5.49687,0 8.24532,0 0.34355,0 0.78774,0.19931 1.03067,0 0.24293,-0.19932 0,-0.56375 0,-0.84562"
       id="path4380"
       inkscape:connector-curvature="0" />
    <path
       sodipodi:type="star"
       style="fill:none;stroke:#ff0000;stroke-width:7;stroke-miterlimit:4;stroke-opacity:1;stroke-dasharray:none;stroke-dashoffset:0"
       id="path4386"
       sodipodi:sides="3"
       sodipodi:cx="357.14285"
       sodipodi:cy="170.93361"
       sodipodi:r1="90.226471"
       sodipodi:r2="45.113235"
       sodipodi:arg1="-2.0943951"
       sodipodi:arg2="-1.0471976"
       inkscape:flatsided="true"
       inkscape:rounded="0"
       inkscape:randomized="0"
       d="m 312.02962,92.795193 135.3397,78.138417 -135.3397,78.13841 z"
       inkscape:transform-center-x="-16.273842"
       transform="matrix(0.72146647,0,0,0.59194011,-91.720423,15.96365)" />
    <text
       xml:space="preserve"
       style="font-size:26.14008141px;font-style:normal;font-weight:normal;line-height:125%;letter-spacing:0px;word-spacing:0px;fill:#000000;fill-opacity:1;stroke:none;font-family:Sans"
       x="126.04059"
       y="133.06363"
       id="text4388"
       sodipodi:linespacing="125%"
       transform="scale(1.1040003,0.90579685)"><tspan
         sodipodi:role="line"
         id="tspan4390"
         x="126.04059"
         y="133.06363">ADC</tspan></text>
    <path
       style="fill:none;stroke:#000000;stroke-width:0.65350205px;stroke-linecap:butt;stroke-linejoin:miter;stroke-opacity:1"
       d="m 232.93948,114.60922 c 1.7178,0 3.43556,0 5.15335,0 2.74844,0 5.49689,0 8.24532,0 13.74223,0 27.48444,0 41.22667,0 4.12266,0 8.24531,0 12.36798,0 0.53896,0 3.85167,-0.11117 4.12267,0 0.43458,0.17828 0.5961,0.66736 1.03067,0.84563 1.82452,0.74848 0.35219,-1.25781 2.06134,0.84563 1.52074,1.87159 0.41722,1.91948 3.09199,3.38252 0.28587,0.15636 0.78774,-0.19933 1.03066,0 0.24294,0.19931 -0.15364,0.59351 0,0.84562 0.21729,0.35655 0.8134,0.48909 1.03067,0.84564 0.15365,0.25211 -0.24291,0.64631 0,0.84562 1.37423,1.12751 1.03066,-1.40938 1.03066,0.84563"
       id="path4392"
       inkscape:connector-curvature="0" />
    <rect
       style="fill:none;stroke:#ff0000;stroke-width:4.57451487;stroke-miterlimit:4;stroke-opacity:1;stroke-dasharray:none;stroke-dashoffset:0"
       id="rect4394"
       width="107.18931"
       height="52.428978"
       x="304.05548"
       y="97.696655" />
    <path
       style="fill:none;stroke:#000000;stroke-width:0.65350205px;stroke-linecap:butt;stroke-linejoin:miter;stroke-opacity:1"
       d="m 410.21412,120.52862 c 1.71776,0.28188 3.43555,0.56375 5.15332,0.84564 1.03067,0 2.07537,-0.13902 3.092,0 1.07164,0.14653 2.02037,0.69908 3.09201,0.84562 1.01663,0.13902 2.07535,-0.13902 3.092,0 1.07163,0.14654 2.02036,0.69909 3.09199,0.84563 1.01665,0.13902 2.06556,-0.0766 3.092,0 2.75845,0.20575 5.48506,0.6569 8.24533,0.84563 2.66347,0.1821 5.55022,0 8.24533,0 2.4049,0 4.80978,0 7.21466,0 0.46418,0 2.77834,0.12867 3.09201,0 0.86912,-0.35655 1.13948,-1.43915 2.06134,-1.69126 0.65185,-0.17827 1.42336,0.20938 2.06133,0 0.43922,-0.14415 3.41517,-1.66616 4.12265,-2.53688 0.42614,-0.52444 0.60454,-1.16682 1.03067,-1.69126 0.88555,-1.08983 3.11438,-2.27949 4.12267,-3.38252 0.74321,-0.81305 1.31811,-1.72383 2.06134,-2.53688 0.29152,-0.31891 0.76115,-0.51395 1.03065,-0.84563 3.47116,-4.27195 0.008,-0.0196 1.03066,-2.53689 0.24295,-0.59794 0.78775,-1.09331 1.03069,-1.69125 0.10873,-0.26742 -0.15365,-0.59351 0,-0.84563 2.4335,-3.99322 -0.54205,5.16138 2.06133,-3.38252 0.16665,-0.54691 -0.3073,-1.18702 0,-1.69126 0.43456,-0.7131 1.62676,-0.97815 2.06133,-1.691252 0.30729,-0.504241 -0.21729,-1.156442 0,-1.691261 0.24293,-0.597946 0.78773,-1.093309 1.03066,-1.691255 0.1337,-0.329056 -0.15995,-2.405656 0,-2.536888 0.24293,-0.199316 0.78774,0.199322 1.03067,0 0.24801,-0.203483 -0.24801,-3.179026 0,-3.382516 0.24293,-0.199316 0.78773,0.199323 1.03066,0 0.48587,-0.398631 -0.48585,-1.292624 0,-1.691254 0.24293,-0.199316 0.78776,0.199315 1.03068,0 0.48585,-0.398638 -0.48587,-1.292624 0,-1.691255 0.48585,-0.398638 1.57547,0.398631 2.06133,0 0.24293,-0.199322 -0.24294,-0.646319 0,-0.845634 0.48586,-0.398631 1.44676,0.252117 2.06132,0 0.43458,-0.178271 0.59611,-0.667356 1.03068,-0.845627 0.30728,-0.126059 0.78773,0.199315 1.03066,0 0.24293,-0.199316 -0.24293,-0.646312 0,-0.845627 0.48586,-0.398631 1.44677,0.252116 2.06132,0 4.71698,-1.935052 -4.37354,0.350488 3.09202,-1.691262 0.32592,-0.08913 0.70474,0.08913 1.03066,0 0.72879,-0.199315 1.33253,-0.646304 2.06133,-0.845625 0.65185,-0.178274 1.44676,0.252122 2.06133,0 0.43457,-0.178274 0.5961,-0.667353 1.03066,-0.845628 0.3073,-0.126059 0.70475,0.08913 1.03068,0 0.7288,-0.199318 1.33253,-0.646315 2.06133,-0.845633 0.32593,-0.08913 0.72338,0.126059 1.03066,0 0.43458,-0.178269 0.59611,-0.667354 1.03067,-0.845628 0.61458,-0.252113 1.44676,0.252119 2.06134,0 0.43457,-0.178275 0.59609,-0.667354 1.03067,-0.845628 0.30728,-0.12606 0.78773,0.199318 1.03067,0 0.24293,-0.199318 -0.24294,-0.64631 0,-0.845628 0.21069,-0.172876 2.68334,0.167643 3.09198,0 0.43457,-0.178275 0.59611,-0.667353 1.03067,-0.845628 0.61457,-0.252119 1.57547,0.39863 2.06133,0 1.37422,-1.127503 -1.71777,-0.845628 1.03067,-0.845628"
       id="path4396"
       inkscape:connector-curvature="0" />
  </g>
</svg>
