<?xml version="1.0" encoding="UTF-8" standalone="no"?>
<!-- Created with Inkscape (http://www.inkscape.org/) -->

<svg
   xmlns:dc="http://purl.org/dc/elements/1.1/"
   xmlns:cc="http://creativecommons.org/ns#"
   xmlns:rdf="http://www.w3.org/1999/02/22-rdf-syntax-ns#"
   xmlns:svg="http://www.w3.org/2000/svg"
   xmlns="http://www.w3.org/2000/svg"
   xmlns:sodipodi="http://sodipodi.sourceforge.net/DTD/sodipodi-0.dtd"
   xmlns:inkscape="http://www.inkscape.org/namespaces/inkscape"
   width="272.46875"
   height="326.69424"
   id="svg3776"
   version="1.1"
   inkscape:version="0.48.2 r9819"
   sodipodi:docname="New document 4">
  <defs
     id="defs3778" />
  <sodipodi:namedview
     id="base"
     pagecolor="#ffffff"
     bordercolor="#666666"
     borderopacity="1.0"
     inkscape:pageopacity="0.0"
     inkscape:pageshadow="2"
     inkscape:zoom="0.7"
     inkscape:cx="281.90217"
     inkscape:cy="40.248536"
     inkscape:document-units="px"
     inkscape:current-layer="layer1"
     showgrid="false"
     fit-margin-top="0"
     fit-margin-left="0"
     fit-margin-right="0"
     fit-margin-bottom="0"
     inkscape:window-width="1024"
     inkscape:window-height="576"
     inkscape:window-x="0"
     inkscape:window-y="24"
     inkscape:window-maximized="1" />
  <metadata
     id="metadata3781">
    <rdf:RDF>
      <cc:Work
         rdf:about="">
        <dc:format>image/svg+xml</dc:format>
        <dc:type
           rdf:resource="http://purl.org/dc/dcmitype/StillImage" />
        <dc:title></dc:title>
      </cc:Work>
    </rdf:RDF>
  </metadata>
  <g
     inkscape:label="Layer 1"
     inkscape:groupmode="layer"
     id="layer1"
     transform="translate(-13.21875,-32.21875)">
    <path
       sodipodi:nodetypes="cc"
       inkscape:connector-curvature="0"
       id="path4309"
       d="M 199.79823,48.697638 C 199.19368,158.78563 271.27657,162.46384 270.41957,244.69745"
       style="fill:none;stroke:#000000;stroke-width:4.29869032;stroke-linecap:butt;stroke-linejoin:miter;stroke-miterlimit:4;stroke-opacity:1;stroke-dasharray:none" />
    <path
       style="fill:none;stroke:#000000;stroke-width:4.29869032;stroke-linecap:butt;stroke-linejoin:miter;stroke-miterlimit:4;stroke-opacity:1;stroke-dasharray:none"
       d="M 101.34155,48.697638 C 101.94609,158.78563 29.863201,162.46384 30.720208,244.69745"
       id="path3784"
       inkscape:connector-curvature="0"
       sodipodi:nodetypes="cc" />
    <rect
       style="fill:none;stroke:#ff0000;stroke-width:4.29869032;stroke-miterlimit:4;stroke-opacity:1;stroke-dasharray:none;stroke-dashoffset:0"
       id="rect4307"
       width="137.1487"
       height="28.657936"
       x="80.87159"
       y="34.368671" />
    <path
       sodipodi:type="arc"
       style="fill:none;stroke:#ff0000;stroke-width:6;stroke-miterlimit:4;stroke-opacity:1;stroke-dasharray:none;stroke-dashoffset:0"
       id="path4311"
       sodipodi:cx="305"
       sodipodi:cy="378.79074"
       sodipodi:rx="135"
       sodipodi:ry="135"
       d="m 440,378.79074 c 0,74.55844 -60.44156,135 -135,135 -74.55844,0 -135,-60.44156 -135,-135 0,-74.55844 60.44156,-135 135,-135 74.55844,0 135,60.44156 135,135 z"
       transform="matrix(0.7164484,0,0,0.7164484,-66.512075,-11.334113)" />
    <rect
       style="fill:none;stroke:#ff0000;stroke-width:4.29869032;stroke-miterlimit:4;stroke-opacity:1;stroke-dasharray:none;stroke-dashoffset:0"
       id="rect4313"
       width="34.798923"
       height="33.775425"
       x="15.367742"
       y="240.09171" />
    <rect
       style="fill:none;stroke:#ff0000;stroke-width:4.29869032;stroke-miterlimit:4;stroke-opacity:1;stroke-dasharray:none;stroke-dashoffset:0"
       id="rect4315"
       width="32.751926"
       height="32.751926"
       x="250.77222"
       y="237.02122" />
    <path
       sodipodi:type="arc"
       style="fill:none;stroke:#ff0000;stroke-width:6;stroke-miterlimit:4;stroke-opacity:1;stroke-dasharray:none;stroke-dashoffset:0"
       id="path4317"
       sodipodi:cx="188.57143"
       sodipodi:cy="279.50504"
       sodipodi:rx="15.714286"
       sodipodi:ry="15.714286"
       d="m 204.28571,279.50504 c 0,8.67876 -7.03552,15.71428 -15.71428,15.71428 -8.67876,0 -15.71429,-7.03552 -15.71429,-15.71428 0,-8.67877 7.03553,-15.71429 15.71429,-15.71429 8.67876,0 15.71428,7.03552 15.71428,15.71429 z"
       transform="matrix(0.7164484,0,0,0.7164484,-37.854139,9.1358414)" />
    <path
       d="m 204.28571,279.50504 c 0,8.67876 -7.03552,15.71428 -15.71428,15.71428 -8.67876,0 -15.71429,-7.03552 -15.71429,-15.71428 0,-8.67877 7.03553,-15.71429 15.71429,-15.71429 8.67876,0 15.71428,7.03552 15.71428,15.71429 z"
       sodipodi:ry="15.714286"
       sodipodi:rx="15.714286"
       sodipodi:cy="279.50504"
       sodipodi:cx="188.57143"
       id="path4319"
       style="fill:none;stroke:#ff0000;stroke-width:6;stroke-miterlimit:4;stroke-opacity:1;stroke-dasharray:none;stroke-dashoffset:0"
       sodipodi:type="arc"
       transform="matrix(0.7164484,0,0,0.7164484,76.777605,9.1358414)" />
    <path
       transform="matrix(0.7164484,0,0,0.7164484,76.777605,108.00572)"
       sodipodi:type="arc"
       style="fill:none;stroke:#ff0000;stroke-width:6;stroke-miterlimit:4;stroke-opacity:1;stroke-dasharray:none;stroke-dashoffset:0"
       id="path4321"
       sodipodi:cx="188.57143"
       sodipodi:cy="279.50504"
       sodipodi:rx="15.714286"
       sodipodi:ry="15.714286"
       d="m 204.28571,279.50504 c 0,8.67876 -7.03552,15.71428 -15.71428,15.71428 -8.67876,0 -15.71429,-7.03552 -15.71429,-15.71428 0,-8.67877 7.03553,-15.71429 15.71429,-15.71429 8.67876,0 15.71428,7.03552 15.71428,15.71429 z" />
    <path
       d="m 204.28571,279.50504 c 0,8.67876 -7.03552,15.71428 -15.71428,15.71428 -8.67876,0 -15.71429,-7.03552 -15.71429,-15.71428 0,-8.67877 7.03553,-15.71429 15.71429,-15.71429 8.67876,0 15.71428,7.03552 15.71428,15.71429 z"
       sodipodi:ry="15.714286"
       sodipodi:rx="15.714286"
       sodipodi:cy="279.50504"
       sodipodi:cx="188.57143"
       id="path4323"
       style="fill:none;stroke:#ff0000;stroke-width:6;stroke-miterlimit:4;stroke-opacity:1;stroke-dasharray:none;stroke-dashoffset:0"
       sodipodi:type="arc"
       transform="matrix(0.7164484,0,0,0.7164484,-42.152829,108.00572)" />
    <g
       id="g4331"
       transform="matrix(0.7164484,0,0,0.7164484,-37.854139,9.1358414)">
      <path
         inkscape:connector-curvature="0"
         id="path4325"
         d="m -130,215.21933 c 34.285714,0 34.285714,0 34.285714,0"
         style="fill:none;stroke:#000000;stroke-width:7;stroke-linecap:butt;stroke-linejoin:miter;stroke-miterlimit:4;stroke-opacity:1;stroke-dasharray:none" />
      <path
         style="fill:none;stroke:#000000;stroke-width:7;stroke-linecap:butt;stroke-linejoin:miter;stroke-miterlimit:4;stroke-opacity:1;stroke-dasharray:none"
         d="m -112.85714,198.07647 c 0,34.28572 0,34.28572 0,34.28572"
         id="path4327"
         inkscape:connector-curvature="0" />
    </g>
    <path
       inkscape:connector-curvature="0"
       id="path4329"
       d="m -130.99243,203.4505 c 24.56394,0 24.56394,0 24.56394,0"
       style="fill:none;stroke:#000000;stroke-width:5.01513863;stroke-linecap:butt;stroke-linejoin:miter;stroke-miterlimit:4;stroke-opacity:1;stroke-dasharray:none" />
    <g
       id="g4335"
       transform="matrix(0.7164484,0,0,0.7164484,178.10388,55.193238)">
      <path
         style="fill:none;stroke:#000000;stroke-width:7;stroke-linecap:butt;stroke-linejoin:miter;stroke-miterlimit:4;stroke-opacity:1;stroke-dasharray:none"
         d="m -130,215.21933 c 34.285714,0 34.285714,0 34.285714,0"
         id="path4337"
         inkscape:connector-curvature="0" />
      <path
         inkscape:connector-curvature="0"
         id="path4339"
         d="m -112.85714,198.07647 c 0,34.28572 0,34.28572 0,34.28572"
         style="fill:none;stroke:#000000;stroke-width:7;stroke-linecap:butt;stroke-linejoin:miter;stroke-miterlimit:4;stroke-opacity:1;stroke-dasharray:none" />
    </g>
    <g
       transform="matrix(0.7164484,0,0,0.7164484,292.73562,154.47251)"
       id="g4341">
      <path
         inkscape:connector-curvature="0"
         id="path4343"
         d="m -130,215.21933 c 34.285714,0 34.285714,0 34.285714,0"
         style="fill:none;stroke:#000000;stroke-width:7;stroke-linecap:butt;stroke-linejoin:miter;stroke-miterlimit:4;stroke-opacity:1;stroke-dasharray:none" />
      <path
         style="fill:none;stroke:#000000;stroke-width:7;stroke-linecap:butt;stroke-linejoin:miter;stroke-miterlimit:4;stroke-opacity:1;stroke-dasharray:none"
         d="m -112.85714,198.07647 c 0,34.28572 0,34.28572 0,34.28572"
         id="path4345"
         inkscape:connector-curvature="0" />
    </g>
    <path
       style="fill:none;stroke:#000000;stroke-width:5.01513863;stroke-linecap:butt;stroke-linejoin:miter;stroke-miterlimit:4;stroke-opacity:1;stroke-dasharray:none"
       d="m 80.871599,307.84727 c 24.563941,0 24.563941,0 24.563941,0"
       id="path4347"
       inkscape:connector-curvature="0" />
    <path
       inkscape:connector-curvature="0"
       id="path4349"
       d="m 199.59734,209.59148 c 24.56394,0 24.56394,0 24.56394,0"
       style="fill:none;stroke:#000000;stroke-width:5.01513863;stroke-linecap:butt;stroke-linejoin:miter;stroke-miterlimit:4;stroke-opacity:1;stroke-dasharray:none" />
  </g>
</svg>
