<?xml version="1.0" encoding="UTF-8" standalone="no"?>
<!-- Created with Inkscape (http://www.inkscape.org/) -->

<svg
   xmlns:dc="http://purl.org/dc/elements/1.1/"
   xmlns:cc="http://creativecommons.org/ns#"
   xmlns:rdf="http://www.w3.org/1999/02/22-rdf-syntax-ns#"
   xmlns:svg="http://www.w3.org/2000/svg"
   xmlns="http://www.w3.org/2000/svg"
   xmlns:xlink="http://www.w3.org/1999/xlink"
   xmlns:sodipodi="http://sodipodi.sourceforge.net/DTD/sodipodi-0.dtd"
   xmlns:inkscape="http://www.inkscape.org/namespaces/inkscape"
   width="270.78125"
   height="312.81924"
   id="svg3776"
   version="1.1"
   inkscape:version="0.48.2 r9819"
   sodipodi:docname="ttdiag.svg">
  <defs
     id="defs3778">
    <linearGradient
       id="linearGradient6081">
      <stop
         id="stop6083"
         offset="0"
         style="stop-color:#9adcdc;stop-opacity:1;" />
      <stop
         id="stop6085"
         offset="1"
         style="stop-color:#7fbcb2;stop-opacity:1;" />
    </linearGradient>
    <linearGradient
       id="linearGradient6053">
      <stop
         style="stop-color:#dcdcdc;stop-opacity:1;"
         offset="0"
         id="stop6055" />
      <stop
         style="stop-color:#a5a5a5;stop-opacity:1;"
         offset="1"
         id="stop6057" />
    </linearGradient>
    <linearGradient
       inkscape:collect="always"
       xlink:href="#linearGradient6053"
       id="linearGradient6059"
       x1="79.87159"
       y1="48.697639"
       x2="219.02029"
       y2="48.697639"
       gradientUnits="userSpaceOnUse" />
    <linearGradient
       inkscape:collect="always"
       xlink:href="#linearGradient6053"
       id="linearGradient6067"
       x1="14.367742"
       y1="244.97942"
       x2="51.166664"
       y2="244.97942"
       gradientUnits="userSpaceOnUse"
       gradientTransform="translate(2,0)" />
    <linearGradient
       inkscape:collect="always"
       xlink:href="#linearGradient6053"
       id="linearGradient6071"
       gradientUnits="userSpaceOnUse"
       x1="14.367742"
       y1="244.97942"
       x2="51.166664"
       y2="244.97942"
       gradientTransform="translate(236,0)" />
    <radialGradient
       inkscape:collect="always"
       xlink:href="#linearGradient6053"
       id="radialGradient6079"
       cx="305"
       cy="378.79074"
       fx="305"
       fy="378.79074"
       r="138"
       gradientUnits="userSpaceOnUse" />
    <radialGradient
       inkscape:collect="always"
       xlink:href="#linearGradient6081"
       id="radialGradient6089"
       gradientUnits="userSpaceOnUse"
       cx="305"
       cy="378.79074"
       fx="305"
       fy="378.79074"
       r="138" />
  </defs>
  <sodipodi:namedview
     id="base"
     pagecolor="#ffffff"
     bordercolor="#666666"
     borderopacity="1.0"
     inkscape:pageopacity="0.0"
     inkscape:pageshadow="2"
     inkscape:zoom="1.979899"
     inkscape:cx="105.34022"
     inkscape:cy="116.775"
     inkscape:document-units="px"
     inkscape:current-layer="layer1"
     showgrid="false"
     fit-margin-top="0"
     fit-margin-left="0"
     fit-margin-right="0"
     fit-margin-bottom="0"
     inkscape:window-width="1024"
     inkscape:window-height="576"
     inkscape:window-x="0"
     inkscape:window-y="24"
     inkscape:window-maximized="1" />
  <metadata
     id="metadata3781">
    <rdf:RDF>
      <cc:Work
         rdf:about="">
        <dc:format>image/svg+xml</dc:format>
        <dc:type
           rdf:resource="http://purl.org/dc/dcmitype/StillImage" />
        <dc:title />
      </cc:Work>
    </rdf:RDF>
  </metadata>
  <g
     inkscape:label="Layer 1"
     inkscape:groupmode="layer"
     id="layer1"
     transform="translate(-16.375,-34.09375)">
    <rect
       style="fill:url(#linearGradient6067);fill-opacity:1;stroke:#000000;stroke-width:2;stroke-miterlimit:4;stroke-opacity:1;stroke-dasharray:none;stroke-dashoffset:0"
       id="rect4313"
       width="34.798923"
       height="33.775425"
       x="17.367741"
       y="228.09171" />
    <path
       sodipodi:type="arc"
       style="fill:url(#radialGradient6079);fill-opacity:1;stroke:#000000;stroke-width:6;stroke-miterlimit:4;stroke-opacity:1;stroke-dasharray:none;stroke-dashoffset:0"
       id="path4311"
       sodipodi:cx="305"
       sodipodi:cy="378.79074"
       sodipodi:rx="135"
       sodipodi:ry="135"
       d="m 440,378.79074 c 0,74.55844 -60.44156,135 -135,135 -74.55844,0 -135,-60.44156 -135,-135 0,-74.55844 60.44156,-135 135,-135 74.55844,0 135,60.44156 135,135 z"
       transform="matrix(0.7164484,0,0,0.7164484,-66.512075,-23.334113)" />
    <rect
       style="fill:url(#linearGradient6059);fill-opacity:1;stroke:#000000;stroke-width:2;stroke-miterlimit:4;stroke-opacity:1;stroke-dasharray:none;stroke-dashoffset:0"
       id="rect4307"
       width="133.22014"
       height="27.943655"
       x="84.800163"
       y="35.082958" />
    <path
       style="fill:none;stroke:#000000;stroke-width:4.29869032;stroke-linecap:butt;stroke-linejoin:miter;stroke-miterlimit:4;stroke-opacity:1;stroke-dasharray:none"
       d="M 105.09156,48.697638 C 105.6961,158.78563 33.6132,162.46384 34.470207,244.69745"
       id="path3784"
       inkscape:connector-curvature="0"
       sodipodi:nodetypes="cc" />
    <g
       id="g4331"
       transform="matrix(0.7164484,0,0,0.7164484,-37.854139,9.1358414)">
      <path
         inkscape:connector-curvature="0"
         id="path4325"
         d="m -130,215.21933 c 34.285714,0 34.285714,0 34.285714,0"
         style="fill:none;stroke:#000000;stroke-width:7;stroke-linecap:butt;stroke-linejoin:miter;stroke-miterlimit:4;stroke-opacity:1;stroke-dasharray:none" />
      <path
         style="fill:none;stroke:#000000;stroke-width:7;stroke-linecap:butt;stroke-linejoin:miter;stroke-miterlimit:4;stroke-opacity:1;stroke-dasharray:none"
         d="m -112.85714,198.07647 c 0,34.28572 0,34.28572 0,34.28572"
         id="path4327"
         inkscape:connector-curvature="0" />
    </g>
    <path
       inkscape:connector-curvature="0"
       id="path4329"
       d="m -130.99243,203.4505 c 24.56394,0 24.56394,0 24.56394,0"
       style="fill:none;stroke:#000000;stroke-width:5.01513863;stroke-linecap:butt;stroke-linejoin:miter;stroke-miterlimit:4;stroke-opacity:1;stroke-dasharray:none" />
    <rect
       y="228.09171"
       x="251.36774"
       height="33.775425"
       width="34.798923"
       id="rect6069"
       style="fill:url(#linearGradient6071);fill-opacity:1;stroke:#000000;stroke-width:2;stroke-miterlimit:4;stroke-opacity:1;stroke-dasharray:none;stroke-dashoffset:0" />
    <path
       transform="matrix(0.55540959,0,0,0.55540959,-17.395237,37.665898)"
       d="m 440,378.79074 c 0,74.55844 -60.44156,135 -135,135 -74.55844,0 -135,-60.44156 -135,-135 0,-74.55844 60.44156,-135 135,-135 74.55844,0 135,60.44156 135,135 z"
       sodipodi:ry="135"
       sodipodi:rx="135"
       sodipodi:cy="378.79074"
       sodipodi:cx="305"
       id="path6087"
       style="fill:url(#radialGradient6089);fill-opacity:1;stroke:#000000;stroke-width:6;stroke-miterlimit:4;stroke-opacity:1;stroke-dasharray:none;stroke-dashoffset:0"
       sodipodi:type="arc" />
    <path
       sodipodi:type="arc"
       style="fill:#dcdcdc;fill-opacity:1;stroke:#000000;stroke-width:1.39577389;stroke-miterlimit:4;stroke-opacity:1;stroke-dasharray:none;stroke-dashoffset:0"
       id="path4317"
       sodipodi:cx="188.57143"
       sodipodi:cy="279.50504"
       sodipodi:rx="15.714286"
       sodipodi:ry="15.714286"
       d="m 204.28571,279.50504 a 15.714286,15.714286 0 1 1 -31.42857,0 15.714286,15.714286 0 1 1 31.42857,0 z"
       transform="matrix(0.99341882,0,0,0.99341882,-90.082847,-83.309243)" />
    <g
       id="g4335"
       transform="matrix(0.7164484,0,0,0.7164484,178.10388,40.162782)">
      <path
         style="fill:none;stroke:#000000;stroke-width:7;stroke-linecap:butt;stroke-linejoin:miter;stroke-miterlimit:4;stroke-opacity:1;stroke-dasharray:none"
         d="m -130,215.21933 c 34.285714,0 34.285714,0 34.285714,0"
         id="path4337"
         inkscape:connector-curvature="0" />
      <path
         inkscape:connector-curvature="0"
         id="path4339"
         d="m -112.85714,198.07647 c 0,34.28572 0,34.28572 0,34.28572"
         style="fill:none;stroke:#000000;stroke-width:7;stroke-linecap:butt;stroke-linejoin:miter;stroke-miterlimit:4;stroke-opacity:1;stroke-dasharray:none" />
    </g>
    <path
       transform="matrix(0.99341882,0,0,0.99341882,18.947609,-83.309243)"
       d="m 204.28571,279.50504 a 15.714286,15.714286 0 1 1 -31.42857,0 15.714286,15.714286 0 1 1 31.42857,0 z"
       sodipodi:ry="15.714286"
       sodipodi:rx="15.714286"
       sodipodi:cy="279.50504"
       sodipodi:cx="188.57143"
       id="path6091"
       style="fill:#dcdcdc;fill-opacity:1;stroke:#000000;stroke-width:1.39577389;stroke-miterlimit:4;stroke-opacity:1;stroke-dasharray:none;stroke-dashoffset:0"
       sodipodi:type="arc" />
    <g
       transform="matrix(0.7164484,0,0,0.7164484,287.13436,40.162782)"
       id="g6093">
      <path
         inkscape:connector-curvature="0"
         id="path6095"
         d="m -130,215.21933 c 34.285714,0 34.285714,0 34.285714,0"
         style="fill:none;stroke:#000000;stroke-width:7;stroke-linecap:butt;stroke-linejoin:miter;stroke-miterlimit:4;stroke-opacity:1;stroke-dasharray:none" />
    </g>
    <path
       sodipodi:type="arc"
       style="fill:#dcdcdc;fill-opacity:1;stroke:#000000;stroke-width:1.39577389;stroke-miterlimit:4;stroke-opacity:1;stroke-dasharray:none;stroke-dashoffset:0"
       id="path6099"
       sodipodi:cx="188.57143"
       sodipodi:cy="279.50504"
       sodipodi:rx="15.714286"
       sodipodi:ry="15.714286"
       d="m 204.28571,279.50504 a 15.714286,15.714286 0 1 1 -31.42857,0 15.714286,15.714286 0 1 1 31.42857,0 z"
       transform="matrix(0.99341882,0,0,0.99341882,18.947609,25.721213)" />
    <g
       id="g6101"
       transform="matrix(0.7164484,0,0,0.7164484,287.13436,149.19324)">
      <path
         style="fill:none;stroke:#000000;stroke-width:7;stroke-linecap:butt;stroke-linejoin:miter;stroke-miterlimit:4;stroke-opacity:1;stroke-dasharray:none"
         d="m -130,215.21933 c 34.285714,0 34.285714,0 34.285714,0"
         id="path6103"
         inkscape:connector-curvature="0" />
      <path
         inkscape:connector-curvature="0"
         id="path6105"
         d="m -112.85714,198.07647 c 0,34.28572 0,34.28572 0,34.28572"
         style="fill:none;stroke:#000000;stroke-width:7;stroke-linecap:butt;stroke-linejoin:miter;stroke-miterlimit:4;stroke-opacity:1;stroke-dasharray:none" />
    </g>
    <path
       transform="matrix(0.99341882,0,0,0.99341882,-90.082847,25.721213)"
       d="m 204.28571,279.50504 c 0,8.67876 -7.03552,15.71428 -15.71428,15.71428 -8.67876,0 -15.71429,-7.03552 -15.71429,-15.71428 0,-8.67877 7.03553,-15.71429 15.71429,-15.71429 8.67876,0 15.71428,7.03552 15.71428,15.71429 z"
       sodipodi:ry="15.714286"
       sodipodi:rx="15.714286"
       sodipodi:cy="279.50504"
       sodipodi:cx="188.57143"
       id="path6107"
       style="fill:#dcdcdc;fill-opacity:1;stroke:#000000;stroke-width:1.39577389;stroke-miterlimit:4;stroke-opacity:1;stroke-dasharray:none;stroke-dashoffset:0"
       sodipodi:type="arc" />
    <g
       transform="matrix(0.7164484,0,0,0.7164484,178.10388,149.19324)"
       id="g6109">
      <path
         inkscape:connector-curvature="0"
         id="path6111"
         d="m -130,215.21933 c 34.285714,0 34.285714,0 34.285714,0"
         style="fill:none;stroke:#000000;stroke-width:7;stroke-linecap:butt;stroke-linejoin:miter;stroke-miterlimit:4;stroke-opacity:1;stroke-dasharray:none" />
    </g>
    <path
       sodipodi:nodetypes="cc"
       inkscape:connector-curvature="0"
       id="path4309"
       d="M 199.79823,48.697638 C 199.19368,158.78563 271.27657,162.46384 270.41957,244.69745"
       style="fill:none;stroke:#000000;stroke-width:4.29869032;stroke-linecap:butt;stroke-linejoin:miter;stroke-miterlimit:4;stroke-opacity:1;stroke-dasharray:none" />
    <rect
       style="fill:#dcdcdc;fill-opacity:1;stroke:#383838;stroke-width:1;stroke-miterlimit:4;stroke-opacity:1;stroke-dasharray:none;stroke-dashoffset:0"
       id="rect6123"
       width="31.31473"
       height="11.111678"
       x="-110.6117"
       y="2.9403536"
       transform="translate(13.21875,32.21875)" />
    <path
       sodipodi:type="arc"
       style="fill:#dcdcdc;fill-opacity:1;stroke:#a3a3a3;stroke-width:1;stroke-miterlimit:4;stroke-opacity:1;stroke-dasharray:none;stroke-dashoffset:0"
       id="path6125"
       sodipodi:cx="-104.67706"
       sodipodi:cy="8.875"
       sodipodi:rx="3.4092648"
       sodipodi:ry="3.4092648"
       d="m -101.2678,8.875 c 0,1.882885 -1.52638,3.409265 -3.40926,3.409265 -1.88289,0 -3.40927,-1.52638 -3.40927,-3.409265 0,-1.882885 1.52638,-3.4092648 3.40927,-3.4092648 1.88288,0 3.40926,1.5263798 3.40926,3.4092648 z"
       transform="translate(13.21875,31.966212)" />
    <path
       sodipodi:type="star"
       style="fill:#dcdcdc;fill-opacity:1;stroke:#888888;stroke-width:1;stroke-miterlimit:4;stroke-opacity:1;stroke-dasharray:none;stroke-dashoffset:0"
       id="path6133"
       sodipodi:sides="6"
       sodipodi:cx="-115.28366"
       sodipodi:cy="-6.0247507"
       sodipodi:r1="1.8210784"
       sodipodi:r2="1.5771002"
       sodipodi:arg1="1.0471976"
       sodipodi:arg2="1.5707963"
       inkscape:flatsided="true"
       inkscape:rounded="0"
       inkscape:randomized="0"
       d="m -114.37312,-4.4476505 -1.82108,-1e-7 -0.91054,-1.5771002 0.91054,-1.5771001 1.82108,10e-8 0.91054,1.5771002 z"
       transform="translate(23.825348,46.865963)" />
    <path
       transform="translate(33.21875,31.966212)"
       d="m -101.2678,8.875 c 0,1.882885 -1.52638,3.409265 -3.40926,3.409265 -1.88289,0 -3.40927,-1.52638 -3.40927,-3.409265 0,-1.882885 1.52638,-3.4092648 3.40927,-3.4092648 1.88288,0 3.40926,1.5263798 3.40926,3.4092648 z"
       sodipodi:ry="3.4092648"
       sodipodi:rx="3.4092648"
       sodipodi:cy="8.875"
       sodipodi:cx="-104.67706"
       id="path6137"
       style="fill:#dcdcdc;fill-opacity:1;stroke:#a3a3a3;stroke-width:1;stroke-miterlimit:4;stroke-opacity:1;stroke-dasharray:none;stroke-dashoffset:0"
       sodipodi:type="arc" />
    <path
       transform="translate(43.825348,46.865963)"
       d="m -114.37312,-4.4476505 -1.82108,-1e-7 -0.91054,-1.5771002 0.91054,-1.5771001 1.82108,10e-8 0.91054,1.5771002 z"
       inkscape:randomized="0"
       inkscape:rounded="0"
       inkscape:flatsided="true"
       sodipodi:arg2="1.5707963"
       sodipodi:arg1="1.0471976"
       sodipodi:r2="1.5771002"
       sodipodi:r1="1.8210784"
       sodipodi:cy="-6.0247507"
       sodipodi:cx="-115.28366"
       sodipodi:sides="6"
       id="path6139"
       style="fill:#dcdcdc;fill-opacity:1;stroke:#888888;stroke-width:1;stroke-miterlimit:4;stroke-opacity:1;stroke-dasharray:none;stroke-dashoffset:0"
       sodipodi:type="star" />
    <rect
       y="42.735249"
       x="89.699753"
       height="11.111678"
       width="31.31473"
       id="rect6141"
       style="fill:#dcdcdc;fill-opacity:1;stroke:#383838;stroke-width:1;stroke-miterlimit:4;stroke-opacity:1;stroke-dasharray:none;stroke-dashoffset:0" />
    <path
       transform="translate(200.31145,39.542356)"
       d="m -101.2678,8.875 c 0,1.882885 -1.52638,3.409265 -3.40926,3.409265 -1.88289,0 -3.40927,-1.52638 -3.40927,-3.409265 0,-1.882885 1.52638,-3.4092648 3.40927,-3.4092648 1.88288,0 3.40926,1.5263798 3.40926,3.4092648 z"
       sodipodi:ry="3.4092648"
       sodipodi:rx="3.4092648"
       sodipodi:cy="8.875"
       sodipodi:cx="-104.67706"
       id="path6143"
       style="fill:#dcdcdc;fill-opacity:1;stroke:#a3a3a3;stroke-width:1;stroke-miterlimit:4;stroke-opacity:1;stroke-dasharray:none;stroke-dashoffset:0"
       sodipodi:type="arc" />
    <path
       transform="translate(210.91804,54.442107)"
       d="m -114.37312,-4.4476505 -1.82108,-1e-7 -0.91054,-1.5771002 0.91054,-1.5771001 1.82108,10e-8 0.91054,1.5771002 z"
       inkscape:randomized="0"
       inkscape:rounded="0"
       inkscape:flatsided="true"
       sodipodi:arg2="1.5707963"
       sodipodi:arg1="1.0471976"
       sodipodi:r2="1.5771002"
       sodipodi:r1="1.8210784"
       sodipodi:cy="-6.0247507"
       sodipodi:cx="-115.28366"
       sodipodi:sides="6"
       id="path6145"
       style="fill:#dcdcdc;fill-opacity:1;stroke:#888888;stroke-width:1;stroke-miterlimit:4;stroke-opacity:1;stroke-dasharray:none;stroke-dashoffset:0"
       sodipodi:type="star" />
    <path
       sodipodi:type="arc"
       style="fill:#dcdcdc;fill-opacity:1;stroke:#a3a3a3;stroke-width:1;stroke-miterlimit:4;stroke-opacity:1;stroke-dasharray:none;stroke-dashoffset:0"
       id="path6147"
       sodipodi:cx="-104.67706"
       sodipodi:cy="8.875"
       sodipodi:rx="3.4092648"
       sodipodi:ry="3.4092648"
       d="m -101.2678,8.875 c 0,1.882885 -1.52638,3.409265 -3.40926,3.409265 -1.88289,0 -3.40927,-1.52638 -3.40927,-3.409265 0,-1.882885 1.52638,-3.4092648 3.40927,-3.4092648 1.88288,0 3.40926,1.5263798 3.40926,3.4092648 z"
       transform="translate(220.31145,39.542356)" />
    <path
       sodipodi:type="star"
       style="fill:#dcdcdc;fill-opacity:1;stroke:#888888;stroke-width:1;stroke-miterlimit:4;stroke-opacity:1;stroke-dasharray:none;stroke-dashoffset:0"
       id="path6149"
       sodipodi:sides="6"
       sodipodi:cx="-115.28366"
       sodipodi:cy="-6.0247507"
       sodipodi:r1="1.8210784"
       sodipodi:r2="1.5771002"
       sodipodi:arg1="1.0471976"
       sodipodi:arg2="1.5707963"
       inkscape:flatsided="true"
       inkscape:rounded="0"
       inkscape:randomized="0"
       d="m -114.37312,-4.4476505 -1.82108,-1e-7 -0.91054,-1.5771002 0.91054,-1.5771001 1.82108,10e-8 0.91054,1.5771002 z"
       transform="translate(230.91804,54.442107)" />
    <rect
       style="fill:#dcdcdc;fill-opacity:1;stroke:#383838;stroke-width:1;stroke-miterlimit:4;stroke-opacity:1;stroke-dasharray:none;stroke-dashoffset:0"
       id="rect6151"
       width="31.31473"
       height="11.111678"
       x="183.93454"
       y="42.230171" />
    <path
       sodipodi:type="arc"
       style="fill:#dcdcdc;fill-opacity:1;stroke:#a3a3a3;stroke-width:1;stroke-miterlimit:4;stroke-opacity:1;stroke-dasharray:none;stroke-dashoffset:0"
       id="path6153"
       sodipodi:cx="-104.67706"
       sodipodi:cy="8.875"
       sodipodi:rx="3.4092648"
       sodipodi:ry="3.4092648"
       d="m -101.2678,8.875 c 0,1.882885 -1.52638,3.409265 -3.40926,3.409265 -1.88289,0 -3.40927,-1.52638 -3.40927,-3.409265 0,-1.882885 1.52638,-3.4092648 3.40927,-3.4092648 1.88288,0 3.40926,1.5263798 3.40926,3.4092648 z"
       transform="translate(294.54624,39.03728)" />
    <path
       sodipodi:type="star"
       style="fill:#dcdcdc;fill-opacity:1;stroke:#888888;stroke-width:1;stroke-miterlimit:4;stroke-opacity:1;stroke-dasharray:none;stroke-dashoffset:0"
       id="path6155"
       sodipodi:sides="6"
       sodipodi:cx="-115.28366"
       sodipodi:cy="-6.0247507"
       sodipodi:r1="1.8210784"
       sodipodi:r2="1.5771002"
       sodipodi:arg1="1.0471976"
       sodipodi:arg2="1.5707963"
       inkscape:flatsided="true"
       inkscape:rounded="0"
       inkscape:randomized="0"
       d="m -114.37312,-4.4476505 -1.82108,-1e-7 -0.91054,-1.5771002 0.91054,-1.5771001 1.82108,10e-8 0.91054,1.5771002 z"
       transform="translate(305.15283,53.937031)" />
    <path
       transform="translate(314.54624,39.03728)"
       d="m -101.2678,8.875 c 0,1.882885 -1.52638,3.409265 -3.40926,3.409265 -1.88289,0 -3.40927,-1.52638 -3.40927,-3.409265 0,-1.882885 1.52638,-3.4092648 3.40927,-3.4092648 1.88288,0 3.40926,1.5263798 3.40926,3.4092648 z"
       sodipodi:ry="3.4092648"
       sodipodi:rx="3.4092648"
       sodipodi:cy="8.875"
       sodipodi:cx="-104.67706"
       id="path6157"
       style="fill:#dcdcdc;fill-opacity:1;stroke:#a3a3a3;stroke-width:1;stroke-miterlimit:4;stroke-opacity:1;stroke-dasharray:none;stroke-dashoffset:0"
       sodipodi:type="arc" />
    <path
       transform="translate(325.15283,53.937031)"
       d="m -114.37312,-4.4476505 -1.82108,-1e-7 -0.91054,-1.5771002 0.91054,-1.5771001 1.82108,10e-8 0.91054,1.5771002 z"
       inkscape:randomized="0"
       inkscape:rounded="0"
       inkscape:flatsided="true"
       sodipodi:arg2="1.5707963"
       sodipodi:arg1="1.0471976"
       sodipodi:r2="1.5771002"
       sodipodi:r1="1.8210784"
       sodipodi:cy="-6.0247507"
       sodipodi:cx="-115.28366"
       sodipodi:sides="6"
       id="path6159"
       style="fill:#dcdcdc;fill-opacity:1;stroke:#888888;stroke-width:1;stroke-miterlimit:4;stroke-opacity:1;stroke-dasharray:none;stroke-dashoffset:0"
       sodipodi:type="star" />
    <rect
       y="240.08731"
       x="253.22026"
       height="11.111678"
       width="31.31473"
       id="rect6161"
       style="fill:#dcdcdc;fill-opacity:1;stroke:#383838;stroke-width:1;stroke-miterlimit:4;stroke-opacity:1;stroke-dasharray:none;stroke-dashoffset:0" />
    <path
       transform="translate(363.83195,236.89442)"
       d="m -101.2678,8.875 c 0,1.882885 -1.52638,3.409265 -3.40926,3.409265 -1.88289,0 -3.40927,-1.52638 -3.40927,-3.409265 0,-1.882885 1.52638,-3.4092648 3.40927,-3.4092648 1.88288,0 3.40926,1.5263798 3.40926,3.4092648 z"
       sodipodi:ry="3.4092648"
       sodipodi:rx="3.4092648"
       sodipodi:cy="8.875"
       sodipodi:cx="-104.67706"
       id="path6163"
       style="fill:#dcdcdc;fill-opacity:1;stroke:#a3a3a3;stroke-width:1;stroke-miterlimit:4;stroke-opacity:1;stroke-dasharray:none;stroke-dashoffset:0"
       sodipodi:type="arc" />
    <path
       transform="translate(374.43854,251.79417)"
       d="m -114.37312,-4.4476505 -1.82108,-1e-7 -0.91054,-1.5771002 0.91054,-1.5771001 1.82108,10e-8 0.91054,1.5771002 z"
       inkscape:randomized="0"
       inkscape:rounded="0"
       inkscape:flatsided="true"
       sodipodi:arg2="1.5707963"
       sodipodi:arg1="1.0471976"
       sodipodi:r2="1.5771002"
       sodipodi:r1="1.8210784"
       sodipodi:cy="-6.0247507"
       sodipodi:cx="-115.28366"
       sodipodi:sides="6"
       id="path6165"
       style="fill:#dcdcdc;fill-opacity:1;stroke:#888888;stroke-width:1;stroke-miterlimit:4;stroke-opacity:1;stroke-dasharray:none;stroke-dashoffset:0"
       sodipodi:type="star" />
    <path
       sodipodi:type="arc"
       style="fill:#dcdcdc;fill-opacity:1;stroke:#a3a3a3;stroke-width:1;stroke-miterlimit:4;stroke-opacity:1;stroke-dasharray:none;stroke-dashoffset:0"
       id="path6167"
       sodipodi:cx="-104.67706"
       sodipodi:cy="8.875"
       sodipodi:rx="3.4092648"
       sodipodi:ry="3.4092648"
       d="m -101.2678,8.875 c 0,1.882885 -1.52638,3.409265 -3.40926,3.409265 -1.88289,0 -3.40927,-1.52638 -3.40927,-3.409265 0,-1.882885 1.52638,-3.4092648 3.40927,-3.4092648 1.88288,0 3.40926,1.5263798 3.40926,3.4092648 z"
       transform="translate(383.83195,236.89442)" />
    <path
       sodipodi:type="star"
       style="fill:#dcdcdc;fill-opacity:1;stroke:#888888;stroke-width:1;stroke-miterlimit:4;stroke-opacity:1;stroke-dasharray:none;stroke-dashoffset:0"
       id="path6169"
       sodipodi:sides="6"
       sodipodi:cx="-115.28366"
       sodipodi:cy="-6.0247507"
       sodipodi:r1="1.8210784"
       sodipodi:r2="1.5771002"
       sodipodi:arg1="1.0471976"
       sodipodi:arg2="1.5707963"
       inkscape:flatsided="true"
       inkscape:rounded="0"
       inkscape:randomized="0"
       d="m -114.37312,-4.4476505 -1.82108,-1e-7 -0.91054,-1.5771002 0.91054,-1.5771001 1.82108,10e-8 0.91054,1.5771002 z"
       transform="translate(394.43854,251.79417)" />
    <rect
       style="fill:#dcdcdc;fill-opacity:1;stroke:#383838;stroke-width:1;stroke-miterlimit:4;stroke-opacity:1;stroke-dasharray:none;stroke-dashoffset:0"
       id="rect6171"
       width="31.31473"
       height="11.111678"
       x="19.113119"
       y="238.65874" />
    <path
       sodipodi:type="arc"
       style="fill:#dcdcdc;fill-opacity:1;stroke:#a3a3a3;stroke-width:1;stroke-miterlimit:4;stroke-opacity:1;stroke-dasharray:none;stroke-dashoffset:0"
       id="path6173"
       sodipodi:cx="-104.67706"
       sodipodi:cy="8.875"
       sodipodi:rx="3.4092648"
       sodipodi:ry="3.4092648"
       d="m -101.2678,8.875 c 0,1.882885 -1.52638,3.409265 -3.40926,3.409265 -1.88289,0 -3.40927,-1.52638 -3.40927,-3.409265 0,-1.882885 1.52638,-3.4092648 3.40927,-3.4092648 1.88288,0 3.40926,1.5263798 3.40926,3.4092648 z"
       transform="translate(129.7248,235.46585)" />
    <path
       sodipodi:type="star"
       style="fill:#dcdcdc;fill-opacity:1;stroke:#888888;stroke-width:1;stroke-miterlimit:4;stroke-opacity:1;stroke-dasharray:none;stroke-dashoffset:0"
       id="path6175"
       sodipodi:sides="6"
       sodipodi:cx="-115.28366"
       sodipodi:cy="-6.0247507"
       sodipodi:r1="1.8210784"
       sodipodi:r2="1.5771002"
       sodipodi:arg1="1.0471976"
       sodipodi:arg2="1.5707963"
       inkscape:flatsided="true"
       inkscape:rounded="0"
       inkscape:randomized="0"
       d="m -114.37312,-4.4476505 -1.82108,-1e-7 -0.91054,-1.5771002 0.91054,-1.5771001 1.82108,10e-8 0.91054,1.5771002 z"
       transform="translate(140.33139,250.3656)" />
    <path
       transform="translate(149.7248,235.46585)"
       d="m -101.2678,8.875 c 0,1.882885 -1.52638,3.409265 -3.40926,3.409265 -1.88289,0 -3.40927,-1.52638 -3.40927,-3.409265 0,-1.882885 1.52638,-3.4092648 3.40927,-3.4092648 1.88288,0 3.40926,1.5263798 3.40926,3.4092648 z"
       sodipodi:ry="3.4092648"
       sodipodi:rx="3.4092648"
       sodipodi:cy="8.875"
       sodipodi:cx="-104.67706"
       id="path6177"
       style="fill:#dcdcdc;fill-opacity:1;stroke:#a3a3a3;stroke-width:1;stroke-miterlimit:4;stroke-opacity:1;stroke-dasharray:none;stroke-dashoffset:0"
       sodipodi:type="arc" />
    <path
       transform="translate(160.33139,250.3656)"
       d="m -114.37312,-4.4476505 -1.82108,-1e-7 -0.91054,-1.5771002 0.91054,-1.5771001 1.82108,10e-8 0.91054,1.5771002 z"
       inkscape:randomized="0"
       inkscape:rounded="0"
       inkscape:flatsided="true"
       sodipodi:arg2="1.5707963"
       sodipodi:arg1="1.0471976"
       sodipodi:r2="1.5771002"
       sodipodi:r1="1.8210784"
       sodipodi:cy="-6.0247507"
       sodipodi:cx="-115.28366"
       sodipodi:sides="6"
       id="path6179"
       style="fill:#dcdcdc;fill-opacity:1;stroke:#888888;stroke-width:1;stroke-miterlimit:4;stroke-opacity:1;stroke-dasharray:none;stroke-dashoffset:0"
       sodipodi:type="star" />
  </g>
</svg>
