<?xml version="1.0" encoding="UTF-8" standalone="no"?>
<!-- Created with Inkscape (http://www.inkscape.org/) -->

<svg
   xmlns:dc="http://purl.org/dc/elements/1.1/"
   xmlns:cc="http://creativecommons.org/ns#"
   xmlns:rdf="http://www.w3.org/1999/02/22-rdf-syntax-ns#"
   xmlns:svg="http://www.w3.org/2000/svg"
   xmlns="http://www.w3.org/2000/svg"
   xmlns:xlink="http://www.w3.org/1999/xlink"
   xmlns:sodipodi="http://sodipodi.sourceforge.net/DTD/sodipodi-0.dtd"
   xmlns:inkscape="http://www.inkscape.org/namespaces/inkscape"
   width="154.375"
   height="178.31961"
   id="svg3776"
   version="1.1"
   inkscape:version="0.48.0 r9654"
   sodipodi:docname="ttdiag.svg">
  <defs
     id="defs3778">
    <linearGradient
       id="linearGradient6081">
      <stop
         id="stop6083"
         offset="0"
         style="stop-color:#9adcdc;stop-opacity:1;" />
      <stop
         id="stop6085"
         offset="1"
         style="stop-color:#7fbcb2;stop-opacity:1;" />
    </linearGradient>
    <linearGradient
       id="linearGradient6053">
      <stop
         style="stop-color:#dcdcdc;stop-opacity:1;"
         offset="0"
         id="stop6055" />
      <stop
         style="stop-color:#a5a5a5;stop-opacity:1;"
         offset="1"
         id="stop6057" />
    </linearGradient>
    <linearGradient
       inkscape:collect="always"
       xlink:href="#linearGradient6053"
       id="linearGradient6059"
       x1="79.87159"
       y1="48.697639"
       x2="219.02029"
       y2="48.697639"
       gradientUnits="userSpaceOnUse"
       gradientTransform="matrix(0.57005526,0,0,0.57005526,7.037224,14.653789)" />
    <linearGradient
       inkscape:collect="always"
       xlink:href="#linearGradient6053"
       id="linearGradient6067"
       x1="14.367742"
       y1="244.97942"
       x2="51.166664"
       y2="244.97942"
       gradientUnits="userSpaceOnUse"
       gradientTransform="matrix(0.57005526,0,0,0.57005526,8.1773345,14.653789)" />
    <linearGradient
       inkscape:collect="always"
       xlink:href="#linearGradient6053"
       id="linearGradient6071"
       gradientUnits="userSpaceOnUse"
       x1="14.367742"
       y1="244.97942"
       x2="51.166664"
       y2="244.97942"
       gradientTransform="matrix(0.57005526,0,0,0.57005526,141.57027,14.653789)" />
    <radialGradient
       inkscape:collect="always"
       xlink:href="#linearGradient6053"
       id="radialGradient6079"
       cx="305"
       cy="378.79074"
       fx="305"
       fy="378.79074"
       r="138"
       gradientUnits="userSpaceOnUse" />
    <radialGradient
       inkscape:collect="always"
       xlink:href="#linearGradient6081"
       id="radialGradient6089"
       gradientUnits="userSpaceOnUse"
       cx="305"
       cy="378.79074"
       fx="305"
       fy="378.79074"
       r="138" />
  </defs>
  <sodipodi:namedview
     id="base"
     pagecolor="#ffffff"
     bordercolor="#666666"
     borderopacity="1.0"
     inkscape:pageopacity="0.0"
     inkscape:pageshadow="2"
     inkscape:zoom="1.4"
     inkscape:cx="225.39343"
     inkscape:cy="56.09947"
     inkscape:document-units="px"
     inkscape:current-layer="layer1"
     showgrid="false"
     fit-margin-top="0"
     fit-margin-left="0"
     fit-margin-right="0"
     fit-margin-bottom="0"
     inkscape:window-width="1834"
     inkscape:window-height="1003"
     inkscape:window-x="0"
     inkscape:window-y="25"
     inkscape:window-maximized="1" />
  <metadata
     id="metadata3781">
    <rdf:RDF>
      <cc:Work
         rdf:about="">
        <dc:format>image/svg+xml</dc:format>
        <dc:type
           rdf:resource="http://purl.org/dc/dcmitype/StillImage" />
        <dc:title />
      </cc:Work>
    </rdf:RDF>
  </metadata>
  <g
     inkscape:label="Layer 1"
     inkscape:groupmode="layer"
     id="layer1"
     transform="translate(-16.375,-34.09375)">
    <rect
       style="fill:url(#linearGradient6067);fill-opacity:1;stroke:#000000;stroke-width:1.14011049;stroke-miterlimit:4;stroke-opacity:1;stroke-dasharray:none;stroke-dashoffset:0"
       id="rect4313"
       width="19.837309"
       height="19.253859"
       x="16.937796"
       y="144.67867" />
    <path
       sodipodi:type="arc"
       style="fill:url(#radialGradient6079);fill-opacity:1;stroke:#000000;stroke-width:6;stroke-miterlimit:4;stroke-opacity:1;stroke-dasharray:none;stroke-dashoffset:0"
       id="path4311"
       sodipodi:cx="305"
       sodipodi:cy="378.79074"
       sodipodi:rx="135"
       sodipodi:ry="135"
       d="m 440,378.79074 a 135,135 0 1 1 -270,0 135,135 0 1 1 270,0 z"
       transform="matrix(0.40841518,0,0,0.40841518,-30.878334,1.3520547)" />
    <rect
       style="fill:url(#linearGradient6059);fill-opacity:1;stroke:#000000;stroke-width:1.14011049;stroke-miterlimit:4;stroke-opacity:1;stroke-dasharray:none;stroke-dashoffset:0"
       id="rect4307"
       width="75.942841"
       height="15.929427"
       x="55.378002"
       y="34.653015" />
    <path
       style="fill:none;stroke:#000000;stroke-width:2.45049095;stroke-linecap:butt;stroke-linejoin:miter;stroke-miterlimit:4;stroke-opacity:1;stroke-dasharray:none"
       d="M 66.945221,42.414133 C 67.289842,105.17037 26.198605,107.26716 26.687147,154.14486"
       id="path3784"
       inkscape:connector-curvature="0"
       sodipodi:nodetypes="cc" />
    <g
       id="g4331"
       transform="matrix(0.7164484,0,0,0.7164484,-37.854139,9.1358414)">
      <path
         inkscape:connector-curvature="0"
         id="path4325"
         d="m -130,215.21933 c 34.285714,0 34.285714,0 34.285714,0"
         style="fill:none;stroke:#000000;stroke-width:7;stroke-linecap:butt;stroke-linejoin:miter;stroke-miterlimit:4;stroke-opacity:1;stroke-dasharray:none" />
      <path
         style="fill:none;stroke:#000000;stroke-width:7;stroke-linecap:butt;stroke-linejoin:miter;stroke-miterlimit:4;stroke-opacity:1;stroke-dasharray:none"
         d="m -112.85714,198.07647 c 0,34.28572 0,34.28572 0,34.28572"
         id="path4327"
         inkscape:connector-curvature="0" />
    </g>
    <path
       inkscape:connector-curvature="0"
       id="path4329"
       d="m -130.99243,203.4505 c 24.56394,0 24.56394,0 24.56394,0"
       style="fill:none;stroke:#000000;stroke-width:5.01513863;stroke-linecap:butt;stroke-linejoin:miter;stroke-miterlimit:4;stroke-opacity:1;stroke-dasharray:none" />
    <rect
       y="144.67867"
       x="150.33072"
       height="19.253859"
       width="19.837309"
       id="rect6069"
       style="fill:url(#linearGradient6071);fill-opacity:1;stroke:#000000;stroke-width:1.14011049;stroke-miterlimit:4;stroke-opacity:1;stroke-dasharray:none;stroke-dashoffset:0" />
    <path
       transform="matrix(0.31661416,0,0,0.31661416,-2.8790224,36.125432)"
       d="m 440,378.79074 a 135,135 0 1 1 -270,0 135,135 0 1 1 270,0 z"
       sodipodi:ry="135"
       sodipodi:rx="135"
       sodipodi:cy="378.79074"
       sodipodi:cx="305"
       id="path6087"
       style="fill:url(#radialGradient6089);fill-opacity:1;stroke:#000000;stroke-width:6;stroke-miterlimit:4;stroke-opacity:1;stroke-dasharray:none;stroke-dashoffset:0"
       sodipodi:type="arc" />
    <path
       sodipodi:type="arc"
       style="fill:#dcdcdc;fill-opacity:1;stroke:#000000;stroke-width:1.39577389;stroke-miterlimit:4;stroke-opacity:1;stroke-dasharray:none;stroke-dashoffset:0"
       id="path4317"
       sodipodi:cx="188.57143"
       sodipodi:cy="279.50504"
       sodipodi:rx="15.714286"
       sodipodi:ry="15.714286"
       d="m 204.28571,279.50504 a 15.714286,15.714286 0 1 1 -31.42857,0 15.714286,15.714286 0 1 1 31.42857,0 z"
       transform="matrix(0.56630363,0,0,0.56630363,-44.314977,-32.837084)" />
    <g
       id="g4335"
       transform="matrix(0.40841518,0,0,0.40841518,108.56628,37.548794)">
      <path
         style="fill:none;stroke:#000000;stroke-width:7;stroke-linecap:butt;stroke-linejoin:miter;stroke-miterlimit:4;stroke-opacity:1;stroke-dasharray:none"
         d="m -130,215.21933 c 34.285714,0 34.285714,0 34.285714,0"
         id="path4337"
         inkscape:connector-curvature="0" />
      <path
         inkscape:connector-curvature="0"
         id="path4339"
         d="m -112.85714,198.07647 c 0,34.28572 0,34.28572 0,34.28572"
         style="fill:none;stroke:#000000;stroke-width:7;stroke-linecap:butt;stroke-linejoin:miter;stroke-miterlimit:4;stroke-opacity:1;stroke-dasharray:none" />
    </g>
    <path
       transform="matrix(0.56630363,0,0,0.56630363,17.838408,-32.837084)"
       d="m 204.28571,279.50504 a 15.714286,15.714286 0 1 1 -31.42857,0 15.714286,15.714286 0 1 1 31.42857,0 z"
       sodipodi:ry="15.714286"
       sodipodi:rx="15.714286"
       sodipodi:cy="279.50504"
       sodipodi:cx="188.57143"
       id="path6091"
       style="fill:#dcdcdc;fill-opacity:1;stroke:#000000;stroke-width:1.39577389;stroke-miterlimit:4;stroke-opacity:1;stroke-dasharray:none;stroke-dashoffset:0"
       sodipodi:type="arc" />
    <g
       transform="matrix(0.40841518,0,0,0.40841518,170.71968,37.548794)"
       id="g6093">
      <path
         inkscape:connector-curvature="0"
         id="path6095"
         d="m -130,215.21933 c 34.285714,0 34.285714,0 34.285714,0"
         style="fill:none;stroke:#000000;stroke-width:7;stroke-linecap:butt;stroke-linejoin:miter;stroke-miterlimit:4;stroke-opacity:1;stroke-dasharray:none" />
    </g>
    <path
       sodipodi:type="arc"
       style="fill:#dcdcdc;fill-opacity:1;stroke:#000000;stroke-width:1.39577389;stroke-miterlimit:4;stroke-opacity:1;stroke-dasharray:none;stroke-dashoffset:0"
       id="path6099"
       sodipodi:cx="188.57143"
       sodipodi:cy="279.50504"
       sodipodi:rx="15.714286"
       sodipodi:ry="15.714286"
       d="m 204.28571,279.50504 a 15.714286,15.714286 0 1 1 -31.42857,0 15.714286,15.714286 0 1 1 31.42857,0 z"
       transform="matrix(0.56630363,0,0,0.56630363,17.838408,29.316301)" />
    <g
       id="g6101"
       transform="matrix(0.40841518,0,0,0.40841518,170.71968,99.70218)">
      <path
         style="fill:none;stroke:#000000;stroke-width:7;stroke-linecap:butt;stroke-linejoin:miter;stroke-miterlimit:4;stroke-opacity:1;stroke-dasharray:none"
         d="m -130,215.21933 c 34.285714,0 34.285714,0 34.285714,0"
         id="path6103"
         inkscape:connector-curvature="0" />
      <path
         inkscape:connector-curvature="0"
         id="path6105"
         d="m -112.85714,198.07647 c 0,34.28572 0,34.28572 0,34.28572"
         style="fill:none;stroke:#000000;stroke-width:7;stroke-linecap:butt;stroke-linejoin:miter;stroke-miterlimit:4;stroke-opacity:1;stroke-dasharray:none" />
    </g>
    <path
       transform="matrix(0.56630363,0,0,0.56630363,-44.314977,29.316301)"
       d="m 204.28571,279.50504 a 15.714286,15.714286 0 1 1 -31.42857,0 15.714286,15.714286 0 1 1 31.42857,0 z"
       sodipodi:ry="15.714286"
       sodipodi:rx="15.714286"
       sodipodi:cy="279.50504"
       sodipodi:cx="188.57143"
       id="path6107"
       style="fill:#dcdcdc;fill-opacity:1;stroke:#000000;stroke-width:1.39577389;stroke-miterlimit:4;stroke-opacity:1;stroke-dasharray:none;stroke-dashoffset:0"
       sodipodi:type="arc" />
    <g
       transform="matrix(0.40841518,0,0,0.40841518,108.56628,99.70218)"
       id="g6109">
      <path
         inkscape:connector-curvature="0"
         id="path6111"
         d="m -130,215.21933 c 34.285714,0 34.285714,0 34.285714,0"
         style="fill:none;stroke:#000000;stroke-width:7;stroke-linecap:butt;stroke-linejoin:miter;stroke-miterlimit:4;stroke-opacity:1;stroke-dasharray:none" />
    </g>
    <path
       sodipodi:nodetypes="cc"
       inkscape:connector-curvature="0"
       id="path4309"
       d="m 120.93326,42.414133 c -0.34463,62.756237 40.7466,64.853027 40.25806,111.730727"
       style="fill:none;stroke:#000000;stroke-width:2.45049095;stroke-linecap:butt;stroke-linejoin:miter;stroke-miterlimit:4;stroke-opacity:1;stroke-dasharray:none" />
    <rect
       style="fill:#dcdcdc;fill-opacity:1;stroke:#383838;stroke-width:1;stroke-miterlimit:4;stroke-opacity:1;stroke-dasharray:none;stroke-dashoffset:0"
       id="rect6123"
       width="31.31473"
       height="11.111678"
       x="-110.6117"
       y="2.9403536"
       transform="translate(13.21875,32.21875)" />
    <path
       sodipodi:type="arc"
       style="fill:#dcdcdc;fill-opacity:1;stroke:#a3a3a3;stroke-width:1;stroke-miterlimit:4;stroke-opacity:1;stroke-dasharray:none;stroke-dashoffset:0"
       id="path6125"
       sodipodi:cx="-104.67706"
       sodipodi:cy="8.875"
       sodipodi:rx="3.4092648"
       sodipodi:ry="3.4092648"
       d="m -101.2678,8.875 a 3.4092648,3.4092648 0 1 1 -6.81853,0 3.4092648,3.4092648 0 1 1 6.81853,0 z"
       transform="translate(13.21875,31.966212)" />
    <path
       sodipodi:type="star"
       style="fill:#dcdcdc;fill-opacity:1;stroke:#888888;stroke-width:1;stroke-miterlimit:4;stroke-opacity:1;stroke-dasharray:none;stroke-dashoffset:0"
       id="path6133"
       sodipodi:sides="6"
       sodipodi:cx="-115.28366"
       sodipodi:cy="-6.0247507"
       sodipodi:r1="1.8210784"
       sodipodi:r2="1.5771002"
       sodipodi:arg1="1.0471976"
       sodipodi:arg2="1.5707963"
       inkscape:flatsided="true"
       inkscape:rounded="0"
       inkscape:randomized="0"
       d="m -114.37312,-4.4476505 -1.82108,-1e-7 -0.91054,-1.5771002 0.91054,-1.5771001 1.82108,10e-8 0.91054,1.5771002 z"
       transform="translate(23.825348,46.865963)" />
    <path
       transform="translate(33.21875,31.966212)"
       d="m -101.2678,8.875 a 3.4092648,3.4092648 0 1 1 -6.81853,0 3.4092648,3.4092648 0 1 1 6.81853,0 z"
       sodipodi:ry="3.4092648"
       sodipodi:rx="3.4092648"
       sodipodi:cy="8.875"
       sodipodi:cx="-104.67706"
       id="path6137"
       style="fill:#dcdcdc;fill-opacity:1;stroke:#a3a3a3;stroke-width:1;stroke-miterlimit:4;stroke-opacity:1;stroke-dasharray:none;stroke-dashoffset:0"
       sodipodi:type="arc" />
    <path
       transform="translate(43.825348,46.865963)"
       d="m -114.37312,-4.4476505 -1.82108,-1e-7 -0.91054,-1.5771002 0.91054,-1.5771001 1.82108,10e-8 0.91054,1.5771002 z"
       inkscape:randomized="0"
       inkscape:rounded="0"
       inkscape:flatsided="true"
       sodipodi:arg2="1.5707963"
       sodipodi:arg1="1.0471976"
       sodipodi:r2="1.5771002"
       sodipodi:r1="1.8210784"
       sodipodi:cy="-6.0247507"
       sodipodi:cx="-115.28366"
       sodipodi:sides="6"
       id="path6139"
       style="fill:#dcdcdc;fill-opacity:1;stroke:#888888;stroke-width:1;stroke-miterlimit:4;stroke-opacity:1;stroke-dasharray:none;stroke-dashoffset:0"
       sodipodi:type="star" />
    <rect
       y="39.015244"
       x="58.17104"
       height="6.3342705"
       width="17.851126"
       id="rect6141"
       style="fill:#dcdcdc;fill-opacity:1;stroke:#383838;stroke-width:0.57005525;stroke-miterlimit:4;stroke-opacity:1;stroke-dasharray:none;stroke-dashoffset:0" />
    <path
       transform="matrix(0.57005526,0,0,0.57005526,121.22582,37.195117)"
       d="m -101.2678,8.875 a 3.4092648,3.4092648 0 1 1 -6.81853,0 3.4092648,3.4092648 0 1 1 6.81853,0 z"
       sodipodi:ry="3.4092648"
       sodipodi:rx="3.4092648"
       sodipodi:cy="8.875"
       sodipodi:cx="-104.67706"
       id="path6143"
       style="fill:#dcdcdc;fill-opacity:1;stroke:#a3a3a3;stroke-width:1;stroke-miterlimit:4;stroke-opacity:1;stroke-dasharray:none;stroke-dashoffset:0"
       sodipodi:type="arc" />
    <path
       transform="matrix(0.57005526,0,0,0.57005526,127.27216,45.688798)"
       d="m -114.37312,-4.4476505 -1.82108,-1e-7 -0.91054,-1.5771002 0.91054,-1.5771001 1.82108,10e-8 0.91054,1.5771002 z"
       inkscape:randomized="0"
       inkscape:rounded="0"
       inkscape:flatsided="true"
       sodipodi:arg2="1.5707963"
       sodipodi:arg1="1.0471976"
       sodipodi:r2="1.5771002"
       sodipodi:r1="1.8210784"
       sodipodi:cy="-6.0247507"
       sodipodi:cx="-115.28366"
       sodipodi:sides="6"
       id="path6145"
       style="fill:#dcdcdc;fill-opacity:1;stroke:#888888;stroke-width:1;stroke-miterlimit:4;stroke-opacity:1;stroke-dasharray:none;stroke-dashoffset:0"
       sodipodi:type="star" />
    <path
       sodipodi:type="arc"
       style="fill:#dcdcdc;fill-opacity:1;stroke:#a3a3a3;stroke-width:1;stroke-miterlimit:4;stroke-opacity:1;stroke-dasharray:none;stroke-dashoffset:0"
       id="path6147"
       sodipodi:cx="-104.67706"
       sodipodi:cy="8.875"
       sodipodi:rx="3.4092648"
       sodipodi:ry="3.4092648"
       d="m -101.2678,8.875 a 3.4092648,3.4092648 0 1 1 -6.81853,0 3.4092648,3.4092648 0 1 1 6.81853,0 z"
       transform="matrix(0.57005526,0,0,0.57005526,132.62693,37.195117)" />
    <path
       sodipodi:type="star"
       style="fill:#dcdcdc;fill-opacity:1;stroke:#888888;stroke-width:1;stroke-miterlimit:4;stroke-opacity:1;stroke-dasharray:none;stroke-dashoffset:0"
       id="path6149"
       sodipodi:sides="6"
       sodipodi:cx="-115.28366"
       sodipodi:cy="-6.0247507"
       sodipodi:r1="1.8210784"
       sodipodi:r2="1.5771002"
       sodipodi:arg1="1.0471976"
       sodipodi:arg2="1.5707963"
       inkscape:flatsided="true"
       inkscape:rounded="0"
       inkscape:randomized="0"
       d="m -114.37312,-4.4476505 -1.82108,-1e-7 -0.91054,-1.5771002 0.91054,-1.5771001 1.82108,10e-8 0.91054,1.5771002 z"
       transform="matrix(0.57005526,0,0,0.57005526,138.67327,45.688798)" />
    <rect
       style="fill:#dcdcdc;fill-opacity:1;stroke:#383838;stroke-width:0.57005525;stroke-miterlimit:4;stroke-opacity:1;stroke-dasharray:none;stroke-dashoffset:0"
       id="rect6151"
       width="17.851126"
       height="6.3342705"
       x="111.89008"
       y="38.727322" />
    <path
       sodipodi:type="arc"
       style="fill:#dcdcdc;fill-opacity:1;stroke:#a3a3a3;stroke-width:1;stroke-miterlimit:4;stroke-opacity:1;stroke-dasharray:none;stroke-dashoffset:0"
       id="path6153"
       sodipodi:cx="-104.67706"
       sodipodi:cy="8.875"
       sodipodi:rx="3.4092648"
       sodipodi:ry="3.4092648"
       d="m -101.2678,8.875 a 3.4092648,3.4092648 0 1 1 -6.81853,0 3.4092648,3.4092648 0 1 1 6.81853,0 z"
       transform="matrix(0.57005526,0,0,0.57005526,174.94486,36.907195)" />
    <path
       sodipodi:type="star"
       style="fill:#dcdcdc;fill-opacity:1;stroke:#888888;stroke-width:1;stroke-miterlimit:4;stroke-opacity:1;stroke-dasharray:none;stroke-dashoffset:0"
       id="path6155"
       sodipodi:sides="6"
       sodipodi:cx="-115.28366"
       sodipodi:cy="-6.0247507"
       sodipodi:r1="1.8210784"
       sodipodi:r2="1.5771002"
       sodipodi:arg1="1.0471976"
       sodipodi:arg2="1.5707963"
       inkscape:flatsided="true"
       inkscape:rounded="0"
       inkscape:randomized="0"
       d="m -114.37312,-4.4476505 -1.82108,-1e-7 -0.91054,-1.5771002 0.91054,-1.5771001 1.82108,10e-8 0.91054,1.5771002 z"
       transform="matrix(0.57005526,0,0,0.57005526,180.9912,45.400877)" />
    <path
       transform="matrix(0.57005526,0,0,0.57005526,186.34596,36.907195)"
       d="m -101.2678,8.875 a 3.4092648,3.4092648 0 1 1 -6.81853,0 3.4092648,3.4092648 0 1 1 6.81853,0 z"
       sodipodi:ry="3.4092648"
       sodipodi:rx="3.4092648"
       sodipodi:cy="8.875"
       sodipodi:cx="-104.67706"
       id="path6157"
       style="fill:#dcdcdc;fill-opacity:1;stroke:#a3a3a3;stroke-width:1;stroke-miterlimit:4;stroke-opacity:1;stroke-dasharray:none;stroke-dashoffset:0"
       sodipodi:type="arc" />
    <path
       transform="matrix(0.57005526,0,0,0.57005526,192.39231,45.400877)"
       d="m -114.37312,-4.4476505 -1.82108,-1e-7 -0.91054,-1.5771002 0.91054,-1.5771001 1.82108,10e-8 0.91054,1.5771002 z"
       inkscape:randomized="0"
       inkscape:rounded="0"
       inkscape:flatsided="true"
       sodipodi:arg2="1.5707963"
       sodipodi:arg1="1.0471976"
       sodipodi:r2="1.5771002"
       sodipodi:r1="1.8210784"
       sodipodi:cy="-6.0247507"
       sodipodi:cx="-115.28366"
       sodipodi:sides="6"
       id="path6159"
       style="fill:#dcdcdc;fill-opacity:1;stroke:#888888;stroke-width:1;stroke-miterlimit:4;stroke-opacity:1;stroke-dasharray:none;stroke-dashoffset:0"
       sodipodi:type="star" />
    <rect
       y="151.51683"
       x="151.38676"
       height="6.3342705"
       width="17.851126"
       id="rect6161"
       style="fill:#dcdcdc;fill-opacity:1;stroke:#383838;stroke-width:0.57005525;stroke-miterlimit:4;stroke-opacity:1;stroke-dasharray:none;stroke-dashoffset:0" />
    <path
       transform="matrix(0.57005526,0,0,0.57005526,214.44154,149.6967)"
       d="m -101.2678,8.875 a 3.4092648,3.4092648 0 1 1 -6.81853,0 3.4092648,3.4092648 0 1 1 6.81853,0 z"
       sodipodi:ry="3.4092648"
       sodipodi:rx="3.4092648"
       sodipodi:cy="8.875"
       sodipodi:cx="-104.67706"
       id="path6163"
       style="fill:#dcdcdc;fill-opacity:1;stroke:#a3a3a3;stroke-width:1;stroke-miterlimit:4;stroke-opacity:1;stroke-dasharray:none;stroke-dashoffset:0"
       sodipodi:type="arc" />
    <path
       transform="matrix(0.57005526,0,0,0.57005526,220.48788,158.19038)"
       d="m -114.37312,-4.4476505 -1.82108,-1e-7 -0.91054,-1.5771002 0.91054,-1.5771001 1.82108,10e-8 0.91054,1.5771002 z"
       inkscape:randomized="0"
       inkscape:rounded="0"
       inkscape:flatsided="true"
       sodipodi:arg2="1.5707963"
       sodipodi:arg1="1.0471976"
       sodipodi:r2="1.5771002"
       sodipodi:r1="1.8210784"
       sodipodi:cy="-6.0247507"
       sodipodi:cx="-115.28366"
       sodipodi:sides="6"
       id="path6165"
       style="fill:#dcdcdc;fill-opacity:1;stroke:#888888;stroke-width:1;stroke-miterlimit:4;stroke-opacity:1;stroke-dasharray:none;stroke-dashoffset:0"
       sodipodi:type="star" />
    <path
       sodipodi:type="arc"
       style="fill:#dcdcdc;fill-opacity:1;stroke:#a3a3a3;stroke-width:1;stroke-miterlimit:4;stroke-opacity:1;stroke-dasharray:none;stroke-dashoffset:0"
       id="path6167"
       sodipodi:cx="-104.67706"
       sodipodi:cy="8.875"
       sodipodi:rx="3.4092648"
       sodipodi:ry="3.4092648"
       d="m -101.2678,8.875 a 3.4092648,3.4092648 0 1 1 -6.81853,0 3.4092648,3.4092648 0 1 1 6.81853,0 z"
       transform="matrix(0.57005526,0,0,0.57005526,225.84265,149.6967)" />
    <path
       sodipodi:type="star"
       style="fill:#dcdcdc;fill-opacity:1;stroke:#888888;stroke-width:1;stroke-miterlimit:4;stroke-opacity:1;stroke-dasharray:none;stroke-dashoffset:0"
       id="path6169"
       sodipodi:sides="6"
       sodipodi:cx="-115.28366"
       sodipodi:cy="-6.0247507"
       sodipodi:r1="1.8210784"
       sodipodi:r2="1.5771002"
       sodipodi:arg1="1.0471976"
       sodipodi:arg2="1.5707963"
       inkscape:flatsided="true"
       inkscape:rounded="0"
       inkscape:randomized="0"
       d="m -114.37312,-4.4476505 -1.82108,-1e-7 -0.91054,-1.5771002 0.91054,-1.5771001 1.82108,10e-8 0.91054,1.5771002 z"
       transform="matrix(0.57005526,0,0,0.57005526,231.88899,158.19038)" />
    <rect
       style="fill:#dcdcdc;fill-opacity:1;stroke:#383838;stroke-width:0.57005525;stroke-miterlimit:4;stroke-opacity:1;stroke-dasharray:none;stroke-dashoffset:0"
       id="rect6171"
       width="17.851126"
       height="6.3342705"
       x="17.932758"
       y="150.70245" />
    <path
       sodipodi:type="arc"
       style="fill:#dcdcdc;fill-opacity:1;stroke:#a3a3a3;stroke-width:1;stroke-miterlimit:4;stroke-opacity:1;stroke-dasharray:none;stroke-dashoffset:0"
       id="path6173"
       sodipodi:cx="-104.67706"
       sodipodi:cy="8.875"
       sodipodi:rx="3.4092648"
       sodipodi:ry="3.4092648"
       d="m -101.2678,8.875 a 3.4092648,3.4092648 0 1 1 -6.81853,0 3.4092648,3.4092648 0 1 1 6.81853,0 z"
       transform="matrix(0.57005526,0,0,0.57005526,80.987529,148.88234)" />
    <path
       sodipodi:type="star"
       style="fill:#dcdcdc;fill-opacity:1;stroke:#888888;stroke-width:1;stroke-miterlimit:4;stroke-opacity:1;stroke-dasharray:none;stroke-dashoffset:0"
       id="path6175"
       sodipodi:sides="6"
       sodipodi:cx="-115.28366"
       sodipodi:cy="-6.0247507"
       sodipodi:r1="1.8210784"
       sodipodi:r2="1.5771002"
       sodipodi:arg1="1.0471976"
       sodipodi:arg2="1.5707963"
       inkscape:flatsided="true"
       inkscape:rounded="0"
       inkscape:randomized="0"
       d="m -114.37312,-4.4476505 -1.82108,-1e-7 -0.91054,-1.5771002 0.91054,-1.5771001 1.82108,10e-8 0.91054,1.5771002 z"
       transform="matrix(0.57005526,0,0,0.57005526,87.033871,157.37602)" />
    <path
       transform="matrix(0.57005526,0,0,0.57005526,92.388634,148.88234)"
       d="m -101.2678,8.875 a 3.4092648,3.4092648 0 1 1 -6.81853,0 3.4092648,3.4092648 0 1 1 6.81853,0 z"
       sodipodi:ry="3.4092648"
       sodipodi:rx="3.4092648"
       sodipodi:cy="8.875"
       sodipodi:cx="-104.67706"
       id="path6177"
       style="fill:#dcdcdc;fill-opacity:1;stroke:#a3a3a3;stroke-width:1;stroke-miterlimit:4;stroke-opacity:1;stroke-dasharray:none;stroke-dashoffset:0"
       sodipodi:type="arc" />
    <path
       transform="matrix(0.57005526,0,0,0.57005526,98.434976,157.37602)"
       d="m -114.37312,-4.4476505 -1.82108,-1e-7 -0.91054,-1.5771002 0.91054,-1.5771001 1.82108,10e-8 0.91054,1.5771002 z"
       inkscape:randomized="0"
       inkscape:rounded="0"
       inkscape:flatsided="true"
       sodipodi:arg2="1.5707963"
       sodipodi:arg1="1.0471976"
       sodipodi:r2="1.5771002"
       sodipodi:r1="1.8210784"
       sodipodi:cy="-6.0247507"
       sodipodi:cx="-115.28366"
       sodipodi:sides="6"
       id="path6179"
       style="fill:#dcdcdc;fill-opacity:1;stroke:#888888;stroke-width:1;stroke-miterlimit:4;stroke-opacity:1;stroke-dasharray:none;stroke-dashoffset:0"
       sodipodi:type="star" />
  </g>
</svg>
