<?xml version="1.0" encoding="UTF-8" standalone="no"?>
<!-- Created with Inkscape (http://www.inkscape.org/) -->

<svg
   xmlns:ns0="http://www.iki.fi/pav/software/textext/"
   xmlns:dc="http://purl.org/dc/elements/1.1/"
   xmlns:cc="http://creativecommons.org/ns#"
   xmlns:rdf="http://www.w3.org/1999/02/22-rdf-syntax-ns#"
   xmlns:svg="http://www.w3.org/2000/svg"
   xmlns="http://www.w3.org/2000/svg"
   xmlns:xlink="http://www.w3.org/1999/xlink"
   xmlns:sodipodi="http://sodipodi.sourceforge.net/DTD/sodipodi-0.dtd"
   xmlns:inkscape="http://www.inkscape.org/namespaces/inkscape"
   width="531.49609"
   height="186.79887"
   id="svg2"
   version="1.1"
   inkscape:version="0.47 r22583"
   sodipodi:docname="blockdiagtight.svg">
  <defs
     id="defs4">
    <inkscape:perspective
       sodipodi:type="inkscape:persp3d"
       inkscape:vp_x="0 : 51.400822 : 1"
       inkscape:vp_y="0 : 1000 : 0"
       inkscape:vp_z="292.5 : 51.400822 : 1"
       inkscape:persp3d-origin="146.25 : 34.267214 : 1"
       id="perspective140" />
    <linearGradient
       id="linearGradient4562">
      <stop
         id="stop4564"
         offset="0"
         style="stop-color:#00a8ff;stop-opacity:0;" />
      <stop
         id="stop4566"
         offset="1"
         style="stop-color:#ffffff;stop-opacity:1;" />
    </linearGradient>
    <linearGradient
       id="linearGradient4543">
      <stop
         style="stop-color:#00a8ff;stop-opacity:1;"
         offset="0"
         id="stop4545" />
      <stop
         style="stop-color:#ffffff;stop-opacity:1;"
         offset="1"
         id="stop4547" />
    </linearGradient>
    <linearGradient
       id="linearGradient4535">
      <stop
         style="stop-color:#00a8ff;stop-opacity:1;"
         offset="0"
         id="stop4537" />
      <stop
         style="stop-color:#ffffff;stop-opacity:1;"
         offset="1"
         id="stop4539" />
    </linearGradient>
    <linearGradient
       inkscape:collect="always"
       xlink:href="#linearGradient4535"
       id="linearGradient4541"
       x1="134.87326"
       y1="53.069237"
       x2="123.23143"
       y2="106.10224"
       gradientUnits="userSpaceOnUse"
       gradientTransform="matrix(1.7608097,0,0,1.7608097,1.8665041,-55.333812)" />
    <linearGradient
       inkscape:collect="always"
       xlink:href="#linearGradient4543"
       id="linearGradient4549"
       x1="123.23143"
       y1="106.10224"
       x2="134.87326"
       y2="53.069237"
       gradientUnits="userSpaceOnUse"
       gradientTransform="matrix(1.7608097,0,0,1.7608097,1.8665041,-55.333812)" />
    <linearGradient
       inkscape:collect="always"
       xlink:href="#linearGradient4562"
       id="linearGradient4568"
       gradientUnits="userSpaceOnUse"
       x1="130.58754"
       y1="86.10495"
       x2="134.48143"
       y2="52.173668"
       gradientTransform="matrix(1.7608097,0,0,1.7608097,1.8665093,-55.333809)" />
    <marker
       inkscape:stockid="Arrow1Sstart"
       orient="auto"
       refY="0"
       refX="0"
       id="Arrow1Sstart"
       style="overflow:visible">
      <path
         id="path4319"
         d="M 0,0 5,-5 -12.5,0 5,5 0,0 z"
         style="fill-rule:evenodd;stroke:#000000;stroke-width:1pt;marker-start:none"
         transform="matrix(0.2,0,0,0.2,1.2,0)"
         inkscape:connector-curvature="0" />
    </marker>
    <marker
       inkscape:stockid="Arrow1Send"
       orient="auto"
       refY="0"
       refX="0"
       id="Arrow1Send"
       style="overflow:visible">
      <path
         id="path4322"
         d="M 0,0 5,-5 -12.5,0 5,5 0,0 z"
         style="fill-rule:evenodd;stroke:#000000;stroke-width:1pt;marker-start:none"
         transform="matrix(-0.2,0,0,-0.2,-1.2,0)"
         inkscape:connector-curvature="0" />
    </marker>
    <marker
       inkscape:stockid="Arrow1Sstart"
       orient="auto"
       refY="0"
       refX="0"
       id="Arrow1Sstart-3"
       style="overflow:visible">
      <path
         id="path4319-7"
         d="M 0,0 5,-5 -12.5,0 5,5 0,0 z"
         style="fill-rule:evenodd;stroke:#000000;stroke-width:1pt;marker-start:none"
         transform="matrix(0.2,0,0,0.2,1.2,0)"
         inkscape:connector-curvature="0" />
    </marker>
    <marker
       inkscape:stockid="Arrow1Send"
       orient="auto"
       refY="0"
       refX="0"
       id="Arrow1Send-4"
       style="overflow:visible">
      <path
         id="path4322-5"
         d="M 0,0 5,-5 -12.5,0 5,5 0,0 z"
         style="fill-rule:evenodd;stroke:#000000;stroke-width:1pt;marker-start:none"
         transform="matrix(-0.2,0,0,-0.2,-1.2,0)"
         inkscape:connector-curvature="0" />
    </marker>
    <marker
       inkscape:stockid="Arrow1Mend"
       orient="auto"
       refY="0"
       refX="0"
       id="Arrow1Mend"
       style="overflow:visible">
      <path
         id="path4316"
         d="M 0,0 5,-5 -12.5,0 5,5 0,0 z"
         style="fill-rule:evenodd;stroke:#000000;stroke-width:1pt;marker-start:none"
         transform="matrix(-0.4,0,0,-0.4,-4,0)"
         inkscape:connector-curvature="0" />
    </marker>
    <marker
       inkscape:stockid="Arrow1Mend"
       orient="auto"
       refY="0"
       refX="0"
       id="Arrow1Mend-8"
       style="overflow:visible">
      <path
         id="path4316-4"
         d="M 0,0 5,-5 -12.5,0 5,5 0,0 z"
         style="fill-rule:evenodd;stroke:#000000;stroke-width:1pt;marker-start:none"
         transform="matrix(-0.4,0,0,-0.4,-4,0)"
         inkscape:connector-curvature="0" />
    </marker>
    <marker
       inkscape:stockid="Arrow1Mend"
       orient="auto"
       refY="0"
       refX="0"
       id="Arrow1Mend-6"
       style="overflow:visible">
      <path
         id="path4316-5"
         d="M 0,0 5,-5 -12.5,0 5,5 0,0 z"
         style="fill-rule:evenodd;stroke:#000000;stroke-width:1pt;marker-start:none"
         transform="matrix(-0.4,0,0,-0.4,-4,0)"
         inkscape:connector-curvature="0" />
    </marker>
  </defs>
  <sodipodi:namedview
     id="base"
     pagecolor="#ffffff"
     bordercolor="#666666"
     borderopacity="1.0"
     inkscape:pageopacity="0.0"
     inkscape:pageshadow="2"
     inkscape:zoom="0.70000001"
     inkscape:cx="231.16716"
     inkscape:cy="85.231751"
     inkscape:document-units="px"
     inkscape:current-layer="layer1"
     showgrid="false"
     inkscape:window-width="1613"
     inkscape:window-height="924"
     inkscape:window-x="65"
     inkscape:window-y="39"
     inkscape:window-maximized="0"
     fit-margin-top="0"
     fit-margin-left="0"
     fit-margin-right="0"
     fit-margin-bottom="0" />
  <metadata
     id="metadata7">
    <rdf:RDF>
      <cc:Work
         rdf:about="">
        <dc:format>image/svg+xml</dc:format>
        <dc:type
           rdf:resource="http://purl.org/dc/dcmitype/StillImage" />
        <dc:title />
      </cc:Work>
    </rdf:RDF>
  </metadata>
  <g
     inkscape:label="Layer 1"
     inkscape:groupmode="layer"
     id="layer1"
     transform="translate(-141.36942,-23.141511)">
    <rect
       ry="0"
       y="-482.43784"
       x="161.7435"
       height="5.2824287"
       width="124.34171"
       id="rect4444"
       style="fill:#ff0000;fill-opacity:1;fill-rule:nonzero;stroke:none"
       transform="matrix(0.21275823,0.97710487,-0.97710487,0.21275823,0,0)" />
    <rect
       transform="matrix(-0.21275823,0.97710487,0.97710487,0.21275823,0,0)"
       style="fill:#ff0000;fill-opacity:1;fill-rule:nonzero;stroke:none"
       id="rect4448"
       width="124.34171"
       height="5.2824287"
       x="-52.020958"
       y="499.28799"
       ry="0" />
    <rect
       transform="scale(-1,1)"
       style="fill:#ff0000;fill-opacity:1;fill-rule:nonzero;stroke:none"
       id="rect4450"
       width="53.28046"
       height="5.2824292"
       x="-530.95441"
       y="172.55006"
       ry="0" />
    <rect
       ry="0"
       y="172.55006"
       x="-584.72192"
       height="5.2824292"
       width="47.306286"
       id="rect6771"
       style="fill:#ff0000;fill-opacity:1;fill-rule:nonzero;stroke:none"
       transform="scale(-1,1)" />
    <text
       xml:space="preserve"
       style="font-size:16.52574158px;font-style:normal;font-weight:normal;line-height:125%;letter-spacing:0px;word-spacing:0px;fill:#000000;fill-opacity:1;stroke:none;font-family:Bitstream Vera Sans"
       x="555.72028"
       y="151.64575"
       id="text3173-65"
       sodipodi:linespacing="125%"><tspan
         sodipodi:role="line"
         x="555.72028"
         y="151.64575"
         id="tspan4399">Photodetector</tspan></text>
    <rect
       style="fill:#0000ff;fill-opacity:1;fill-rule:nonzero;stroke:none"
       id="rect5877"
       width="107.66573"
       height="1.7841451"
       x="474.41635"
       y="176.46938"
       ry="0"
       transform="matrix(0.99999399,-0.00346726,-0.00101755,0.99999948,0,0)" />
    <rect
       transform="matrix(0.21131857,-0.97741724,0.97710945,0.21273722,0,0)"
       ry="0"
       y="500.94781"
       x="-70.437508"
       height="1.7841344"
       width="124.33202"
       id="rect4485"
       style="fill:#0000ff;fill-opacity:1;fill-rule:nonzero;stroke:none" />
    <rect
       style="fill:#0000ff;fill-opacity:1;fill-rule:nonzero;stroke:none"
       id="rect4487"
       width="124.33202"
       height="1.7841344"
       x="-284.18616"
       y="-481.11636"
       ry="0"
       transform="matrix(-0.21131857,-0.97741724,-0.97710945,0.21273722,0,0)" />
    <rect
       style="fill:#00e4d9;fill-opacity:1;fill-rule:nonzero;stroke:none"
       id="rect4411"
       width="7.9375329"
       height="48.653542"
       x="-505.82138"
       y="227.51056"
       ry="2.2636282"
       transform="matrix(-0.70710678,-0.70710678,0.70710678,-0.70710678,0,0)" />
    <rect
       style="fill:#00e4d9;fill-opacity:1;fill-rule:nonzero;stroke:none"
       id="rect4413"
       width="7.9375329"
       height="48.653542"
       x="-57.248058"
       y="-528.21265"
       ry="2.2636282"
       transform="matrix(0,-1,-1,0,0,0)" />
    <rect
       transform="matrix(-0.9995365,-0.03044308,-0.04644961,0.99892063,0,0)"
       style="fill:#ff0000;fill-opacity:1;fill-rule:nonzero;stroke:none"
       id="rect4508"
       width="278.49255"
       height="5.2844634"
       x="-479.82101"
       y="157.28224"
       ry="0" />
    <rect
       ry="0"
       y="89.62532"
       x="-450.97534"
       height="5.2824292"
       width="176.81297"
       id="rect4516"
       style="fill:#ff0000;fill-opacity:1;fill-rule:nonzero;stroke:none"
       transform="scale(-1,1)" />
    <rect
       transform="matrix(-0.95774124,0.28763123,0.44476824,0.8956457,0,0)"
       style="fill:#ff0000;fill-opacity:1;fill-rule:nonzero;stroke:none"
       id="rect4520"
       width="264.22467"
       height="5.5317364"
       x="-369.89636"
       y="217.06718"
       ry="0" />
    <rect
       transform="matrix(0.95904361,-0.28325847,0.41813904,0.90838304,0,0)"
       ry="0"
       y="196.75261"
       x="111.48085"
       height="1.8445538"
       width="265.81818"
       id="rect4522"
       style="fill:#0000ff;fill-opacity:1;fill-rule:nonzero;stroke:none" />
    <rect
       style="fill:#0000ff;fill-opacity:1;fill-rule:nonzero;stroke:none"
       id="rect4518"
       width="176.5654"
       height="1.7841467"
       x="267.79904"
       y="72.678047"
       ry="0"
       transform="matrix(0.99999776,-0.00211425,-0.00166873,0.99999861,0,0)" />
    <rect
       transform="matrix(0.99553067,0.09443881,-0.15509419,0.98789969,0,0)"
       ry="0"
       y="128.99937"
       x="209.78204"
       height="1.7921188"
       width="289.12082"
       id="rect4510"
       style="fill:#0000ff;fill-opacity:1;fill-rule:nonzero;stroke:none" />
    <rect
       transform="matrix(0.92456721,-0.38101899,-0.38101899,-0.92456721,0,0)"
       ry="2.2636282"
       y="-269.45978"
       x="379.04956"
       height="48.653542"
       width="7.9375329"
       id="rect4514"
       style="fill:#00e4d9;fill-opacity:1;fill-rule:nonzero;stroke:none" />
    <path
       sodipodi:type="arc"
       style="fill:#ffb300;fill-opacity:1;fill-rule:nonzero;stroke:none"
       id="path6753"
       sodipodi:cx="165.71428"
       sodipodi:cy="320.21933"
       sodipodi:rx="39.285713"
       sodipodi:ry="39.285713"
       d="m 204.99999,320.21933 c 0,21.6969 -17.58881,39.28571 -39.28571,39.28571 -21.54989,0 -39.0772,-17.35999 -39.28391,-38.90889 l 39.28391,-0.37682 z"
       sodipodi:start="0"
       sodipodi:end="3.1320006"
       transform="matrix(0,0.45465371,0.45465371,0,436.05671,99.585269)" />
    <path
       style="fill:url(#linearGradient4541);fill-opacity:1;fill-rule:nonzero;stroke:url(#linearGradient4549);stroke-width:0.52824295;stroke-linecap:butt;stroke-linejoin:round;stroke-miterlimit:4;stroke-opacity:1;stroke-dasharray:none;stroke-dashoffset:0"
       d="m 231.32203,35.01773 c -12.6759,0 -23.66721,6.870437 -29.16341,16.947802 -0.65833,-0.02163 -1.31497,-0.05487 -1.98091,-0.05487 -23.08502,0 -41.76421,13.119867 -41.76421,29.328498 0,11.536898 9.48587,21.50633 23.2757,26.3021 1.84358,13.66016 19.98848,24.3762 42.09437,24.3762 23.3306,0 42.2044,-11.95216 42.2044,-26.68728 0,-1.85871 -0.25259,-3.64092 -0.8254,-5.392475 0.42753,0.0109 0.83452,0.05487 1.2656,0.05487 20.38359,0 36.92197,-11.118642 36.92197,-24.871435 0,-13.752773 -16.53838,-24.926456 -36.92197,-24.926456 -2.32028,0 -4.56653,0.218922 -6.76811,0.495228 -5.72252,-9.311285 -16.25635,-15.572163 -28.33803,-15.572163 z"
       id="path4524"
       inkscape:connector-curvature="0" />
    <path
       style="fill:url(#linearGradient4568);fill-opacity:1;fill-rule:nonzero;stroke:none"
       d="m 231.32203,35.01773 c -12.6759,0 -23.66721,6.870437 -29.16341,16.947802 -0.65833,-0.02163 -1.31497,-0.05487 -1.98091,-0.05487 -23.08502,0 -41.76421,13.119867 -41.76421,29.328498 0,1.651326 0.2318,3.265692 0.60528,4.84221 16.24728,-9.251665 42.65282,-15.241999 72.52334,-15.241999 27.85402,0 52.76051,5.217674 69.16681,13.426172 1.69531,-2.855178 2.64121,-5.978358 2.64121,-9.244251 0,-13.752774 -16.53838,-24.926456 -36.92197,-24.926456 -2.32028,0 -4.56653,0.218921 -6.76811,0.495227 -5.72252,-9.311289 -16.25635,-15.572167 -28.33803,-15.572167 z"
       id="path4553"
       inkscape:connector-curvature="0" />
    <text
       sodipodi:linespacing="125%"
       id="text4572"
       y="76.811348"
       x="175.25958"
       style="font-size:16.52574158px;font-style:normal;font-weight:normal;line-height:125%;letter-spacing:0px;word-spacing:0px;fill:#000000;fill-opacity:1;stroke:none;font-family:Bitstream Vera Sans"
       xml:space="preserve"><tspan
         id="tspan4574"
         y="76.811348"
         x="175.25958"
         sodipodi:role="line">Interferometer</tspan><tspan
         y="97.468521"
         x="175.25958"
         sodipodi:role="line"
         id="tspan4576">System</tspan></text>
    <text
       sodipodi:linespacing="125%"
       id="text4578"
       y="41.437424"
       x="474.72476"
       style="font-size:24.65133476px;font-style:normal;font-weight:normal;line-height:125%;letter-spacing:0px;word-spacing:0px;fill:#000000;fill-opacity:1;stroke:none;font-family:Bitstream Vera Sans"
       xml:space="preserve"><tspan
         y="41.437424"
         x="474.72476"
         id="tspan4580"
         sodipodi:role="line">OMC</tspan></text>
    <path
       sodipodi:open="true"
       transform="matrix(-0.19303739,1.9243361,-1.9243361,-0.19303739,673.73809,-229.03213)"
       sodipodi:end="2.1743124"
       sodipodi:start="0"
       d="m 236.24943,227.13069 c 0,7.00852 -5.68153,12.69004 -12.69004,12.69004 -2.57243,0 -5.08412,-0.78179 -7.20212,-2.24175"
       sodipodi:ry="12.690042"
       sodipodi:rx="12.690042"
       sodipodi:cy="227.13069"
       sodipodi:cx="223.55939"
       id="path8138"
       style="fill:none;stroke:#000000;stroke-width:0.78927583;stroke-linecap:butt;stroke-linejoin:round;stroke-miterlimit:4;stroke-opacity:1;stroke-dasharray:none;marker-start:url(#Arrow1Sstart);marker-end:url(#Arrow1Send)"
       sodipodi:type="arc" />
    <g
       id="g8668"
       transform="matrix(2.0026718,0,0,2.0026718,-307.15548,-101.2869)"
       ns0:preamble=""
       ns0:text="$f_{d_2}$">
      <defs
         id="defs8670">
        <g
           id="g8672">
          <symbol
             id="textext-f517490e-0"
             overflow="visible"
             style="overflow:visible">
            <path
               id="path8675"
               d="m 3.65625,-3.984375 0.859375,0 c 0.203125,0 0.296875,0 0.296875,-0.203125 0,-0.109375 -0.09375,-0.109375 -0.265625,-0.109375 l -0.828125,0 0.203125,-1.140625 c 0.046875,-0.203125 0.1875,-0.90625 0.25,-1.03125 0.078125,-0.1875 0.25,-0.34375 0.46875,-0.34375 0.03125,0 0.296875,0 0.484375,0.1875 -0.4375,0.03125 -0.546875,0.390625 -0.546875,0.53125 0,0.234375 0.1875,0.359375 0.375,0.359375 C 5.21875,-5.734375 5.5,-5.96875 5.5,-6.34375 c 0,-0.453125 -0.453125,-0.6875 -0.859375,-0.6875 -0.34375,0 -0.96875,0.1875 -1.265625,1.171875 -0.0625,0.203125 -0.09375,0.3125 -0.328125,1.5625 l -0.6875,0 c -0.203125,0 -0.3125,0 -0.3125,0.1875 0,0.125 0.09375,0.125 0.28125,0.125 l 0.65625,0 -0.734375,3.9375 c -0.1875,0.96875 -0.359375,1.875 -0.875,1.875 -0.046875,0 -0.28125,0 -0.484375,-0.1875 C 1.359375,1.609375 1.453125,1.25 1.453125,1.109375 1.453125,0.875 1.265625,0.75 1.078125,0.75 0.8125,0.75 0.53125,0.984375 0.53125,1.359375 c 0,0.4375 0.4375,0.6875 0.84375,0.6875 0.546875,0 0.953125,-0.59375 1.125,-0.96875 0.328125,-0.625 0.546875,-1.828125 0.5625,-1.90625 z m 0,0"
               style="stroke:none"
               inkscape:connector-curvature="0" />
          </symbol>
          <symbol
             id="textext-f517490e-1"
             overflow="visible"
             style="overflow:visible">
            <path
               id="path8678"
               d="M 3.984375,-4.625 C 3.984375,-4.640625 4,-4.734375 4,-4.734375 4,-4.78125 3.984375,-4.84375 3.890625,-4.84375 3.75,-4.84375 3.171875,-4.78125 3,-4.765625 c -0.046875,0 -0.15625,0.015625 -0.15625,0.15625 0,0.09375 0.109375,0.09375 0.1875,0.09375 0.328125,0 0.328125,0.0625 0.328125,0.109375 0,0.046875 0,0.09375 -0.015625,0.15625 L 2.9375,-2.65625 c -0.140625,-0.234375 -0.375,-0.421875 -0.71875,-0.421875 -0.890625,0 -1.796875,0.984375 -1.796875,1.984375 0,0.6875 0.453125,1.15625 1.0625,1.15625 0.375,0 0.703125,-0.203125 0.984375,-0.484375 C 2.59375,0 3,0.0625 3.1875,0.0625 c 0.25,0 0.421875,-0.140625 0.546875,-0.359375 0.15625,-0.28125 0.25,-0.671875 0.25,-0.703125 0,-0.09375 -0.09375,-0.09375 -0.109375,-0.09375 -0.109375,0 -0.109375,0.03125 -0.15625,0.21875 C 3.625,-0.53125 3.5,-0.125 3.203125,-0.125 3.03125,-0.125 2.96875,-0.28125 2.96875,-0.46875 c 0,-0.125 0.015625,-0.1875 0.046875,-0.28125 z M 2.5,-0.875 C 2.453125,-0.671875 2.296875,-0.53125 2.140625,-0.40625 2.078125,-0.34375 1.796875,-0.125 1.5,-0.125 c -0.265625,0 -0.515625,-0.1875 -0.515625,-0.671875 0,-0.375 0.203125,-1.140625 0.375,-1.421875 0.3125,-0.5625 0.671875,-0.65625 0.859375,-0.65625 0.484375,0 0.625,0.53125 0.625,0.609375 0,0.015625 -0.015625,0.078125 -0.015625,0.09375 z m 0,0"
               style="stroke:none"
               inkscape:connector-curvature="0" />
          </symbol>
          <symbol
             id="textext-f517490e-2"
             overflow="visible"
             style="overflow:visible">
            <path
               id="path8681"
               d="m 2.9375,-0.96875 -0.21875,0 c 0,0.09375 -0.0625,0.40625 -0.140625,0.453125 -0.03125,0.03125 -0.453125,0.03125 -0.53125,0.03125 l -0.96875,0 C 1.40625,-0.71875 1.765625,-1 2.0625,-1.203125 c 0.453125,-0.3125 0.875,-0.59375 0.875,-1.125 0,-0.640625 -0.609375,-0.984375 -1.3125,-0.984375 -0.671875,0 -1.171875,0.375 -1.171875,0.875 0,0.25 0.21875,0.296875 0.296875,0.296875 0.125,0 0.28125,-0.09375 0.28125,-0.296875 0,-0.171875 -0.125,-0.28125 -0.28125,-0.28125 0.140625,-0.234375 0.4375,-0.375 0.765625,-0.375 0.484375,0 0.890625,0.28125 0.890625,0.765625 0,0.421875 -0.296875,0.75 -0.671875,1.0625 l -1.21875,1.03125 C 0.46875,-0.1875 0.453125,-0.1875 0.453125,-0.15625 l 0,0.15625 2.3125,0 z m 0,0"
               style="stroke:none"
               inkscape:connector-curvature="0" />
          </symbol>
        </g>
      </defs>
      <g
         id="textext-f517490e-3">
        <g
           id="g8684"
           style="fill:#000000;fill-opacity:1">
          <use
             id="use8686"
             y="134.765"
             x="223.43201"
             xlink:href="#textext-f517490e-0"
             width="744.09448"
             height="1052.3622" />
        </g>
        <g
           id="g8688"
           style="fill:#000000;fill-opacity:1">
          <use
             id="use8690"
             y="136.259"
             x="228.31"
             xlink:href="#textext-f517490e-1"
             width="744.09448"
             height="1052.3622" />
        </g>
        <g
           id="g8692"
           style="fill:#000000;fill-opacity:1">
          <use
             id="use8694"
             y="137.256"
             x="232.457"
             xlink:href="#textext-f517490e-2"
             width="744.09448"
             height="1052.3622" />
        </g>
      </g>
    </g>
    <path
       sodipodi:type="arc"
       style="fill:none;stroke:#000000;stroke-width:0.78927583;stroke-linecap:butt;stroke-linejoin:round;stroke-miterlimit:4;stroke-opacity:1;stroke-dasharray:none;marker-start:url(#Arrow1Sstart);marker-end:url(#Arrow1Send)"
       id="path5322"
       sodipodi:cx="223.55939"
       sodipodi:cy="227.13069"
       sodipodi:rx="12.690042"
       sodipodi:ry="12.690042"
       d="m 236.24943,227.13069 c 0,7.00852 -5.68153,12.69004 -12.69004,12.69004 -2.57243,0 -5.08412,-0.78179 -7.20212,-2.24175"
       sodipodi:start="0"
       sodipodi:end="2.1743124"
       transform="matrix(0.09381523,-2.0260621,2.0260621,0.09381523,-30.761889,520.72163)"
       sodipodi:open="true" />
    <g
       ns0:text="$f_{d_1}$"
       ns0:preamble=""
       transform="matrix(2.0694621,0,0,2.0694621,-12.361198,-222.48668)"
       id="g8302">
      <defs
         id="defs8304">
        <g
           id="g8306">
          <symbol
             overflow="visible"
             id="textext-1a7dacdc-0"
             style="overflow:visible">
            <path
               style="stroke:none"
               d="m 3.65625,-3.984375 0.859375,0 c 0.203125,0 0.296875,0 0.296875,-0.203125 0,-0.109375 -0.09375,-0.109375 -0.265625,-0.109375 l -0.828125,0 0.203125,-1.140625 c 0.046875,-0.203125 0.1875,-0.90625 0.25,-1.03125 0.078125,-0.1875 0.25,-0.34375 0.46875,-0.34375 0.03125,0 0.296875,0 0.484375,0.1875 -0.4375,0.03125 -0.546875,0.390625 -0.546875,0.53125 0,0.234375 0.1875,0.359375 0.375,0.359375 C 5.21875,-5.734375 5.5,-5.96875 5.5,-6.34375 c 0,-0.453125 -0.453125,-0.6875 -0.859375,-0.6875 -0.34375,0 -0.96875,0.1875 -1.265625,1.171875 -0.0625,0.203125 -0.09375,0.3125 -0.328125,1.5625 l -0.6875,0 c -0.203125,0 -0.3125,0 -0.3125,0.1875 0,0.125 0.09375,0.125 0.28125,0.125 l 0.65625,0 -0.734375,3.9375 c -0.1875,0.96875 -0.359375,1.875 -0.875,1.875 -0.046875,0 -0.28125,0 -0.484375,-0.1875 C 1.359375,1.609375 1.453125,1.25 1.453125,1.109375 1.453125,0.875 1.265625,0.75 1.078125,0.75 0.8125,0.75 0.53125,0.984375 0.53125,1.359375 c 0,0.4375 0.4375,0.6875 0.84375,0.6875 0.546875,0 0.953125,-0.59375 1.125,-0.96875 0.328125,-0.625 0.546875,-1.828125 0.5625,-1.90625 z m 0,0"
               id="path8309"
               inkscape:connector-curvature="0" />
          </symbol>
          <symbol
             overflow="visible"
             id="textext-1a7dacdc-1"
             style="overflow:visible">
            <path
               style="stroke:none"
               d="M 3.984375,-4.625 C 3.984375,-4.640625 4,-4.734375 4,-4.734375 4,-4.78125 3.984375,-4.84375 3.890625,-4.84375 3.75,-4.84375 3.171875,-4.78125 3,-4.765625 c -0.046875,0 -0.15625,0.015625 -0.15625,0.15625 0,0.09375 0.109375,0.09375 0.1875,0.09375 0.328125,0 0.328125,0.0625 0.328125,0.109375 0,0.046875 0,0.09375 -0.015625,0.15625 L 2.9375,-2.65625 c -0.140625,-0.234375 -0.375,-0.421875 -0.71875,-0.421875 -0.890625,0 -1.796875,0.984375 -1.796875,1.984375 0,0.6875 0.453125,1.15625 1.0625,1.15625 0.375,0 0.703125,-0.203125 0.984375,-0.484375 C 2.59375,0 3,0.0625 3.1875,0.0625 c 0.25,0 0.421875,-0.140625 0.546875,-0.359375 0.15625,-0.28125 0.25,-0.671875 0.25,-0.703125 0,-0.09375 -0.09375,-0.09375 -0.109375,-0.09375 -0.109375,0 -0.109375,0.03125 -0.15625,0.21875 C 3.625,-0.53125 3.5,-0.125 3.203125,-0.125 3.03125,-0.125 2.96875,-0.28125 2.96875,-0.46875 c 0,-0.125 0.015625,-0.1875 0.046875,-0.28125 z M 2.5,-0.875 C 2.453125,-0.671875 2.296875,-0.53125 2.140625,-0.40625 2.078125,-0.34375 1.796875,-0.125 1.5,-0.125 c -0.265625,0 -0.515625,-0.1875 -0.515625,-0.671875 0,-0.375 0.203125,-1.140625 0.375,-1.421875 0.3125,-0.5625 0.671875,-0.65625 0.859375,-0.65625 0.484375,0 0.625,0.53125 0.625,0.609375 0,0.015625 -0.015625,0.078125 -0.015625,0.09375 z m 0,0"
               id="path8312"
               inkscape:connector-curvature="0" />
          </symbol>
          <symbol
             overflow="visible"
             id="textext-1a7dacdc-2"
             style="overflow:visible">
            <path
               style="stroke:none"
               d="M 1.984375,-3.171875 C 1.984375,-3.3125 1.96875,-3.3125 1.796875,-3.3125 1.453125,-3 0.890625,-3 0.796875,-3 l -0.078125,0 0,0.21875 0.078125,0 c 0.109375,0 0.4375,-0.015625 0.734375,-0.140625 l 0,2.5 c 0,0.140625 0,0.203125 -0.53125,0.203125 l -0.25,0 L 0.75,0 c 0.265625,-0.015625 0.71875,-0.015625 1,-0.015625 0.296875,0 0.734375,0 1.015625,0.015625 l 0,-0.21875 -0.25,0 c -0.53125,0 -0.53125,-0.0625 -0.53125,-0.203125 z m 0,0"
               id="path8315"
               inkscape:connector-curvature="0" />
          </symbol>
        </g>
      </defs>
      <g
         id="textext-1a7dacdc-3">
        <g
           style="fill:#000000;fill-opacity:1"
           id="g8318">
          <use
             xlink:href="#textext-1a7dacdc-0"
             x="223.43201"
             y="134.765"
             id="use8320"
             width="744.09448"
             height="1052.3622" />
        </g>
        <g
           style="fill:#000000;fill-opacity:1"
           id="g8322">
          <use
             xlink:href="#textext-1a7dacdc-1"
             x="228.31"
             y="136.259"
             id="use8324"
             width="744.09448"
             height="1052.3622" />
        </g>
        <g
           style="fill:#000000;fill-opacity:1"
           id="g8326">
          <use
             xlink:href="#textext-1a7dacdc-2"
             x="232.457"
             y="137.256"
             id="use8328"
             width="744.09448"
             height="1052.3622" />
        </g>
      </g>
    </g>
    <rect
       ry="0"
       y="177.3091"
       x="211.78134"
       height="0.84755009"
       width="267.24261"
       id="rect5317"
       style="fill:none;stroke:#000000;stroke-width:1.49077797;stroke-miterlimit:4;stroke-opacity:1;stroke-dasharray:5.96311143, 1.49077786;stroke-dashoffset:0" />
    <rect
       style="fill:#00e4d9;fill-opacity:1;fill-rule:nonzero;stroke:none"
       id="rect4512"
       width="7.9375329"
       height="48.653542"
       x="108.0623"
       y="-245.52489"
       ry="2.2636282"
       transform="matrix(0.91587344,-0.40146711,-0.40146711,-0.91587344,0,0)" />
    <rect
       transform="matrix(0.70710678,-0.70710678,-0.70710678,-0.70710678,0,0)"
       ry="2.2636282"
       y="-483.84662"
       x="205.53578"
       height="48.653542"
       width="7.9375329"
       id="rect4409"
       style="fill:#00e4d9;fill-opacity:1;fill-rule:nonzero;stroke:none" />
    <path
       sodipodi:type="arc"
       style="fill:#000000;fill-opacity:1;fill-rule:nonzero;stroke:none"
       id="path4798"
       sodipodi:cx="278.57144"
       sodipodi:cy="189.68361"
       sodipodi:rx="5.8928571"
       sodipodi:ry="1.0714285"
       d="m 284.46067,189.64601 c 0.008,0.0409 0.003,0.0819 -0.015,0.1227 l -5.87424,-0.0851 z"
       sodipodi:start="6.2480873"
       sodipodi:end="6.3626959"
       transform="matrix(1.7608097,0,0,1.7608097,-107.55524,-159.72467)" />
    <g
       ns0:text="$\\theta_c$"
       ns0:preamble=""
       transform="matrix(2.7161156,0,0,2.7161156,-342.81797,-160.32458)"
       id="g6628">
      <defs
         id="defs6630">
        <g
           id="g6632">
          <symbol
             style="overflow:visible"
             overflow="visible"
             id="textext-ac7a16de-0">
            <path
               inkscape:connector-curvature="0"
               style="stroke:none"
               d="m 4.53125,-4.984375 c 0,-0.65625 -0.171875,-2.046875 -1.1875,-2.046875 -1.390625,0 -2.921875,2.8125 -2.921875,5.09375 0,0.9375 0.28125,2.046875 1.1875,2.046875 1.40625,0 2.921875,-2.859375 2.921875,-5.09375 z M 1.46875,-3.625 C 1.640625,-4.25 1.84375,-5.046875 2.25,-5.765625 2.515625,-6.25 2.875,-6.8125 3.328125,-6.8125 c 0.484375,0 0.546875,0.640625 0.546875,1.203125 0,0.5 -0.078125,1 -0.3125,1.984375 z m 2,0.328125 C 3.359375,-2.84375 3.15625,-2 2.765625,-1.28125 c -0.34375,0.6875 -0.71875,1.171875 -1.15625,1.171875 -0.328125,0 -0.53125,-0.296875 -0.53125,-1.21875 0,-0.421875 0.0625,-1 0.3125,-1.96875 z m 0,0"
               id="path6635" />
          </symbol>
          <symbol
             style="overflow:visible"
             overflow="visible"
             id="textext-ac7a16de-1">
            <path
               inkscape:connector-curvature="0"
               style="stroke:none"
               d="m 3.046875,-2.671875 c -0.25,0.046875 -0.34375,0.234375 -0.34375,0.390625 0,0.1875 0.140625,0.265625 0.265625,0.265625 0.15625,0 0.390625,-0.109375 0.390625,-0.453125 0,-0.46875 -0.53125,-0.609375 -0.90625,-0.609375 -1.046875,0 -2.015625,0.96875 -2.015625,1.9375 0,0.59375 0.40625,1.203125 1.28125,1.203125 1.1875,0 1.734375,-0.6875 1.734375,-0.78125 0,-0.046875 -0.0625,-0.125 -0.125,-0.125 -0.03125,0 -0.046875,0.015625 -0.109375,0.078125 C 2.671875,-0.125 1.859375,-0.125 1.734375,-0.125 c -0.5,0 -0.71875,-0.34375 -0.71875,-0.78125 0,-0.1875 0.09375,-0.953125 0.453125,-1.4375 0.265625,-0.34375 0.625,-0.53125 0.984375,-0.53125 0.09375,0 0.421875,0.015625 0.59375,0.203125 z m 0,0"
               id="path6638" />
          </symbol>
        </g>
      </defs>
      <g
         id="textext-ac7a16de-2">
        <g
           style="fill:#000000;fill-opacity:1"
           id="g6641">
          <use
             height="252.70116"
             width="363.94617"
             xlink:href="#textext-ac7a16de-0"
             x="223.43201"
             y="134.765"
             id="use6643" />
        </g>
        <g
           style="fill:#000000;fill-opacity:1"
           id="g6645">
          <use
             height="252.70116"
             width="363.94617"
             xlink:href="#textext-ac7a16de-1"
             x="228.10899"
             y="136.259"
             id="use6647" />
        </g>
      </g>
    </g>
    <g
       id="g7241"
       transform="matrix(2.7780019,0,0,2.716129,-304.02158,-161.39466)"
       ns0:preamble=""
       ns0:text="$\\theta_s$">
      <defs
         id="defs7243">
        <g
           id="g7245">
          <symbol
             id="textext-06fbbe46-0"
             overflow="visible"
             style="overflow:visible">
            <path
               id="path7248"
               d="m 4.53125,-4.984375 c 0,-0.65625 -0.171875,-2.046875 -1.1875,-2.046875 -1.390625,0 -2.921875,2.8125 -2.921875,5.09375 0,0.9375 0.28125,2.046875 1.1875,2.046875 1.40625,0 2.921875,-2.859375 2.921875,-5.09375 z M 1.46875,-3.625 C 1.640625,-4.25 1.84375,-5.046875 2.25,-5.765625 2.515625,-6.25 2.875,-6.8125 3.328125,-6.8125 c 0.484375,0 0.546875,0.640625 0.546875,1.203125 0,0.5 -0.078125,1 -0.3125,1.984375 z m 2,0.328125 C 3.359375,-2.84375 3.15625,-2 2.765625,-1.28125 c -0.34375,0.6875 -0.71875,1.171875 -1.15625,1.171875 -0.328125,0 -0.53125,-0.296875 -0.53125,-1.21875 0,-0.421875 0.0625,-1 0.3125,-1.96875 z m 0,0"
               style="stroke:none"
               inkscape:connector-curvature="0" />
          </symbol>
          <symbol
             id="textext-06fbbe46-1"
             overflow="visible"
             style="overflow:visible">
            <path
               id="path7251"
               d="m 3,-2.625 c -0.171875,0.046875 -0.296875,0.1875 -0.296875,0.328125 0,0.171875 0.140625,0.234375 0.234375,0.234375 0.078125,0 0.34375,-0.046875 0.34375,-0.40625 0,-0.453125 -0.5,-0.609375 -0.9375,-0.609375 -1.078125,0 -1.28125,0.8125 -1.28125,1.015625 0,0.265625 0.15625,0.4375 0.25,0.515625 0.171875,0.140625 0.296875,0.171875 0.78125,0.25 0.15625,0.03125 0.59375,0.109375 0.59375,0.453125 0,0.125 -0.078125,0.390625 -0.359375,0.5625 C 2.046875,-0.125 1.703125,-0.125 1.625,-0.125 1.34375,-0.125 0.953125,-0.1875 0.78125,-0.421875 1.015625,-0.453125 1.171875,-0.625 1.171875,-0.8125 c 0,-0.171875 -0.125,-0.265625 -0.265625,-0.265625 -0.203125,0 -0.40625,0.171875 -0.40625,0.46875 0,0.421875 0.4375,0.671875 1.109375,0.671875 1.296875,0 1.53125,-0.875 1.53125,-1.140625 0,-0.640625 -0.703125,-0.765625 -0.96875,-0.8125 -0.0625,-0.015625 -0.234375,-0.046875 -0.28125,-0.0625 -0.25,-0.046875 -0.375,-0.1875 -0.375,-0.34375 0,-0.15625 0.125,-0.34375 0.28125,-0.453125 0.1875,-0.109375 0.421875,-0.125 0.546875,-0.125 0.140625,0 0.5,0.015625 0.65625,0.25 z m 0,0"
               style="stroke:none"
               inkscape:connector-curvature="0" />
          </symbol>
        </g>
      </defs>
      <g
         id="textext-06fbbe46-2">
        <g
           id="g7254"
           style="fill:#000000;fill-opacity:1">
          <use
             id="use7256"
             y="134.765"
             x="223.43201"
             xlink:href="#textext-06fbbe46-0"
             width="363.94617"
             height="252.70116" />
        </g>
        <g
           id="g7258"
           style="fill:#000000;fill-opacity:1">
          <use
             id="use7260"
             y="136.259"
             x="228.10899"
             xlink:href="#textext-06fbbe46-1"
             width="363.94617"
             height="252.70116" />
        </g>
      </g>
    </g>
    <rect
       style="fill:#ff0000;fill-opacity:1;fill-rule:nonzero;stroke:none"
       id="rect5917"
       width="95.106636"
       height="5.2824292"
       x="565.26868"
       y="72.493431"
       ry="0" />
    <rect
       style="fill:#0000ff;fill-opacity:1;fill-rule:nonzero;stroke:none"
       id="rect5919"
       width="95.106636"
       height="2.2010121"
       x="565.26868"
       y="107.55782"
       ry="0" />
    <text
       sodipodi:linespacing="125%"
       id="text5921"
       y="66.005157"
       x="556.66327"
       style="font-size:17.75323868px;font-style:normal;font-weight:normal;line-height:125%;letter-spacing:0px;word-spacing:0px;fill:#000000;fill-opacity:1;stroke:none;font-family:Bitstream Vera Sans"
       xml:space="preserve"><tspan
         id="tspan5923"
         y="66.005157"
         x="556.66327"
         sodipodi:role="line">Carrier Beam</tspan></text>
    <text
       xml:space="preserve"
       style="font-size:17.75323868px;font-style:normal;font-weight:normal;line-height:125%;letter-spacing:0px;word-spacing:0px;fill:#000000;fill-opacity:1;stroke:none;font-family:Bitstream Vera Sans"
       x="556.48987"
       y="99.518951"
       id="text5925"
       sodipodi:linespacing="125%"><tspan
         sodipodi:role="line"
         x="556.48987"
         y="99.518951"
         id="tspan5927">Signal Beam</tspan></text>
    <text
       xml:space="preserve"
       style="font-size:14.40980816px;font-style:normal;font-weight:normal;line-height:125%;letter-spacing:0px;word-spacing:0px;fill:#000000;fill-opacity:1;stroke:none;font-family:Bitstream Vera Sans"
       x="352.03705"
       y="135.00562"
       id="text3173-6"
       sodipodi:linespacing="125%"><tspan
         sodipodi:role="line"
         id="tspan3175-5"
         x="352.03705"
         y="135.00562">Dithered </tspan><tspan
         sodipodi:role="line"
         x="352.03705"
         y="153.01787"
         id="tspan4405">Steering Mirrors</tspan></text>
    <path
       style="fill:none;stroke:#000000;stroke-width:0.88040483;stroke-linecap:butt;stroke-linejoin:miter;stroke-miterlimit:4;stroke-opacity:1;stroke-dasharray:none;marker-end:url(#Arrow1Mend)"
       d="m 419.0222,128.06699 c 0,0 9.01243,-5.78764 18.07283,-5.59252 13.32988,0.28706 24.15445,5.64778 19.70273,-16.66535"
       id="path4409"
       inkscape:connector-curvature="0"
       sodipodi:nodetypes="csc" />
    <path
       sodipodi:nodetypes="csc"
       inkscape:connector-curvature="0"
       id="path5084"
       d="m 349.05942,136.51574 c 0,0 -16.15087,-11.2681 -24.96523,-13.37428 -12.75589,-3.04794 -57.08273,-16.94414 -134.42798,9.57028"
       style="fill:none;stroke:#000000;stroke-width:0.88040483;stroke-linecap:butt;stroke-linejoin:miter;stroke-miterlimit:4;stroke-opacity:1;stroke-dasharray:none;marker-end:url(#Arrow1Mend)" />
    <path
       style="fill:none;stroke:#000000;stroke-width:1.27658832;stroke-linecap:butt;stroke-linejoin:miter;stroke-miterlimit:4;stroke-opacity:1;stroke-dasharray:none;marker-end:url(#Arrow1Mend)"
       d="m 315.27906,138.40249 c -3.49016,5.76904 -3.76801,6.89959 -6.01624,17.03432"
       id="path4409-6"
       inkscape:connector-curvature="0"
       sodipodi:nodetypes="cc" />
    <path
       style="fill:none;stroke:#000000;stroke-width:0.88040483;stroke-linecap:butt;stroke-linejoin:miter;stroke-miterlimit:4;stroke-opacity:1;stroke-dasharray:none"
       d="m 303.47683,157.37848 c 10.99929,1.14576 10.99929,1.14576 10.99929,1.14576"
       id="path3308"
       inkscape:connector-curvature="0" />
    <path
       sodipodi:nodetypes="cc"
       inkscape:connector-curvature="0"
       id="path4126"
       d="m 259.3213,143.97685 c -3.00925,6.03387 -3.19423,7.18327 -4.6105,17.46731"
       style="fill:none;stroke:#000000;stroke-width:1.27658832;stroke-linecap:butt;stroke-linejoin:miter;stroke-miterlimit:4;stroke-opacity:1;stroke-dasharray:none;marker-end:url(#Arrow1Mend)" />
    <path
       inkscape:connector-curvature="0"
       id="path4128"
       d="m 249.102,163.85012 c 11.05601,0.2471 11.05601,0.2471 11.05601,0.2471"
       style="fill:none;stroke:#000000;stroke-width:0.88040483;stroke-linecap:butt;stroke-linejoin:miter;stroke-miterlimit:4;stroke-opacity:1;stroke-dasharray:none" />
    <path
       style="fill:none;stroke:#000000;stroke-width:1.27658832;stroke-linecap:butt;stroke-linejoin:miter;stroke-miterlimit:4;stroke-opacity:1;stroke-dasharray:none;marker-end:url(#Arrow1Mend)"
       d="m 258.65429,199.87574 c -3.00925,-6.03387 -3.19421,-7.18327 -4.6105,-17.4673"
       id="path4132"
       inkscape:connector-curvature="0"
       sodipodi:nodetypes="cc" />
    <path
       style="fill:none;stroke:#000000;stroke-width:0.88040483;stroke-linecap:butt;stroke-linejoin:miter;stroke-miterlimit:4;stroke-opacity:1;stroke-dasharray:none"
       d="m 248.43499,180.00247 c 11.05603,-0.2471 11.05603,-0.2471 11.05603,-0.2471"
       id="path4134"
       inkscape:connector-curvature="0" />
    <path
       sodipodi:nodetypes="cc"
       inkscape:connector-curvature="0"
       id="path4138"
       d="m 311.27698,199.97879 c -2.83673,-6.11688 -2.98898,-7.27108 -4.11271,-17.59118"
       style="fill:none;stroke:#000000;stroke-width:1.27658832;stroke-linecap:butt;stroke-linejoin:miter;stroke-miterlimit:4;stroke-opacity:1;stroke-dasharray:none;marker-end:url(#Arrow1Mend)" />
    <path
       inkscape:connector-curvature="0"
       id="path4140"
       d="m 301.62603,179.82338 c 11.0586,0.0669 11.0586,0.0669 11.0586,0.0669"
       style="fill:none;stroke:#000000;stroke-width:0.88040483;stroke-linecap:butt;stroke-linejoin:miter;stroke-miterlimit:4;stroke-opacity:1;stroke-dasharray:none" />
  </g>
</svg>
